<?xml version="1.0" encoding="UTF-8"?><svg id="Calque_2" xmlns="http://www.w3.org/2000/svg" viewBox="0 0 28 32"><g id="Layer_1"><path d="M28,2v28c0,.57-.2,1.05-.6,1.45-.4.37-.87.55-1.4.55h-8c-.57,0-1.05-.18-1.45-.55-.37-.4-.55-.88-.55-1.45V2.05c0-.57.18-1.05.55-1.45.4-.4.88-.6,1.45-.6h8c.53,0,1,.2,1.4.6s.6.87.6,1.4M11.4.6c.4.4.6.87.6,1.4v28c0,.57-.2,1.05-.6,1.45-.4.37-.87.55-1.4.55H2c-.57,0-1.05-.18-1.45-.55-.37-.4-.55-.88-.55-1.45V2.05c0-.57.18-1.05.55-1.45.4-.4.88-.6,1.45-.6h8c.53,0,1,.2,1.4.6" fill="#fff"/></g></svg>