<?xml version="1.0" encoding="UTF-8"?><svg id="Calque_2" xmlns="http://www.w3.org/2000/svg" viewBox="0 0 70 70"><g id="Calque_1-2"><g id="Layer0_48_FILL"><path d="M11.65,0C5.38,0,1.67,2.53.5,7.6c-.13.23-.2.48-.2.75,0,.03,0,.07,0,.1v.1c-.03.07-.05.15-.05.25-.03.07-.05.15-.05.25,0,.03,0,.07,0,.1-.13.67-.2,1.42-.2,2.25v47.5c.07,2.97.78,5.35,2.15,7.15.43.6.97,1.15,1.6,1.65h-.05c1.9,1.53,4.55,2.3,7.95,2.3h46.7c.6,0,1.2-.02,1.8-.05h.05c.52-.05,1.02-.13,1.5-.25h0c1.41-.27,2.64-.73,3.7-1.4.03-.03.08-.05.15-.05.23-.17.47-.33.7-.5.03-.03.07-.07.1-.1.57-.5,1.08-1.03,1.55-1.6,0-.03.02-.05.05-.05.97-1.4,1.6-3.08,1.9-5.05.07-.2.1-.42.1-.65,0-.03,0-.07,0-.1,0-.13.02-.27.05-.4V11.65c0-2.7-.48-4.9-1.45-6.6-1.77-3.37-5.17-5.05-10.2-5.05H11.65M58.35,2c4.13,0,6.95,1.33,8.45,4,.8,1.47,1.2,3.35,1.2,5.65v47.85c-.03.23-.05.47-.05.7,0,.03,0,.07,0,.1-.03.07-.05.13-.05.2-.23,1.7-.77,3.13-1.6,4.3-.37.47-.78.9-1.25,1.3-.23.17-.47.33-.7.5-.38.23-.8.43-1.25.6h0c-.92.39-1.95.64-3.1.75-.53.03-1.08.05-1.65.05H11.65c-2.87,0-5.1-.63-6.7-1.9-.47-.37-.87-.78-1.2-1.25-1.1-1.5-1.68-3.5-1.75-6V11.4c0-.7.05-1.35.15-1.95.03-.17.07-.32.1-.45l.05-.45s.02-.07.05-.1c.93-4.3,4.03-6.45,9.3-6.45h46.7Z" fill="#79919a"/><path d="M11.65,4c-.67,0-1.3.03-1.9.1-3.73.43-6.12,2.22-7.15,5.35-.23.63-.38,1.35-.45,2.15-.1.16-.15.36-.15.6v46.65c.07,2.5.65,4.5,1.75,6,.33.47.73.88,1.2,1.25,1.6,1.27,3.83,1.9,6.7,1.9h46.7c.57,0,1.12-.02,1.65-.05,1.15-.11,2.18-.36,3.1-.75h0c.45-.17.87-.37,1.25-.6.23-.17.47-.33.7-.5.47-.4.88-.83,1.25-1.3.83-1.17,1.37-2.6,1.6-4.3,0-.07.02-.13.05-.2,0-.03,0-.07,0-.1,0-.23.02-.47.05-.7V12.2c0-.18-.04-.36-.1-.55-.3-2.5-1.22-4.38-2.75-5.65-1.6-1.33-3.87-2-6.8-2H11.65M58,14v2h-4.95l-23.6,42H12V14h46M58,54.85v3.15h-20.75l20.75-36.95v33.8Z" fill="#b9cdd4"/><path d="M58,55.5V21.05l-20.75,36.95h20.75v-2.5M58,16v-2H12v2h46Z" fill="#adc3cb"/><path d="M12,58h17.45l23.6-42H12v42Z" fill="#c1d1d7"/><path d="M9.75,4.1c.6-.07,1.23-.1,1.9-.1h46.7c2.93,0,5.2.67,6.8,2,1.53,1.27,2.45,3.15,2.75,5.65.06.19.1.37.1.55v-.55c0-2.3-.4-4.18-1.2-5.65-1.5-2.67-4.32-4-8.45-4H11.65c-5.27,0-8.37,2.15-9.3,6.45-.03.03-.05.07-.05.1l-.05.45c-.03.13-.07.28-.1.45-.1.6-.15,1.25-.15,1.95v.8c0-.24.05-.44.15-.6.07-.8.22-1.52.45-2.15,1.03-3.13,3.42-4.92,7.15-5.35Z" fill="#c5d9e0"/></g></g></svg>