<?xml version="1.0" encoding="UTF-8"?><svg id="Calque_2" xmlns="http://www.w3.org/2000/svg" viewBox="0 0 70 70"><g id="Calque_1-2"><g id="Layer0_38_FILL"><path d="M68.3,23.9c-.57-1.73-1.29-3.41-2.15-5.05-1.64-3.06-3.79-5.91-6.45-8.55h.05c-4.37-4.37-9.3-7.35-14.8-8.95-2.26-.65-4.62-1.07-7.1-1.25-.93-.07-1.88-.1-2.85-.1-9.7,0-17.97,3.43-24.8,10.3-3.05,3.07-5.42,6.42-7.1,10.05-2.07,4.46-3.1,9.34-3.1,14.65v1.3c.14,4.85,1.18,9.34,3.1,13.45.96,2.08,2.15,4.04,3.55,5.9,1.06,1.43,2.24,2.79,3.55,4.1v.05c.42.41.83.81,1.25,1.2,6.62,6,14.47,9,23.55,9,.84,0,1.67-.03,2.5-.1,1.86-.1,3.66-.35,5.4-.75,6.3-1.38,11.9-4.5,16.8-9.35h.05c6.53-6.57,9.95-14.4,10.25-23.5v-1.3c0-3.93-.57-7.63-1.7-11.1M68,35.95v.3c-.3,8.57-3.53,15.93-9.7,22.1-4.14,4.12-8.82,6.92-14.05,8.4-1.78.52-3.65.87-5.6,1.05-1.18.13-2.4.2-3.65.2-8.72,0-16.24-2.93-22.55-8.8-.28-.28-.56-.56-.85-.85-1.46-1.46-2.76-3-3.9-4.6-2.12-3.04-3.66-6.32-4.6-9.85-.65-2.44-1.02-4.99-1.1-7.65v-1.25c0-3.08.37-6.01,1.1-8.8,1.43-5.41,4.27-10.24,8.5-14.5,6.47-6.47,14.27-9.7,23.4-9.7.6,0,1.18.02,1.75.05,2.51.12,4.91.48,7.2,1.1,5.34,1.47,10.12,4.32,14.35,8.55,2.85,2.83,5.06,5.92,6.65,9.25.83,1.75,1.48,3.55,1.95,5.4.73,2.75,1.1,5.63,1.1,8.65v.95Z" fill="#79919a"/><path d="M68,35.95v-.95c0-3.02-.37-5.9-1.1-8.65-.47-1.85-1.12-3.65-1.95-5.4-1.59-3.33-3.8-6.42-6.65-9.25-4.23-4.23-9.01-7.08-14.35-8.55-2.29-.62-4.69-.98-7.2-1.1-.57-.03-1.15-.05-1.75-.05-9.13,0-16.93,3.23-23.4,9.7-4.23,4.26-7.07,9.09-8.5,14.5-.73,2.79-1.1,5.72-1.1,8.8v.95c.07-2.71.44-5.31,1.1-7.8,1.44-5.38,4.27-10.2,8.5-14.45,6.47-6.47,14.27-9.7,23.4-9.7h.65c2.56.05,4.99.35,7.3.9,5.75,1.38,10.87,4.32,15.35,8.8,2.54,2.54,4.57,5.27,6.1,8.2.88,1.66,1.6,3.38,2.15,5.15.87,2.81,1.35,5.78,1.45,8.9Z" fill="#c5d9e0"/><path d="M68,36v-.05c-.1-3.12-.58-6.09-1.45-8.9-.55-1.77-1.27-3.49-2.15-5.15-1.53-2.93-3.56-5.66-6.1-8.2-4.48-4.48-9.6-7.42-15.35-8.8-2.31-.55-4.74-.85-7.3-.9h-.65c-9.13,0-16.93,3.23-23.4,9.7-4.23,4.25-7.06,9.07-8.5,14.45-.66,2.49-1.03,5.09-1.1,7.8v.3c.08,2.66.45,5.21,1.1,7.65.94,3.53,2.48,6.81,4.6,9.85,1.14,1.6,2.44,3.14,3.9,4.6.29.29.57.57.85.85,6.31,5.87,13.83,8.8,22.55,8.8,1.25,0,2.47-.07,3.65-.2,1.95-.18,3.82-.53,5.6-1.05,5.23-1.48,9.91-4.28,14.05-8.4,6.17-6.17,9.4-13.53,9.7-22.1v-.25M31,12.3c1.29-.2,2.62-.3,4-.3s2.58.1,3.8.3c4.71.74,8.86,2.91,12.45,6.5,4.13,4.1,6.36,8.98,6.7,14.65.03.51.05,1.03.05,1.55v1.1c-.03-.81-.09-1.61-.2-2.4l-12.2,21.75c-3.2,1.7-6.74,2.55-10.6,2.55-6.37,0-11.8-2.23-16.3-6.7,0-.03-.02-.05-.05-.05-.37-.37-.74-.76-1.1-1.15L37.75,14.15c-.89-.1-1.8-.15-2.75-.15-1.83,0-3.58.18-5.25.55l-16.25,28.9c-.88-2.27-1.36-4.7-1.45-7.3-.03-.13-.05-.27-.05-.4v-.75c0-6.33,2.23-11.73,6.7-16.2v-.05c3.53-3.53,7.63-5.68,12.3-6.45Z" fill="#b9cdd4"/><path d="M18.7,20.8c-4.27,4.27-6.48,9.38-6.65,15.35.09,2.6.57,5.03,1.45,7.3L29.75,14.55c-4.16.93-7.84,2.99-11.05,6.2v.05Z" fill="#c1d1d7"/><path d="M35,12c-1.38,0-2.71.1-4,.3-4.67.77-8.77,2.92-12.3,6.45v.05c-4.47,4.47-6.7,9.87-6.7,16.2v.75c0,.13.02.27.05.4.17-5.97,2.38-11.08,6.65-15.35v-.05c3.21-3.21,6.89-5.27,11.05-6.2,1.67-.37,3.42-.55,5.25-.55.95,0,1.86.05,2.75.15l-20.2,35.95c.36.39.73.78,1.1,1.15.03,0,.05.02.05.05,4.5,4.47,9.93,6.7,16.3,6.7,3.86,0,7.4-.85,10.6-2.55l12.2-21.75c.11.79.17,1.59.2,2.4v-1.1c0-.52-.02-1.04-.05-1.55-.34-5.67-2.57-10.55-6.7-14.65-3.59-3.59-7.74-5.76-12.45-6.5-1.22-.2-2.49-.3-3.8-.3Z" fill="#adc3cb"/></g></g></svg>