<?xml version="1.0" encoding="UTF-8"?><svg id="Calque_2" xmlns="http://www.w3.org/2000/svg" viewBox="0 0 70 70"><g id="Calque_1-2"><g id="Layer0_14_FILL"><path d="M59.7,10.25h0C52.85,3.41,44.62,0,35,0,25.31,0,17.03,3.41,10.15,10.25v.05C3.38,17.12,0,25.35,0,35v1.3c.28,9.09,3.66,16.91,10.15,23.45h.05c6.85,6.84,15.12,10.25,24.8,10.25,9.61,0,17.85-3.41,24.7-10.25h0c6.55-6.53,9.99-14.34,10.3-23.45,0,0,0-.02,0-.05v-1.25c0-9.66-3.44-17.91-10.3-24.75M68,36v.25c-.3,8.57-3.53,15.93-9.7,22.1-6.47,6.43-14.23,9.65-23.3,9.65s-16.93-3.22-23.4-9.65c-6.13-6.17-9.33-13.53-9.6-22.1v-1.25c0-9.1,3.2-16.87,9.6-23.3,6.47-6.47,14.27-9.7,23.4-9.7s16.83,3.23,23.3,9.7c6.47,6.43,9.7,14.2,9.7,23.3v1M58,34.25s0-.1,0-.15c-.22-5.95-2.47-11.05-6.75-15.3-4.53-4.53-9.95-6.8-16.25-6.8s-11.8,2.25-16.3,6.75v.05c-4.23,4.23-6.46,9.3-6.7,15.2.02.05.04.1.05.15.2,5.83,2.4,10.87,6.6,15.1.03,0,.05.02.05.05,4.5,4.47,9.93,6.7,16.3,6.7s11.72-2.23,16.25-6.7v-.05c4.19-4.19,6.44-9.17,6.75-14.95v-.05M49.8,20.2h.05c3.87,3.86,5.92,8.48,6.15,13.85,0,.04,0,.08,0,.1v.05s0,.07,0,.1c-.32,5.23-2.38,9.73-6.2,13.5-.09.12-.17.24-.25.35-4.08,3.9-8.93,5.85-14.55,5.85-5.62,0-10.45-1.9-14.5-5.7-.15-.42-.43-.72-.85-.9-3.55-3.76-5.42-8.21-5.6-13.35,0-.06-.02-.12-.05-.2.28-5.28,2.31-9.83,6.1-13.65.1-.07.19-.16.25-.25,4.06-3.96,8.95-5.95,14.65-5.95,5.75,0,10.68,2.07,14.8,6.2Z" fill="#7b5633"/><path d="M68,35.95v-.95c0-9.1-3.23-16.87-9.7-23.3-6.47-6.47-14.23-9.7-23.3-9.7s-16.93,3.23-23.4,9.7c-6.4,6.43-9.6,14.2-9.6,23.3v.95c.23-8.63,3.43-16.05,9.6-22.25,6.47-6.47,14.27-9.7,23.4-9.7s16.83,3.23,23.3,9.7c6.2,6.2,9.43,13.62,9.7,22.25M58,35.7v-1.4c-.31,5.78-2.56,10.76-6.75,14.95v.05c-4.53,4.47-9.95,6.7-16.25,6.7s-11.8-2.23-16.3-6.7c0-.03-.02-.05-.05-.05-4.2-4.23-6.4-9.27-6.6-15.1-.01-.05-.03-.1-.05-.15v1.75c0,.13.02.27.05.4.2,5.83,2.4,10.87,6.6,15.1.03,0,.05.02.05.05,4.5,4.47,9.93,6.7,16.3,6.7s11.72-2.23,16.25-6.7v-.05c4.23-4.23,6.48-9.28,6.75-15.15v-.4Z" fill="#bb844d"/><path d="M68,36.25v-.3c-.27-8.63-3.5-16.05-9.7-22.25-6.47-6.47-14.23-9.7-23.3-9.7s-16.93,3.23-23.4,9.7c-6.17,6.2-9.37,13.62-9.6,22.25v.3c.27,8.57,3.47,15.93,9.6,22.1,6.47,6.43,14.27,9.65,23.4,9.65s16.83-3.22,23.3-9.65c6.17-6.17,9.4-13.53,9.7-22.1M58,34.1c0,.05,0,.1,0,.15v1.85c-.27,5.87-2.52,10.92-6.75,15.15v.05c-4.53,4.47-9.95,6.7-16.25,6.7s-11.8-2.23-16.3-6.7c0-.03-.02-.05-.05-.05-4.2-4.23-6.4-9.27-6.6-15.1-.03-.13-.05-.27-.05-.4v-1.75c.24-5.9,2.47-10.97,6.7-15.2v-.05c4.5-4.5,9.93-6.75,16.3-6.75s11.72,2.27,16.25,6.8c4.28,4.25,6.53,9.35,6.75,15.3Z" fill="#ae7640"/></g></g></svg>