<?xml version="1.0" encoding="UTF-8"?><svg id="Calque_2" xmlns="http://www.w3.org/2000/svg" viewBox="0 0 70 70"><g id="Calque_1-2"><g id="Layer0_10_FILL"><path d="M70,36.2v-1.2c0-9.67-3.43-17.9-10.3-24.7h.05C52.88,3.43,44.63,0,35,0S17.03,3.43,10.2,10.3C3.4,17.13,0,25.37,0,35v1.3c.27,9.1,3.67,16.92,10.2,23.45v.05c6.87,6.8,15.13,10.2,24.8,10.2s17.83-3.4,24.7-10.2h.05c6.53-6.57,9.95-14.4,10.25-23.5v-.1M68,36v.25c-.3,8.57-3.53,15.93-9.7,22.1-6.47,6.43-14.23,9.65-23.3,9.65s-16.93-3.22-23.4-9.65c-6.13-6.17-9.33-13.53-9.6-22.1v-1.25c0-9.1,3.2-16.87,9.6-23.3,6.47-6.47,14.27-9.7,23.4-9.7s16.83,3.23,23.3,9.7c6.47,6.43,9.7,14.2,9.7,23.3v1Z" fill="#7b5633"/><path d="M68,35.95v-.95c0-9.1-3.23-16.87-9.7-23.3-6.47-6.47-14.23-9.7-23.3-9.7s-16.93,3.23-23.4,9.7c-6.4,6.43-9.6,14.2-9.6,23.3v.95c.23-8.63,3.43-16.05,9.6-22.25,6.47-6.47,14.27-9.7,23.4-9.7s16.83,3.23,23.3,9.7c6.2,6.2,9.43,13.62,9.7,22.25Z" fill="#bb844d"/><path d="M68,36.25v-.3c-.27-8.63-3.5-16.05-9.7-22.25-6.47-6.47-14.23-9.7-23.3-9.7s-16.93,3.23-23.4,9.7c-6.17,6.2-9.37,13.62-9.6,22.25v.3c.27,8.57,3.47,15.93,9.6,22.1,6.47,6.43,14.27,9.65,23.4,9.65s16.83-3.22,23.3-9.65c6.17-6.17,9.4-13.53,9.7-22.1M58,35.7v.4c-.27,5.87-2.52,10.92-6.75,15.15v.05c-4.53,4.47-9.95,6.7-16.25,6.7s-11.8-2.23-16.3-6.7c0-.03-.02-.05-.05-.05-4.2-4.23-6.4-9.27-6.6-15.1-.03-.13-.05-.27-.05-.4v-.75c0-6.33,2.23-11.73,6.7-16.2v-.05c4.5-4.5,9.93-6.75,16.3-6.75s11.72,2.27,16.25,6.8c4.5,4.47,6.75,9.87,6.75,16.2v.7Z" fill="#ae7640"/><path d="M58,36.1c-.2-5.93-2.45-11.03-6.75-15.3-4.53-4.53-9.95-6.8-16.25-6.8s-11.8,2.25-16.3,6.75v.05c-4.27,4.27-6.48,9.38-6.65,15.35.2,5.83,2.4,10.87,6.6,15.1.03,0,.05.02.05.05,4.5,4.47,9.93,6.7,16.3,6.7s11.72-2.23,16.25-6.7v-.05c4.23-4.23,6.48-9.28,6.75-15.15Z" fill="#a06d3d"/><path d="M51.25,20.8c4.3,4.27,6.55,9.37,6.75,15.3v-1.1c0-6.33-2.25-11.73-6.75-16.2-4.53-4.53-9.95-6.8-16.25-6.8s-11.8,2.25-16.3,6.75v.05c-4.47,4.47-6.7,9.87-6.7,16.2v.75c0,.13.02.27.05.4.17-5.97,2.38-11.08,6.65-15.35v-.05c4.5-4.5,9.93-6.75,16.3-6.75s11.72,2.27,16.25,6.8Z" fill="#946538"/></g></g></svg>