<?xml version="1.0" encoding="UTF-8"?><svg id="Calque_2" xmlns="http://www.w3.org/2000/svg" viewBox="0 0 140 140"><g id="Calque_1-2"><g id="Layer0_4_FILL"><path d="M138.55,5.05v-.05C136.78,1.67,133.38,0,128.35,0H11.65C5.4,0,1.68,2.53.5,7.6c-.14.24-.2.47-.2.7,0,.05,0,.08,0,.1v.15c-.02.07-.04.14-.05.2-.02.1-.03.2-.05.3,0,.03-.03.04-.05.05C.05,9.82,0,10.58,0,11.4v117.5c.08,2.98.78,5.34,2.1,7.1.46.63.99,1.18,1.6,1.65h0c1.89,1.57,4.54,2.35,7.95,2.35h116.7c.61,0,1.19-.02,1.75-.05.04,0,.07,0,.1,0,2.03-.2,3.77-.75,5.2-1.65.04-.02.07-.06.1-.1.25-.15.48-.32.7-.5.06-.02.11-.05.15-.1.57-.48,1.07-1.01,1.5-1.6.03,0,.05-.02.05-.05,1.01-1.35,1.66-3.02,1.95-5,.07-.21.1-.42.1-.65v-.1c0-.14,0-.29,0-.45.03-.08.05-.16.05-.25V11.65c0-2.69-.49-4.89-1.45-6.6M138,11.65v117.85c-.03.23-.05.47-.05.7v.1c-.03.07-.05.13-.05.2-.23,1.7-.77,3.13-1.6,4.3-.37.47-.78.9-1.25,1.3-.23.17-.47.33-.7.5-1.2.73-2.65,1.18-4.35,1.35-.53.03-1.08.05-1.65.05H11.65c-2.87,0-5.1-.63-6.7-1.9-.47-.37-.87-.78-1.2-1.25-1.1-1.5-1.68-3.5-1.75-6V11.4c0-.7.05-1.35.15-1.95.03-.17.07-.32.1-.45l.05-.45s.02-.07.05-.1c.93-4.3,4.03-6.45,9.3-6.45h116.7c4.13,0,6.95,1.33,8.45,4,.8,1.47,1.2,3.35,1.2,5.65M128,125.5V14H12v112h116v-.5M14,124V16h112v108H14Z" fill="#79919a"/><path d="M137.9,11.65c-.3-2.5-1.22-4.38-2.75-5.65-1.6-1.33-3.87-2-6.8-2H11.65c-.67,0-1.3.03-1.9.1-3.73.43-6.12,2.22-7.15,5.35-.23.63-.38,1.35-.45,2.15-.1.16-.15.36-.15.6v116.65c.07,2.5.65,4.5,1.75,6,.33.47.73.88,1.2,1.25,1.6,1.27,3.83,1.9,6.7,1.9h116.7c.57,0,1.12-.02,1.65-.05,1.7-.17,3.15-.62,4.35-1.35.23-.17.47-.33.7-.5.47-.4.88-.83,1.25-1.3.83-1.17,1.37-2.6,1.6-4.3,0-.07.02-.13.05-.2v-.1c0-.23.02-.47.05-.7V12.2c0-.18-.04-.36-.1-.55M12,128V14h116v114H12Z" fill="#b9cdd4"/><path d="M12,126v2h116v-2H12M135.15,6c1.53,1.27,2.45,3.15,2.75,5.65.06.19.1.37.1.55v-.55c0-2.3-.4-4.18-1.2-5.65-1.5-2.67-4.32-4-8.45-4H11.65c-5.27,0-8.37,2.15-9.3,6.45-.03.03-.05.07-.05.1l-.05.45c-.03.13-.07.28-.1.45-.1.6-.15,1.25-.15,1.95v.8c0-.24.05-.44.15-.6.07-.8.22-1.52.45-2.15,1.03-3.13,3.42-4.92,7.15-5.35.6-.07,1.23-.1,1.9-.1h116.7c2.93,0,5.2.67,6.8,2Z" fill="#c5d9e0"/></g></g></svg>