<?xml version="1.0" encoding="UTF-8"?><svg id="Calque_2" xmlns="http://www.w3.org/2000/svg" viewBox="0 0 70 70"><g id="Calque_1-2"><path d="M0,23.3V0h70v23.3l-11.65-11.5-11.7,11.5-11.6-11.5-11.7,11.5-11.7-11.5-1.45,1.45L.05,23.3h-.05M70,38.5v31.5H0v-31.5l11.65-11.5,11.7,11.5,11.7-11.5,11.6,11.5,11.7-11.5,11.65,11.5M59.8,45.15c.73.73,1.62,1.1,2.65,1.1s1.92-.37,2.65-1.1,1.1-1.6,1.1-2.6c0-1.03-.37-1.92-1.1-2.65s-1.62-1.1-2.65-1.1-1.92.37-2.65,1.1c-.7.73-1.05,1.62-1.05,2.65s.35,1.87,1.05,2.6M53.45,58.8c0-1.03-.37-1.92-1.1-2.65s-1.62-1.1-2.65-1.1-1.92.37-2.65,1.1c-.7.73-1.05,1.62-1.05,2.65s.35,1.87,1.05,2.6c.73.73,1.62,1.1,2.65,1.1s1.92-.37,2.65-1.1,1.1-1.6,1.1-2.6M33.95,43.45c0-1.03-.37-1.92-1.1-2.65-.73-.73-1.62-1.1-2.65-1.1s-1.92.37-2.65,1.1c-.7.73-1.05,1.62-1.05,2.65s.35,1.87,1.05,2.6c.73.73,1.62,1.1,2.65,1.1s1.92-.37,2.65-1.1c.73-.73,1.1-1.6,1.1-2.6M18,47.7c1.37-1.33,2.05-2.95,2.05-4.85,0-1.9-.68-3.53-2.05-4.9-1.33-1.33-2.95-2-4.85-2s-3.53.67-4.9,2c-1.33,1.37-2,3-2,4.9s.67,3.52,2,4.85c1.37,1.37,3,2.05,4.9,2.05s3.52-.68,4.85-2.05M24.95,47.95c-1.03,0-1.92.37-2.65,1.1-.7.73-1.05,1.62-1.05,2.65s.35,1.87,1.05,2.6c.73.73,1.62,1.1,2.65,1.1s1.92-.37,2.65-1.1c.73-.73,1.1-1.6,1.1-2.6,0-1.03-.37-1.92-1.1-2.65-.73-.73-1.62-1.1-2.65-1.1M51.7,9.25c0-1.03-.37-1.92-1.1-2.65s-1.62-1.1-2.65-1.1-1.92.37-2.65,1.1c-.7.73-1.05,1.62-1.05,2.65s.35,1.87,1.05,2.6c.73.73,1.62,1.1,2.65,1.1s1.92-.37,2.65-1.1,1.1-1.6,1.1-2.6" fill="#917052"/><path d="M51.7,9.25c0,1-.37,1.87-1.1,2.6s-1.62,1.1-2.65,1.1-1.92-.37-2.65-1.1c-.7-.73-1.05-1.6-1.05-2.6s.35-1.92,1.05-2.65c.73-.73,1.62-1.1,2.65-1.1s1.92.37,2.65,1.1,1.1,1.62,1.1,2.65M70,23.3v15.2l-11.65-11.5-11.7,11.5-11.6-11.5-11.7,11.5-11.7-11.5L0,38.5v-15.2h.05l10.15-10.05,1.45-1.45,11.7,11.5,11.7-11.5,11.6,11.5,11.7-11.5,11.65,11.5M24.95,47.95c1.03,0,1.92.37,2.65,1.1.73.73,1.1,1.62,1.1,2.65,0,1-.37,1.87-1.1,2.6-.73.73-1.62,1.1-2.65,1.1s-1.92-.37-2.65-1.1c-.7-.73-1.05-1.6-1.05-2.6s.35-1.92,1.05-2.65c.73-.73,1.62-1.1,2.65-1.1M18,47.7c-1.33,1.37-2.95,2.05-4.85,2.05s-3.53-.68-4.9-2.05c-1.33-1.33-2-2.95-2-4.85s.67-3.53,2-4.9c1.37-1.33,3-2,4.9-2s3.52.67,4.85,2c1.37,1.37,2.05,3,2.05,4.9,0,1.9-.68,3.52-2.05,4.85M33.95,43.45c0,1-.37,1.87-1.1,2.6-.73.73-1.62,1.1-2.65,1.1s-1.92-.37-2.65-1.1c-.7-.73-1.05-1.6-1.05-2.6s.35-1.92,1.05-2.65c.73-.73,1.62-1.1,2.65-1.1s1.92.37,2.65,1.1c.73.73,1.1,1.62,1.1,2.65M53.45,58.8c0,1-.37,1.87-1.1,2.6s-1.62,1.1-2.65,1.1-1.92-.37-2.65-1.1c-.7-.73-1.05-1.6-1.05-2.6s.35-1.92,1.05-2.65c.73-.73,1.62-1.1,2.65-1.1s1.92.37,2.65,1.1,1.1,1.62,1.1,2.65M59.8,45.15c-.7-.73-1.05-1.6-1.05-2.6s.35-1.92,1.05-2.65c.73-.73,1.62-1.1,2.65-1.1s1.92.37,2.65,1.1,1.1,1.62,1.1,2.65c0,1-.37,1.87-1.1,2.6s-1.62,1.1-2.65,1.1-1.92-.37-2.65-1.1" fill="#876748"/></g></svg>