<?xml version="1.0" encoding="UTF-8"?><svg id="Calque_2" xmlns="http://www.w3.org/2000/svg" viewBox="0 0 42 42"><g id="Calque_1-2"><g id="Layer0_39_FILL"><path d="M30.05,2C27.75.87,25.27.22,22.6.05c-.4-.03-.8-.05-1.2-.05h-.95c-5.6.13-10.38,2.18-14.35,6.15C2.03,10.25,0,15.2,0,21v.1c0,.23.02.47.05.7v.2c.03,1.23.17,2.42.4,3.55.27,1.2.63,2.37,1.1,3.5.1.3.23.62.4.95.37.77.78,1.53,1.25,2.3.33.5.72,1.02,1.15,1.55.5.63,1.05,1.27,1.65,1.9.03.03.07.07.1.1.4.4.8.78,1.2,1.15.13.07.25.15.35.25.57.5,1.18.97,1.85,1.4.5.33,1.02.65,1.55.95.6.3,1.22.58,1.85.85,2.47,1.03,5.17,1.55,8.1,1.55,5.8,0,10.73-2.05,14.8-6.15,3.83-3.8,5.9-8.33,6.2-13.6v-1.25c0-1.67-.17-3.27-.5-4.8-.13-.6-.28-1.2-.45-1.8-.07-.1-.12-.22-.15-.35-.23-.67-.5-1.3-.8-1.9-.77-1.63-1.78-3.17-3.05-4.6-.3-.37-.6-.7-.9-1-.1-.13-.22-.27-.35-.4-.17-.17-.33-.32-.5-.45-.47-.47-.93-.88-1.4-1.25-.6-.5-1.22-.95-1.85-1.35-.67-.43-1.33-.8-2-1.1M29.15,3.9c.6.27,1.2.6,1.8,1,.57.37,1.12.77,1.65,1.2.43.33.85.72,1.25,1.15.17.1.32.23.45.4.13.1.25.22.35.35.27.27.53.57.8.9,1.13,1.3,2.05,2.68,2.75,4.15.27.53.5,1.1.7,1.7.03.1.08.2.15.3.13.53.27,1.08.4,1.65.3,1.37.45,2.8.45,4.3,0,.03,0,.07,0,.1,0,.27,0,.53,0,.8v.1h-3.15v.15c-.27,3.87-1.82,7.2-4.65,10-3.03,3.07-6.73,4.6-11.1,4.6-1.3,0-2.55-.13-3.75-.4-.73-.17-1.43-.38-2.1-.65-.97-.4-1.88-.88-2.75-1.45-.1-.07-.2-.13-.3-.2-.4-.27-.77-.55-1.1-.85-.13-.1-.25-.2-.35-.3-.27-.23-.53-.48-.8-.75-.6-.6-1.13-1.22-1.6-1.85-.4-.53-.75-1.08-1.05-1.65-.3-.5-.55-1.02-.75-1.55-.17-.33-.3-.67-.4-1-.2-.57-.35-1.13-.45-1.7-.17-.77-.27-1.57-.3-2.4h-3.15s0-.07,0-.1c0-.07,0-.13,0-.2-.03-.2-.05-.4-.05-.6,0-.03,0-.07,0-.1,0-5.23,1.83-9.68,5.5-13.35,3.57-3.57,7.87-5.42,12.9-5.55h.85c.37,0,.73.02,1.1.05,2.4.13,4.63.72,6.7,1.75M29.9,18.25c-.1-.13-.23-.22-.4-.25l-4.75-1.8-3.15-3.9c-.1-.13-.23-.22-.4-.25-.17-.07-.32-.07-.45,0-.17.03-.28.12-.35.25l-3.2,3.9-4.7,1.8c-.17.03-.28.12-.35.25-.1.1-.15.23-.15.4s.03.32.1.45l2.8,4.2.2,4.95c0,.17.05.32.15.45.1.13.23.22.4.25.13.07.27.08.4.05l4.9-1.35,4.9,1.35c.17.03.32.02.45-.05.13-.03.25-.12.35-.25.1-.13.15-.28.15-.45l.3-5,2.8-4.15c.07-.13.1-.28.1-.45s-.03-.3-.1-.4M23.2,17.45c.23.3.52.52.85.65l3.3,1.25-1.8,2.65h-9.1l-1.8-2.65,3.3-1.25c.3-.13.57-.33.8-.6l2.25-2.75,2.2,2.7Z" fill="#fc0"/><path d="M22.2,5.3c-.4-.03-.8-.05-1.2-.05-4.37,0-8.08,1.53-11.15,4.6-3.07,3.1-4.6,6.82-4.6,11.15v.1c0,.23.02.45.05.65v.25c.03.83.13,1.63.3,2.4.1.57.25,1.13.45,1.7.1.33.23.67.4,1,.2.53.45,1.05.75,1.55.3.57.65,1.12,1.05,1.65.47.63,1,1.25,1.6,1.85.27.27.53.52.8.75.1.1.22.2.35.3.33.3.7.58,1.1.85.1.07.2.13.3.2.87.57,1.78,1.05,2.75,1.45.67.27,1.37.48,2.1.65,1.2.27,2.45.4,3.75.4,4.37,0,8.07-1.53,11.1-4.6,2.83-2.8,4.38-6.13,4.65-10v-1.15c0-.63-.03-1.25-.1-1.85-.03-.33-.08-.67-.15-1-.07-.3-.12-.58-.15-.85-.1-.43-.22-.85-.35-1.25-.7-2.1-1.83-3.98-3.4-5.65-.17-.2-.33-.38-.5-.55-.13-.13-.27-.27-.4-.4-.1-.1-.18-.18-.25-.25-.5-.43-1-.82-1.5-1.15-.23-.17-.45-.32-.65-.45-.5-.33-1-.62-1.5-.85-1.73-.83-3.6-1.32-5.6-1.45M29.5,18c.17.03.3.12.4.25.07.1.1.23.1.4s-.03.32-.1.45l-2.8,4.15-.3,5c0,.17-.05.32-.15.45-.1.13-.22.22-.35.25-.13.07-.28.08-.45.05l-4.9-1.35-4.9,1.35c-.13.03-.27.02-.4-.05-.17-.03-.3-.12-.4-.25-.1-.13-.15-.28-.15-.45l-.2-4.95-2.8-4.2c-.07-.13-.1-.28-.1-.45s.05-.3.15-.4c.07-.13.18-.22.35-.25l4.7-1.8,3.2-3.9c.07-.13.18-.22.35-.25.13-.07.28-.07.45,0,.17.03.3.12.4.25l3.15,3.9,4.75,1.8Z" fill="#e5b700"/><path d="M24.05,18.1c-.33-.13-.62-.35-.85-.65l-2.2-2.7-2.25,2.75c-.23.27-.5.47-.8.6l-3.3,1.25,1.8,2.65h9.1l1.8-2.65-3.3-1.25M21,5.25c.4,0,.8.02,1.2.05,2,.13,3.87.62,5.6,1.45.5.23,1,.52,1.5.85.2.13.42.28.65.45.5.33,1,.72,1.5,1.15.07.07.15.15.25.25.13.13.27.27.4.4.17.17.33.35.5.55,1.57,1.67,2.7,3.55,3.4,5.65.13.4.25.82.35,1.25.03.27.08.55.15.85.07.33.12.67.15,1,.07.6.1,1.22.1,1.85v1h3.15v-.1c0-.27,0-.53,0-.8,0-.03,0-.07,0-.1,0-1.5-.15-2.93-.45-4.3-.13-.57-.27-1.12-.4-1.65-.07-.1-.12-.2-.15-.3-.2-.6-.43-1.17-.7-1.7-.7-1.47-1.62-2.85-2.75-4.15-.27-.33-.53-.63-.8-.9-.1-.13-.22-.25-.35-.35-.13-.17-.28-.3-.45-.4-.4-.43-.82-.82-1.25-1.15-.53-.43-1.08-.83-1.65-1.2-.6-.4-1.2-.73-1.8-1-2.07-1.03-4.3-1.62-6.7-1.75-.37-.03-.73-.05-1.1-.05h-.85c-5.03.13-9.33,1.98-12.9,5.55-3.67,3.67-5.5,8.12-5.5,13.35,0,.03,0,.07,0,.1,0,.2.02.4.05.6,0,.07,0,.13,0,.2,0,.03,0,.07,0,.1h3.15v-.25c-.03-.2-.05-.42-.05-.65v-.1c0-4.33,1.53-8.05,4.6-11.15,3.07-3.07,6.78-4.6,11.15-4.6Z" fill="#ffda4a"/></g></g></svg>