<?xml version="1.0" encoding="UTF-8"?><svg id="Calque_2" xmlns="http://www.w3.org/2000/svg" viewBox="0 0 33 42"><g id="Calque_1-2"><g id="Layer0_26_FILL"><path d="M26.25,21.1v-.1c0-.77-.03-1.52-.1-2.25-.33-3.3-1.37-6.2-3.1-8.7-.07-.07-.12-.13-.15-.2-.63-.9-1.3-1.65-2-2.25-.33-.33-.68-.62-1.05-.85-1.23-.83-2.57-1.32-4-1.45-.3-.03-.58-.05-.85-.05-3.13,0-5.78,1.53-7.95,4.6-2.2,3.1-3.3,6.82-3.3,11.15v.1c0,.23.02.45.05.65v.25c0,.83.07,1.63.2,2.4.03.3.08.62.15.95.5,2.5,1.47,4.77,2.9,6.8.23.37.5.72.8,1.05.07.1.15.2.25.3.23.27.48.52.75.75,1.8,1.67,3.85,2.5,6.15,2.5,3.1,0,5.73-1.53,7.9-4.6,2.03-2.8,3.15-6.13,3.35-10v-1.05M8.65,19.1c-.07-.13-.1-.28-.1-.45s.03-.3.1-.4c.07-.13.15-.22.25-.25l3.4-1.8,2.25-3.9c.07-.13.15-.22.25-.25.1-.07.22-.07.35,0,.1.03.18.12.25.25l2.25,3.9,3.4,1.8c.13.03.23.12.3.25.03.1.05.23.05.4,0,.17-.02.32-.05.45l-1.4,2.9-.6,1.25-.2,5c0,.17-.03.32-.1.45-.1.13-.18.22-.25.25-.1.07-.22.08-.35.05l-3.5-1.35-3.5,1.35c-.1.03-.2.02-.3-.05-.1-.03-.18-.12-.25-.25-.07-.13-.1-.28-.1-.45l-.15-4.95-.6-1.3-1.4-2.9M26.35,7.35c1.63,2.53,2.72,5.4,3.25,8.6.27,1.6.4,3.28.4,5.05v1.25c-.23,5.27-1.72,9.8-4.45,13.6-2.8,3.93-6.15,5.98-10.05,6.15h2.5c4.13,0,7.65-2.05,10.55-6.15,2.73-3.8,4.22-8.33,4.45-13.6v-1.25c0-2.53-.28-4.9-.85-7.1-.73-2.87-1.93-5.45-3.6-7.75-.1-.13-.18-.27-.25-.4-.77-1.03-1.57-1.92-2.4-2.65-.5-.43-.98-.8-1.45-1.1-1.63-1.13-3.4-1.78-5.3-1.95-.3-.03-.58-.05-.85-.05h-2.5c.11,0,.23.02.35.05,1.9.17,3.67.82,5.3,1.95.47.3.95.67,1.45,1.1.93.83,1.82,1.85,2.65,3.05.27.37.53.77.8,1.2Z" fill="#bf804f"/><path d="M18.45,29c.13.03.25.02.35-.05.07-.03.15-.12.25-.25.07-.13.1-.28.1-.45l.2-5,.6-1.25h-9.9l.6,1.3.15,4.95c0,.17.03.32.1.45.07.13.15.22.25.25.1.07.2.08.3.05l3.5-1.35,3.5,1.35M30,22.05v-.05h-3.75v.15c-.2,3.87-1.32,7.2-3.35,10-2.17,3.07-4.8,4.6-7.9,4.6-2.3,0-4.35-.83-6.15-2.5-.27-.23-.52-.48-.75-.75-.1-.1-.18-.2-.25-.3-.3-.33-.57-.68-.8-1.05-1.43-2.03-2.4-4.3-2.9-6.8-.07-.33-.12-.65-.15-.95-.13-.77-.2-1.57-.2-2.4H.05c0,1.23.08,2.42.25,3.55.13.87.3,1.7.5,2.5.7,2.87,1.88,5.47,3.55,7.8.1.13.2.28.3.45.27.33.53.65.8.95.4.5.85.97,1.35,1.4,2.37,2.23,5.1,3.35,8.2,3.35h.5c3.9-.17,7.25-2.22,10.05-6.15,2.73-3.8,4.22-8.33,4.45-13.6v-.2Z" fill="#e99f64"/><path d="M8.55,18.65c0,.17.03.32.1.45l1.4,2.9h9.9l1.4-2.9c.03-.13.05-.28.05-.45,0-.17-.02-.3-.05-.4-.07-.13-.17-.22-.3-.25l-3.4-1.8-2.25-3.9c-.07-.13-.15-.22-.25-.25-.13-.07-.25-.07-.35,0-.1.03-.18.12-.25.25l-2.25,3.9-3.4,1.8c-.1.03-.18.12-.25.25-.07.1-.1.23-.1.4M29.6,15.95c-.53-3.2-1.62-6.07-3.25-8.6-.27-.43-.53-.83-.8-1.2-.83-1.2-1.72-2.22-2.65-3.05-.5-.43-.98-.8-1.45-1.1-1.63-1.13-3.4-1.78-5.3-1.95-.12-.03-.24-.05-.35-.05h-1.2c-4,.13-7.42,2.18-10.25,6.15C1.45,10.25,0,15.2,0,21v.1c0,.23.02.47.05.7v.2h3.75v-.25c-.03-.2-.05-.42-.05-.65v-.1c0-4.33,1.1-8.05,3.3-11.15,2.17-3.07,4.82-4.6,7.95-4.6.27,0,.55.02.85.05,1.43.13,2.77.62,4,1.45.37.23.72.52,1.05.85.7.6,1.37,1.35,2,2.25.03.07.08.13.15.2,1.73,2.5,2.77,5.4,3.1,8.7.07.73.1,1.48.1,2.25v1h3.75v-1c0-1.77-.13-3.45-.4-5.05Z" fill="#f5b079"/></g></g></svg>