<?xml version="1.0" encoding="UTF-8"?><svg id="Calque_2" xmlns="http://www.w3.org/2000/svg" viewBox="0 0 25 42"><g id="Calque_1-2"><g id="Layer0_23_FILL"><path d="M10.55,5.3c-.2-.03-.38-.05-.55-.05-2.1,0-3.87,1.53-5.3,4.6-1.47,3.1-2.2,6.82-2.2,11.15v1c0,.58.02,1.15.05,1.7.04.23.07.47.1.7.24,2.35.73,4.48,1.45,6.4.2.47.4.92.6,1.35.13.37.3.72.5,1.05.2.37.43.72.7,1.05,1.2,1.67,2.57,2.5,4.1,2.5,2.07,0,3.82-1.53,5.25-4.6,1.37-2.8,2.12-6.13,2.25-10v-1.15c0-.68-.02-1.34-.05-2-.16-2.84-.68-5.39-1.55-7.65-.2-.51-.42-1.01-.65-1.5-.43-.9-.88-1.65-1.35-2.25-.2-.33-.43-.62-.7-.85-.8-.83-1.68-1.32-2.65-1.45M14,18c.1.03.17.12.2.25.03.1.05.23.05.4s-.02.32-.05.45l-.9,2.9-.4,1.25-.15,5c0,.17-.02.32-.05.45-.07.13-.13.22-.2.25-.07.07-.13.08-.2.05l-2.35-1.35-2.35,1.35c-.07.03-.13.02-.2-.05-.07-.03-.12-.12-.15-.25s-.05-.28-.05-.45l-.1-4.95-.45-1.3-.9-2.9c-.03-.13-.05-.28-.05-.45s.02-.3.05-.4c.03-.13.08-.22.15-.25l2.3-1.8,1.5-3.9c.03-.13.08-.22.15-.25.07-.07.15-.07.25,0,.07.03.12.12.15.25l1.5,3.9,2.25,1.8M10.7,0c-.07,0-.13.02-.2.05h.25c1.27.17,2.45.82,3.55,1.95.3.3.62.67.95,1.1.63.83,1.22,1.85,1.75,3.05.47.96.89,1.96,1.25,3,.8,2.37,1.31,4.95,1.55,7.75.13,1.32.2,2.69.2,4.1v1.25c-.17,5.27-1.17,9.8-3,13.6-1.8,3.87-3.97,5.92-6.5,6.15h4.5c2.73,0,5.07-2.05,7-6.15,1.83-3.8,2.83-8.33,3-13.6v-1.25c0-2.88-.25-5.55-.75-8-.49-2.5-1.24-4.79-2.25-6.85-.05-.11-.1-.23-.15-.35-.49-1.04-1.02-1.94-1.6-2.7-.33-.43-.65-.8-.95-1.1-1.1-1.13-2.28-1.78-3.55-1.95-.2-.03-.38-.05-.55-.05h-.5s-.07.02-.1.05c-.13-.03-.25-.05-.35-.05h-.6c-.07,0-.12.02-.15.05-.1-.03-.18-.05-.25-.05h-.6c-.07,0-.12.02-.15.05-.1-.03-.18-.05-.25-.05h-.55c-.07,0-.13.02-.2.05h-.05c-.1-.03-.18-.05-.25-.05h-.5Z" fill="#e5b700"/><path d="M7.1,23.3l.1,4.95c0,.17.02.32.05.45s.08.22.15.25c.07.07.13.08.2.05l2.35-1.35,2.35,1.35c.07.03.13.02.2-.05.07-.03.13-.12.2-.25.03-.13.05-.28.05-.45l.15-5,.4-1.25h-6.65l.45,1.3M0,22c0,1.23.07,2.42.2,3.55.01.11.01.21,0,.3.28,2.57.78,4.93,1.5,7.1.36,1.01.76,1.97,1.2,2.9.23.5.47.97.7,1.4.27.5.57.97.9,1.4,1.6,2.23,3.43,3.35,5.5,3.35h.5c2.53-.23,4.7-2.28,6.5-6.15,1.83-3.8,2.83-8.33,3-13.6v-.25h-2.5v.15c-.13,3.87-.88,7.2-2.25,10-1.43,3.07-3.18,4.6-5.25,4.6-1.53,0-2.9-.83-4.1-2.5-.27-.33-.5-.68-.7-1.05-.2-.33-.37-.68-.5-1.05-.2-.43-.4-.88-.6-1.35-.72-1.92-1.21-4.05-1.45-6.4-.03-.23-.06-.47-.1-.7-.03-.55-.04-1.12-.05-1.7H0Z" fill="#fc0"/><path d="M14.2,18.25c-.03-.13-.1-.22-.2-.25l-2.25-1.8-1.5-3.9c-.03-.13-.08-.22-.15-.25-.1-.07-.18-.07-.25,0-.07.03-.12.12-.15.25l-1.5,3.9-2.3,1.8c-.07.03-.12.12-.15.25-.03.1-.05.23-.05.4s.02.32.05.45l.9,2.9h6.65l.9-2.9c.03-.13.05-.28.05-.45s-.02-.3-.05-.4M0,21v1h2.5v-1c0-4.33.73-8.05,2.2-11.15,1.43-3.07,3.2-4.6,5.3-4.6.17,0,.35.02.55.05.97.13,1.85.62,2.65,1.45.27.23.5.52.7.85.47.6.92,1.35,1.35,2.25.23.49.45.99.65,1.5.87,2.26,1.39,4.81,1.55,7.65.03.66.05,1.32.05,2v1h2.5v-1c0-1.41-.07-2.78-.2-4.1-.24-2.8-.75-5.38-1.55-7.75-.36-1.04-.78-2.04-1.25-3-.53-1.2-1.12-2.22-1.75-3.05-.33-.43-.65-.8-.95-1.1C13.2.87,12.02.22,10.75.05h-.25c-.1-.03-.2-.05-.3-.05h-.5c-2.67.13-4.93,2.18-6.8,6.15C.97,10.25,0,15.2,0,21Z" fill="#ffda4a"/></g></g></svg>