<?xml version="1.0" encoding="UTF-8"?><svg id="Calque_2" xmlns="http://www.w3.org/2000/svg" viewBox="0 0 33 42"><g id="Calque_1-2"><g id="Layer0_22_FILL"><path d="M26.25,22v.15c-.2,3.87-1.32,7.2-3.35,10-2.17,3.07-4.8,4.6-7.9,4.6-2.3,0-4.35-.83-6.15-2.5-.27-.25-.54-.52-.8-.8-.06-.07-.12-.16-.2-.25-.3-.33-.57-.68-.8-1.05-1.43-2.02-2.4-4.31-2.9-6.85-.05-.29-.1-.59-.15-.9-.12-.76-.19-1.56-.2-2.4H.05c0,1.23.08,2.42.25,3.55.12.85.29,1.68.5,2.5.7,2.86,1.89,5.46,3.55,7.8.1.14.2.27.3.4.27.35.54.69.8,1,.4.5.85.97,1.35,1.4,2.37,2.23,5.1,3.35,8.2,3.35h.5c3.9-.17,7.25-2.22,10.05-6.15,2.73-3.8,4.22-8.33,4.45-13.6v-.25h-3.75M19.35,23.25l.6-1.25h-9.95l.65,1.3.15,4.95c0,.17.03.32.1.45.07.13.15.22.25.25.1.07.2.08.3.05l3.5-1.35,3.5,1.35c.13.03.25.02.35-.05.07-.03.15-.12.25-.25.07-.13.1-.28.1-.45l.2-5Z" fill="#fc0"/><path d="M20.9,7.6c-.33-.33-.68-.62-1.05-.85-1.23-.83-2.57-1.32-4-1.45-.3-.03-.58-.05-.85-.05-3.13,0-5.78,1.53-7.95,4.6-2.2,3.1-3.3,6.82-3.3,11.15v.1c0,.23.02.45.05.65v.25c.01.84.08,1.64.2,2.4.05.31.1.61.15.9.5,2.54,1.47,4.83,2.9,6.85.23.37.5.72.8,1.05.08.09.14.18.2.25.26.28.53.55.8.8,1.8,1.67,3.85,2.5,6.15,2.5,3.1,0,5.73-1.53,7.9-4.6,2.03-2.8,3.15-6.13,3.35-10v-1.15c0-.77-.03-1.52-.1-2.25-.32-3.31-1.37-6.23-3.15-8.75-.03-.04-.06-.09-.1-.15-.63-.9-1.3-1.65-2-2.25M8.65,19.1c-.07-.13-.1-.28-.1-.45s.03-.3.1-.4c.07-.13.15-.22.25-.25l3.4-1.8,2.25-3.9c.07-.13.15-.22.25-.25.1-.07.22-.07.35,0,.1.03.18.12.25.25l2.25,3.9,3.4,1.8c.13.03.23.12.3.25.03.1.05.23.05.4,0,.17-.02.32-.05.45l-1.4,2.9-.6,1.25-.2,5c0,.17-.03.32-.1.45-.1.13-.18.22-.25.25-.1.07-.22.08-.35.05l-3.5-1.35-3.5,1.35c-.1.03-.2.02-.3-.05-.1-.03-.18-.12-.25-.25-.07-.13-.1-.28-.1-.45l-.15-4.95-.65-1.3-1.35-2.9M28.55,6.15c-.09-.13-.19-.27-.3-.4-.74-1.03-1.52-1.91-2.35-2.65-.5-.43-.98-.8-1.45-1.1-1.63-1.13-3.4-1.78-5.3-1.95-.3-.03-.58-.05-.85-.05h-2.65c.16,0,.33.02.5.05,1.9.17,3.67.82,5.3,1.95.47.3.95.67,1.45,1.1.93.83,1.82,1.85,2.65,3.05.28.38.54.77.8,1.15,1.62,2.58,2.7,5.46,3.25,8.65.27,1.6.4,3.29.4,5.05v1.25c-.23,5.27-1.72,9.8-4.45,13.6-2.8,3.93-6.15,5.98-10.05,6.15h2.5c4.13,0,7.65-2.05,10.55-6.15,2.73-3.8,4.22-8.33,4.45-13.6v-1.25c0-2.54-.28-4.92-.85-7.15-.73-2.83-1.93-5.39-3.6-7.7Z" fill="#e5b700"/><path d="M8.55,18.65c0,.17.03.32.1.45l1.35,2.9h9.95l1.4-2.9c.03-.13.05-.28.05-.45,0-.17-.02-.3-.05-.4-.07-.13-.17-.22-.3-.25l-3.4-1.8-2.25-3.9c-.07-.13-.15-.22-.25-.25-.13-.07-.25-.07-.35,0-.1.03-.18.12-.25.25l-2.25,3.9-3.4,1.8c-.1.03-.18.12-.25.25-.07.1-.1.23-.1.4M19.85,6.75c.37.23.72.52,1.05.85.7.6,1.37,1.35,2,2.25.04.06.07.11.1.15,1.78,2.52,2.83,5.44,3.15,8.75.07.73.1,1.48.1,2.25v1h3.75v-1c0-1.76-.13-3.45-.4-5.05-.55-3.19-1.63-6.07-3.25-8.65-.26-.38-.52-.77-.8-1.15-.83-1.2-1.72-2.22-2.65-3.05-.5-.43-.98-.8-1.45-1.1-1.63-1.13-3.4-1.78-5.3-1.95-.17-.03-.34-.05-.5-.05h-1.05c-4,.13-7.42,2.18-10.25,6.15C1.45,10.25,0,15.2,0,21v.1c0,.23.02.47.05.7v.2h3.75v-.25c-.03-.2-.05-.42-.05-.65v-.1c0-4.33,1.1-8.05,3.3-11.15,2.17-3.07,4.82-4.6,7.95-4.6.27,0,.55.02.85.05,1.43.13,2.77.62,4,1.45Z" fill="#ffda4a"/></g></g></svg>