<?xml version="1.0" encoding="UTF-8"?><svg id="Calque_2" xmlns="http://www.w3.org/2000/svg" viewBox="0 0 100 50.01"><g id="Calque_1-2"><g id="Layer0_13_FILL"><path d="M1.75,20.55l6.25,17.85,84.4-1.9,4.3-11.85L1.75,20.55Z" fill="#98b6b8"/><path d="M11,44.5c.8.6,1.7.93,2.7,1l70,4.5c1.07.07,2.08-.2,3.05-.8.93-.63,1.58-1.47,1.95-2.5l3.7-10.2-84.4,1.9,1.3,3.75c.3.93.87,1.72,1.7,2.35M.3,16.4l1.45,4.15,94.95,4.1,3-8.2c.13-.37.22-.72.25-1.05.03-.17.05-.34.05-.5v-.05L.3,16.4Z" fill="#89a4a6"/><path d="M0,12.6v2.35c.01.5.11.98.3,1.45l99.7-1.55v-5.65c-.05-.71-.15-1.4-.3-2.05l-.55.05L0,12.6Z" fill="#5f7374"/><path d="M.1,10.5v.45c-.03.1-.05.2-.05.3-.03.27-.04.56-.05.85v.5l99.15-5.4c-1.47-3.47-4.69-5.2-9.65-5.2H10.5C4.17,2,.7,4.83.1,10.5Z" fill="#677c7e"/><path d="M.1,10.95v-.45C.7,4.83,4.17,2,10.5,2h79c4.96,0,8.18,1.73,9.65,5.2l.55-.05c-.97-4.77-4.37-7.15-10.2-7.15H10.5C4.17,0,.7,2.83.1,8.5v.45c-.03.1-.05.2-.05.3-.03.37-.05.75-.05,1.15v1.7c0-.29.02-.58.05-.85,0-.1.02-.2.05-.3Z" fill="#819698"/></g></g></svg>