<?xml version="1.0" encoding="UTF-8"?><svg id="Calque_2" xmlns="http://www.w3.org/2000/svg" viewBox="0 0 190 47"><g id="Calque_1-2"><g id="Layer0_92_FILL"><path d="M28.75,35.55l-4.2-8.95-19.35.75c.17.33.33.68.5,1.05,0,.03.02.08.05.15l3,6.65,20,.35M44,35.8l.55-2.85c.03-.23,0-.45-.1-.65-.13-.23-.3-.38-.5-.45-.2-.1-.42-.12-.65-.05l-13.9,3.75,14.6.25M29.65,33.2c.2.1.42.13.65.1l14.25-3s.07-.05.1-.05l17.65-5.1-35.3,1.35,2.2,6.2c.07.2.22.37.45.5M74,30.75c.17-.17.28-.35.35-.55l1.35-5.6-11.4.45,8.5,5.75c.17.1.37.15.6.15.2,0,.4-.07.6-.2M82.05,36.4l5.8.1,10.15-12.75-19.7.75-2.5,6.2c-.1.2-.12.42-.05.65.03.2.15.37.35.5l5.95,4.55M62.7,27.1c-.13-.07-.27-.12-.4-.15-.17,0-.3.02-.4.05l-13.35,4c-.2.07-.35.17-.45.3-.13.1-.22.25-.25.45l-1,4.1,30.5.5-14.65-9.25M101,27.25c-.27.03-.48.15-.65.35l-7.5,9,22.15.35-13.3-9.5c-.23-.17-.47-.23-.7-.2M141.1,37.35l-5.15-4.85c-.17-.17-.37-.27-.6-.3-.27-.03-.48.03-.65.2l-6.7,4.75,13.1.2M149.1,23.1l2.2-1.4-4.05.15.35.75c.37.8.87.97,1.5.5M144.4,23.1l-.6-1.1-43,1.65c-.07.1-.12.22-.15.35-.03.17,0,.35.1.55.07.13.18.27.35.4l18.4,12.05,3.75.1,20.8-12.05c.73-.47.85-1.12.35-1.95M165.3,23.3c.2.1.43.13.7.1.2-.07.38-.18.55-.35l1.7-2-6.5.25,3.55,2M178.8,35.1h-.05l-21.8-13.6-2.25.1-15.85,8.7c-.2.1-.35.25-.45.45-.1.17-.12.35-.05.55,0,.2.08.38.25.55l5.45,5.55,33.05.55,1.7-2.85M180.7,31.85h.05l6.8-11.55-15.55.6-2.45,3.35c-.13.13-.2.3-.2.5,0,.17.05.35.15.55.07.17.18.3.35.4l10.85,6.15Z" fill="#d29353"/><path d="M29.4,35.55l-.6.15-.05-.15-20-.35.3.75.05.1c.03.07.08.15.15.25,1.13,2.6,2.28,5.18,3.45,7.75.43.93,1.08,1.67,1.95,2.2.83.53,1.77.78,2.8.75l24.6-.9,1.95-10.3-14.6-.25M24.55,26.6l-2.35-5c-.1-.23-.25-.4-.45-.5-.2-.1-.42-.12-.65-.05l-16.45,5,.35.85.2.45,19.35-.75M22.1,17.65l-.3-.75-21.15.3,3,6.65,17.55-4.6c.83-.23,1.13-.77.9-1.6M86.3,38.45l1.55-1.95-5.8-.1,2.85,2.2c.2.17.45.23.75.2.23-.03.45-.15.65-.35M76.95,19.5c.03-.23,0-.45-.1-.65-.1-.23-.25-.4-.45-.5l-4.8-2.25-48.1.75,3.5,9.65,35.3-1.35,1.45-.45.55.35,11.4-.45,1.25-5.1M79,16.25c.07-.07.13-.15.2-.25h-2.1l.05.05.8.35c.17.07.35.08.55.05.17-.03.33-.1.5-.2M122.9,37.25l.35-.15-3.75-.1.3.2c1.03.77,2.07.78,3.1.05M98,23.75l6.55-8.15-22.8.35v.05l-3.45,8.5,19.7-.75M146.2,42.25l-5.1-4.9-13.1-.2-6.4,4.5-6.6-4.7-22.15-.35-5.25,6.2-10.25-6.45-30.5-.5-2.45,10.15,101.8-3.75M143.8,22l-3.95-7-32.7.55-6.25,7.95s-.07.08-.1.15l43-1.65M156.5,18.35l5.25,2.95,6.5-.25,5.65-6.6-29.95.5,3.3,6.9,4.05-.15,5.2-3.35M156.95,21.5l-.55-.35c-.23-.13-.45-.18-.65-.15s-.37.12-.5.25l-.55.35,2.25-.1M176.55,38.8l.55-.85-33.05-.55,4.65,4.75,23.75-.9c.83-.03,1.62-.27,2.35-.7.73-.43,1.32-1.02,1.75-1.75M190,14.9v-.7l-13.3.2-4.7,6.5,15.55-.6,1.75-3c.3-.5.5-1.03.6-1.6.07-.27.1-.53.1-.8Z" fill="#cb8a48"/><path d="M81.75,16v-.05l-2.5.05h2.5M77.15,16.05l-.05-.05-1.4.05h1.45Z" fill="#516566"/><path d="M176.7,14.4l-2.8.05-5.65,6.6-1.7,2c-.17.17-.35.28-.55.35-.27.03-.5,0-.7-.1l-3.55-2-5.25-2.95-5.2,3.35-2.2,1.4c-.63.47-1.13.3-1.5-.5l-.35-.75-3.3-6.9-4.1.05,3.95,7,.6,1.1c.5.83.38,1.48-.35,1.95l-20.8,12.05-.35.15c-1.03.73-2.07.72-3.1-.05l-.3-.2-18.4-12.05c-.17-.13-.28-.27-.35-.4-.1-.2-.13-.38-.1-.55.03-.13.08-.25.15-.35.03-.07.07-.12.1-.15l6.25-7.95-2.6.05-6.55,8.15-10.15,12.75-1.55,1.95c-.2.2-.42.32-.65.35-.3.03-.55-.03-.75-.2l-2.85-2.2-5.95-4.55c-.2-.13-.32-.3-.35-.5-.07-.23-.05-.45.05-.65l2.5-6.2,3.45-8.5h-2.55c-.07.1-.13.18-.2.25-.17.1-.33.17-.5.2-.2.03-.38.02-.55-.05l-.8-.35h-1.45c-1.37,0-2.73.02-4.1.05l4.8,2.25c.2.1.35.27.45.5.1.2.13.42.1.65l-1.25,5.1-1.35,5.6c-.07.2-.18.38-.35.55-.2.13-.4.2-.6.2-.23,0-.43-.05-.6-.15l-8.5-5.75-.55-.35-1.45.45-17.65,5.1s-.07.02-.1.05l-14.25,3c-.23.03-.45,0-.65-.1-.23-.13-.38-.3-.45-.5l-2.2-6.2-3.5-9.65-1.7.05.3.75c.23.83-.07,1.37-.9,1.6L3.65,23.85l-3-6.65-.2-.4,4.55,10.1-.35-.85,16.45-5c.23-.07.45-.05.65.05.2.1.35.27.45.5l2.35,5,4.2,8.95.05.15.6-.15,13.9-3.75c.23-.07.45-.05.65.05.2.07.37.22.5.45.1.2.13.42.1.65l-.55,2.85-1.95,10.3,2.35-.1,2.45-10.15,1-4.1c.03-.2.12-.35.25-.45.1-.13.25-.23.45-.3l13.35-4c.1-.03.23-.05.4-.05.13.03.27.08.4.15l14.65,9.25,10.25,6.45,5.25-6.2,7.5-9c.17-.2.38-.32.65-.35.23-.03.47.03.7.2l13.3,9.5,6.6,4.7,6.4-4.5,6.7-4.75c.17-.17.38-.23.65-.2.23.03.43.13.6.3l5.15,4.85,5.1,4.9,2.5-.1-4.65-4.75-5.45-5.55c-.17-.17-.25-.35-.25-.55-.07-.2-.05-.38.05-.55.1-.2.25-.35.45-.45l15.85-8.7.55-.35c.13-.13.3-.22.5-.25s.42.02.65.15l.55.35,21.8,13.6,1.95-3.25-10.85-6.15c-.17-.1-.28-.23-.35-.4-.1-.2-.15-.38-.15-.55,0-.2.07-.37.2-.5l2.45-3.35,4.7-6.5M184.05,2.65c-1.33-.43-2.85-.65-4.55-.65H10.5c-1.73,0-3.25.22-4.55.65-2.17.7-3.73,1.97-4.7,3.8C.48,7.92.07,9.73,0,11.9v2.9l22.45-.85c12.87-.5,25.73-1,38.6-1.5l128.25-4.9c-.53-1.4-1.32-2.52-2.35-3.35-.57-.5-1.22-.9-1.95-1.2-.3-.13-.62-.25-.95-.35Z" fill="#ad7741"/><path d="M189.9,8.45c-.03-.33-.07-.65-.1-.95l-.5.05L61.05,12.45c-12.87.5-25.73,1-38.6,1.5L0,14.8v.1c.03.63.18,1.27.45,1.9l.2.4,21.15-.3,1.7-.05,48.1-.75c1.37-.03,2.73-.05,4.1-.05l1.4-.05h2.15l2.5-.05,22.8-.35,2.6-.05,32.7-.55,4.1-.05,29.95-.5,2.8-.05,13.3-.2v-4.7c-.03-.37-.07-.72-.1-1.05Z" fill="#a36f3a"/><path d="M179.5,2c1.7,0,3.22.22,4.55.65.33.1.65.22.95.35.73.3,1.38.7,1.95,1.2,1.03.83,1.82,1.95,2.35,3.35l.5-.05c-.4-2.3-1.35-4.07-2.85-5.3-.27-.27-.57-.48-.9-.65-.23-.17-.48-.3-.75-.4-1.57-.77-3.5-1.15-5.8-1.15H10.5c-1.73,0-3.25.22-4.55.65-2.17.7-3.73,1.97-4.7,3.8-.83,1.57-1.25,3.55-1.25,5.95v1.5c.07-2.17.48-3.98,1.25-5.45.97-1.83,2.53-3.1,4.7-3.8,1.3-.43,2.82-.65,4.55-.65h169Z" fill="#c28649"/></g></g></svg>