<?xml version="1.0" encoding="UTF-8"?><svg id="Calque_2" xmlns="http://www.w3.org/2000/svg" viewBox="0 0 100 50.01"><g id="Calque_1-2"><g id="Layer0_91_FILL"><path d="M2,21.15l1.75-.45-2-.1.2.55h.05M10.2,21.6c-.1-.23-.25-.4-.45-.5-.2-.1-.42-.12-.65-.05l-6.45,1.95-.05.05,5.4,15.4,23.6-.5.95-5c.03-.23,0-.45-.1-.65-.13-.23-.3-.38-.5-.45-.2-.1-.42-.12-.65-.05l-14.5,3.9-6.6-14.1M63.75,31.35c.03.2.15.37.35.5l6.75,5.2,4.65-.1,10.2-12.75-18.95-.8-2.95,7.3c-.1.2-.12.42-.05.65M62,30.75c.17-.17.28-.35.35-.55l1.7-6.95-51-2.15,4.15,11.6c.07.2.22.37.45.5.2.1.42.13.65.1l14.25-3s.07-.05.1-.05l19.1-5.55,9.05,6.1c.17.1.37.15.6.15.2,0,.4-.07.6-.2M50.7,27.1c-.13-.07-.27-.12-.4-.15-.17,0-.3.02-.4.05l-13.35,4c-.2.07-.35.17-.45.3-.13.1-.22.25-.25.45l-1.5,6.1,32.3-.7-15.95-10.05M95.2,28.95l1.55-4.3-8.1-.35c.03.07.07.15.1.25.07.13.18.27.35.4l6.1,4M92.4,36.55l2.1-5.7-4.8-3.4c-.23-.17-.47-.23-.7-.2-.27.03-.48.15-.65.35l-7.7,9.25,11.75-.3Z" fill="#d29353"/><path d="M11,44.5c.8.6,1.7.93,2.7,1l16.25,1.05,1.65-8.6-23.6.5,1.3,3.7c.3.93.87,1.72,1.7,2.35M9.5,16.3v-.05l-2.3.05c-.3,0-.58,0-.85,0-2.03.03-4.05.07-6.05.1l1.45,4.2,2,.1,5.45-1.45c.83-.23,1.13-.77.9-1.6l-.6-1.35M83.7,50c1.07.07,2.08-.2,3.05-.8.93-.63,1.58-1.47,1.95-2.5l3.7-10.15-11.75.3-5.05,5.95-8.95-5.65-32.3.7-2.15,8.85,51.5,3.3M74.3,38.45l1.2-1.5-4.65.1,2.05,1.55c.2.17.45.23.75.2.23-.03.45-.15.65-.35M64.05,23.25l.9-3.75c.03-.23,0-.45-.1-.65-.1-.23-.25-.4-.45-.5l-6.1-2.85-47,.75,1.75,4.85,51,2.15M65.95,16.4c.17.07.35.08.55.05.17-.03.33-.1.5-.2.13-.13.23-.28.3-.45l.2-.45-3.75.05.15.1,2.05.9M100,14.85l-4.35.1-.1.1-6.65,8.45c-.13.13-.22.3-.25.5-.03.1-.03.2,0,.3l8.1.35,2.95-8.2c.13-.37.22-.72.25-1.05.03-.17.05-.32.05-.45v-.1M92.95,15.05l.1-.1-23.05.35v.1l-3.25,8,18.95.8,7.25-9.15Z" fill="#cb8a48"/><path d="M9.5,16.25v.05l1.8-.05h-1.8Z" fill="#516566"/><path d="M93.05,14.95l-.1.1-7.25,9.15-10.2,12.75-1.2,1.5c-.2.2-.42.32-.65.35-.3.03-.55-.03-.75-.2l-2.05-1.55-6.75-5.2c-.2-.13-.32-.3-.35-.5-.07-.23-.05-.45.05-.65l2.95-7.3,3.25-8v-.1l-2.5.05-.2.45c-.07.17-.17.32-.3.45-.17.1-.33.17-.5.2-.2.03-.38.02-.55-.05l-2.05-.9-.15-.1-5.45.1,6.1,2.85c.2.1.35.27.45.5.1.2.13.42.1.65l-.9,3.75-1.7,6.95c-.07.2-.18.38-.35.55-.2.13-.4.2-.6.2-.23,0-.43-.05-.6-.15l-9.05-6.1-19.1,5.55s-.07.02-.1.05l-14.25,3c-.23.03-.45,0-.65-.1-.23-.13-.38-.3-.45-.5l-4.15-11.6-1.75-4.85-1.8.05.6,1.35c.23.83-.07,1.37-.9,1.6l-5.45,1.45-1.75.45.65,1.85,6.45-1.95c.23-.07.45-.05.65.05.2.1.35.27.45.5l6.6,14.1,14.5-3.9c.23-.07.45-.05.65.05.2.07.37.22.5.45.1.2.13.42.1.65l-.95,5-1.65,8.6,2.25.15,2.15-8.85,1.5-6.1c.03-.2.12-.35.25-.45.1-.13.25-.23.45-.3l13.35-4c.1-.03.23-.05.4-.05.13.03.27.08.4.15l15.95,10.05,8.95,5.65,5.05-5.95,7.7-9.25c.17-.2.38-.32.65-.35.23-.03.47.03.7.2l4.8,3.4.7-1.9-6.1-4c-.17-.13-.28-.27-.35-.4-.03-.1-.07-.18-.1-.25-.03-.1-.03-.2,0-.3.03-.2.12-.37.25-.5l6.65-8.45.1-.1h-2.6M89.5,2H10.5c-1.57,0-2.95.18-4.15.55-.87.23-1.63.55-2.3.95C1.75,4.87.43,7.2.1,10.5v.45c-.03.1-.05.2-.05.3-.03.2-.05.4-.05.6v.75l99.15-5.4c-1.47-3.47-4.68-5.2-9.65-5.2Z" fill="#ad7741"/><path d="M99.75,7.2h-.6L0,12.6v2.35c0,.5.1.98.3,1.45,2-.03,4.02-.07,6.05-.1.27,0,.55,0,.85,0l2.3-.05h1.8l47-.75,5.45-.1,3.75-.05,2.5-.05,23.05-.35h2.6l4.35-.1v-5.65c-.03-.7-.12-1.37-.25-2Z" fill="#a36f3a"/><path d="M5.7.75c-.87.3-1.63.7-2.3,1.2C1.5,3.35.4,5.53.1,8.5v.45c-.03.1-.05.2-.05.3-.03.37-.05.75-.05,1.15v1.45c0-.2.02-.4.05-.6,0-.1.02-.2.05-.3v-.45c.33-3.3,1.65-5.63,3.95-7,.67-.4,1.43-.72,2.3-.95,1.2-.37,2.58-.55,4.15-.55h79c4.97,0,8.18,1.73,9.65,5.2h.6c-.03-.17-.07-.33-.1-.5-1.17-4.47-4.55-6.7-10.15-6.7H10.5c-1.83,0-3.43.25-4.8.75Z" fill="#c28649"/></g></g></svg>