<?xml version="1.0" encoding="UTF-8"?><svg id="Calque_2" xmlns="http://www.w3.org/2000/svg" viewBox="0 0 100 50.01"><g id="Calque_1-2"><g id="Layer0_89_FILL"><path d="M92.4,36.55l4.35-11.9L1.75,20.6l6.25,17.85,84.4-1.9Z" fill="#d29353"/><path d="M88.7,46.7l3.7-10.15-84.4,1.9,1.3,3.7c.3.93.87,1.72,1.7,2.35.8.6,1.7.93,2.7,1l70,4.5c1.07.07,2.08-.2,3.05-.8.93-.63,1.58-1.47,1.95-2.5M100,14.95v-.1L.3,16.4l1.45,4.2,95,4.05,2.95-8.2c.13-.37.22-.72.25-1.05.03-.17.05-.32.05-.45Z" fill="#cb8a48"/><path d="M99.75,7.2h-.6L0,12.6v2.35c0,.5.1.98.3,1.45l99.7-1.55v-5.65c-.03-.7-.12-1.37-.25-2Z" fill="#a36f3a"/><path d="M89.5,2H10.5C4.17,2,.7,4.83.1,10.5v.45c-.03.1-.05.2-.05.3-.03.22-.04.43-.05.65v.7l99.15-5.4c-1.47-3.47-4.68-5.2-9.65-5.2Z" fill="#ad7741"/><path d="M10.5,2h79c4.97,0,8.18,1.73,9.65,5.2h.6c-1-4.8-4.42-7.2-10.25-7.2H10.5C4.17,0,.7,2.83.1,8.5v.45c-.03.1-.05.2-.05.3-.03.37-.05.75-.05,1.15v1.5c0-.22.02-.43.05-.65,0-.1.02-.2.05-.3v-.45C.7,4.83,4.17,2,10.5,2Z" fill="#c28649"/></g></g></svg>