<?xml version="1.0" encoding="UTF-8"?><svg id="Calque_2" xmlns="http://www.w3.org/2000/svg" viewBox="0 0 190 47"><g id="Calque_1-2"><g id="Layer0_90_FILL"><path d="M5.2,27.35l3.55,7.85,168.35,2.75,10.45-17.65L5.2,27.35Z" fill="#d29353"/><path d="M12.7,44.05c.43.93,1.08,1.67,1.95,2.2.83.53,1.77.78,2.8.75l155-5.75c.83-.03,1.62-.27,2.35-.7.73-.43,1.32-1.02,1.75-1.75l.55-.85-168.35-2.75,3.95,8.85M.65,17.2l4.55,10.15,182.35-7.05,1.75-3c.3-.5.5-1.03.6-1.6.07-.27.1-.53.1-.8v-.7L.65,17.2Z" fill="#cb8a48"/><path d="M1.25,6.45C.48,7.92.07,9.73,0,11.9v2.9l189.3-7.25c-1.4-3.7-4.67-5.55-9.8-5.55H10.5C5.9,2,2.82,3.48,1.25,6.45Z" fill="#ad7741"/><path d="M.45,16.8l.2.4,189.35-3v-4.7c-.03-.37-.07-.72-.1-1.05-.03-.33-.07-.65-.1-.95l-.5.05L0,14.8v.1c.03.63.18,1.27.45,1.9Z" fill="#a36f3a"/><path d="M0,10.4v1.5c.07-2.17.48-3.98,1.25-5.45C2.82,3.48,5.9,2,10.5,2h169c5.13,0,8.4,1.85,9.8,5.55l.5-.05c-.9-5-4.33-7.5-10.3-7.5H10.5C5.9,0,2.82,1.48,1.25,4.45c-.83,1.57-1.25,3.55-1.25,5.95Z" fill="#c28649"/></g></g></svg>