<?xml version="1.0" encoding="UTF-8"?><svg id="Calque_2" xmlns="http://www.w3.org/2000/svg" viewBox="0 0 190 47"><g id="Calque_1-2"><g id="Layer0_12_FILL"><path d="M177.05,37.9l10.5-17.65L5.15,27.3l3.55,7.9,168.35,2.7Z" fill="#98b6b8"/><path d="M176.55,38.8l.5-.9-168.35-2.7,4,8.85c.43.93,1.08,1.67,1.95,2.2.83.53,1.77.78,2.8.75l155-5.75c.83-.03,1.62-.27,2.35-.7.73-.43,1.32-1.02,1.75-1.75M190,14.9v-.7L.6,17.2l4.55,10.1,182.4-7.05,1.75-2.95c.3-.5.5-1.03.6-1.6.07-.27.1-.53.1-.8Z" fill="#89a4a6"/><path d="M189.25,7.5c-1.38-3.67-4.63-5.5-9.75-5.5H10.5C5.9,2,2.82,3.48,1.25,6.45.48,7.91.06,9.72,0,11.9v2.85l189.25-7.25Z" fill="#677c7e"/><path d="M189.25,7.5h.5c-.87-5-4.28-7.5-10.25-7.5H10.5C5.9,0,2.82,1.48,1.25,4.45c-.83,1.57-1.25,3.55-1.25,5.95v1.5c.06-2.18.48-3.99,1.25-5.45C2.82,3.48,5.9,2,10.5,2h169c5.12,0,8.37,1.83,9.75,5.5Z" fill="#819698"/><path d="M189.9,8.45c-.03-.33-.08-.64-.15-.95h-.5L0,14.75v.15c.03.63.18,1.27.45,1.9l.15.4,189.4-3v-3.8c0-.31-.02-.61-.05-.9,0-.37-.01-.72-.05-1.05Z" fill="#5f7374"/></g></g></svg>