<?xml version="1.0" encoding="UTF-8"?><svg id="Calque_2" xmlns="http://www.w3.org/2000/svg" viewBox="0 0 100 50.01"><g id="Calque_1-2"><g id="Layer0_55_FILL"><path d="M95.55,15l.05-.1-2.6.05-.05.1,2.6-.05M11.25,16.2l-1.75.05h1.75v-.05M67.45,15.35v.05h2.5l.05-.1-2.55.05M58.25,15.5l.15.05,5.45-.1-.15-.05-5.45.1Z" fill="#516566"/><path d="M70.85,37l4.65-.1,10.15-12.75-18.9-.8-2.95,7.35c-.1.2-.12.42-.05.65.03.2.15.37.35.5l6.75,5.15M88.65,24.3c.02.08.06.17.1.25.07.13.18.27.35.4l6.05,3.95,1.6-4.25-8.1-.35M89.7,27.45c-.23-.17-.47-.23-.7-.2-.27.03-.48.15-.65.35l-7.75,9.2,11.8-.25,2.05-5.7-4.75-3.4M32.55,30.3s.07-.05.1-.05l19.1-5.55,9.05,6.1c.17.1.37.15.6.15.2,0,.4-.07.6-.2.17-.17.28-.35.35-.55l1.7-6.95-51.05-2.2,4.2,11.65c.07.2.22.37.45.5.2.1.42.13.65.1l14.25-3M36.1,31.3c-.13.1-.22.25-.25.45l-1.5,6.1,32.25-.75-15.9-10c-.13-.07-.27-.12-.4-.15-.17,0-.3.02-.4.05l-13.35,4c-.2.07-.35.17-.45.3M1.75,20.6l.2.55h.05l1.7-.5-1.95-.05M2.65,23h-.05l5.4,15.45,23.6-.55.95-4.95c.03-.23,0-.45-.1-.65-.13-.23-.3-.38-.5-.45-.2-.1-.42-.12-.65-.05l-14.5,3.9-6.6-14.1c-.1-.23-.25-.4-.45-.5-.2-.1-.42-.12-.65-.05l-6.45,1.95Z" fill="#98b6b8"/><path d="M73.65,38.8c.23-.03.45-.15.65-.35l1.2-1.55-4.65.1,2.05,1.6c.2.17.45.23.75.2M88.65,24c-.02.1-.02.2,0,.3l8.1.35,2.95-8.2c.13-.37.22-.72.25-1.05.03-.17.05-.32.05-.45v-.1l-4.4.05-.05.1-6.65,8.5c-.13.13-.22.3-.25.5M34.35,37.85l-2.15,8.85,51.5,3.3c1.07.07,2.08-.2,3.05-.8.93-.63,1.58-1.47,1.95-2.5l3.7-10.15-11.8.25-5,6-9-5.7-32.25.75M29.9,46.55l1.7-8.65-23.6.55,1.3,3.7c.3.93.87,1.72,1.7,2.35.8.6,1.7.93,2.7,1l16.2,1.05M70,15.3l-.05.1-3.2,7.95,18.9.8,7.3-9.1.05-.1-23,.35M67.45,15.4v-.05l-3.75.05.15.05,2.1.95c.17.07.35.08.55.05.17-.03.33-.1.5-.2.13-.13.23-.28.3-.45l.15-.4M58.4,15.55l-.15-.05-47,.7v.05l1.75,4.8,51.05,2.2.9-3.75c.03-.23,0-.45-.1-.65-.1-.23-.25-.4-.45-.5l-6-2.8M7.2,16.3c-.29,0-.57,0-.85,0-2.02.04-4.04.07-6.05.1l1.45,4.2,1.95.05,5.5-1.4c.83-.23,1.13-.77.9-1.6l-.6-1.4h0l-2.3.05Z" fill="#89a4a6"/><path d="M3.7,20.65l-1.7.5.65,1.85,6.45-1.95c.23-.07.45-.05.65.05.2.1.35.27.45.5l6.6,14.1,14.5-3.9c.23-.07.45-.05.65.05.2.07.37.22.5.45.1.2.13.42.1.65l-.95,4.95-1.7,8.65,2.3.15,2.15-8.85,1.5-6.1c.03-.2.12-.35.25-.45.1-.13.25-.23.45-.3l13.35-4c.1-.03.23-.05.4-.05.13.03.27.08.4.15l15.9,10,9,5.7,5-6,7.75-9.2c.17-.2.38-.32.65-.35.23-.03.47.03.7.2l4.75,3.4.7-1.95-6.05-3.95c-.17-.13-.28-.27-.35-.4-.04-.08-.08-.17-.1-.25-.02-.1-.02-.2,0-.3.03-.2.12-.37.25-.5l6.65-8.5-2.6.05-7.3,9.1-10.15,12.75-1.2,1.55c-.2.2-.42.32-.65.35-.3.03-.55-.03-.75-.2l-2.05-1.6-6.75-5.15c-.2-.13-.32-.3-.35-.5-.07-.23-.05-.45.05-.65l2.95-7.35,3.2-7.95h-2.5l-.15.4c-.07.17-.17.32-.3.45-.17.1-.33.17-.5.2-.2.03-.38.02-.55-.05l-2.1-.95-5.45.1,6,2.8c.2.1.35.27.45.5.1.2.13.42.1.65l-.9,3.75-1.7,6.95c-.07.2-.18.38-.35.55-.2.13-.4.2-.6.2-.23,0-.43-.05-.6-.15l-9.05-6.1-19.1,5.55s-.07.02-.1.05l-14.25,3c-.23.03-.45,0-.65-.1-.23-.13-.38-.3-.45-.5l-4.2-11.65-1.75-4.8h-1.75l.6,1.4c.23.83-.07,1.37-.9,1.6l-5.5,1.4Z" fill="#6c8183"/><path d="M6.35,16.3c.28,0,.56,0,.85,0l2.3-.05,1.75-.05,47-.7,5.45-.1,3.75-.05,2.55-.05,23-.35,2.6-.05,4.4-.05v-5.65c-.03-.7-.12-1.37-.25-2h-.6L0,12.6v2.35c0,.5.1.98.3,1.45,2.01-.03,4.03-.06,6.05-.1Z" fill="#5f7374"/><path d="M.1,10.5v.45c-.03.1-.05.2-.05.3-.03.22-.04.43-.05.65v.7l99.15-5.4c-1.47-3.47-4.68-5.2-9.65-5.2H10.5c-1.56,0-2.94.17-4.15.5-.85.26-1.62.59-2.3,1C1.76,4.88.45,7.21.1,10.5Z" fill="#677c7e"/><path d="M.1,10.95v-.45c.35-3.29,1.66-5.62,3.95-7,.68-.41,1.45-.74,2.3-1,1.21-.33,2.59-.5,4.15-.5h79c4.97,0,8.18,1.73,9.65,5.2h.6c-.04-.18-.09-.36-.15-.55-1.12-4.43-4.49-6.65-10.1-6.65H10.5c-1.84,0-3.44.23-4.8.7-.88.33-1.66.74-2.35,1.25C1.5,3.36.41,5.55.1,8.5v.45c-.03.1-.05.2-.05.3-.03.37-.05.75-.05,1.15v1.5c0-.22.02-.43.05-.65,0-.1.02-.2.05-.3Z" fill="#819698"/></g></g></svg>