<?xml version="1.0" encoding="UTF-8"?><svg id="Calque_2" xmlns="http://www.w3.org/2000/svg" viewBox="0 0 190 47"><g id="Calque_1-2"><g id="Layer0_50_FILL"><path d="M100.35,27.6l-7.55,8.95,22.15.35-13.25-9.45c-.23-.17-.47-.23-.7-.2-.27.03-.48.15-.65.35M75.75,31.35c.03.2.15.37.35.5l5.9,4.55,5.85.1,10.15-12.75-19.7.75-2.5,6.2c-.1.2-.12.42-.05.65M72.8,30.8c.17.1.37.15.6.15.2,0,.4-.07.6-.2.17-.17.28-.35.35-.55l1.35-5.6-11.45.45,8.55,5.75M44,35.75l.55-2.8c.03-.23,0-.45-.1-.65-.13-.23-.3-.38-.5-.45-.2-.1-.42-.12-.65-.05l-13.9,3.7,14.6.25M47.85,31.75l-1,4.05,30.45.5-14.6-9.2c-.13-.07-.27-.12-.4-.15-.17,0-.3.02-.4.05l-13.35,4c-.2.07-.35.17-.45.3-.13.1-.22.25-.25.45M44.55,30.3s.07-.05.1-.05l17.6-5.15-35.3,1.4,2.25,6.2c.07.2.22.37.45.5.2.1.42.13.65.1l14.25-3M5.75,28.5l2.65,6,.35.7,19.95.3-4.15-8.9-19.35.75c.16.34.31.68.45,1,.04.07.07.12.1.15M135.95,32.5c-.17-.17-.37-.27-.6-.3-.27-.03-.48.03-.65.2l-6.7,4.75,13.05.2-5.1-4.85M169.5,25.3c.07.17.18.3.35.4l10.8,6.1.05.05,6.85-11.55-15.6.6-2.4,3.35c-.13.13-.2.3-.2.5,0,.17.05.35.15.55M166.55,23.05l1.7-2-6.5.25,3.55,2c.2.1.43.13.7.1.2-.07.38-.18.55-.35M156.9,21.45l-2.25.1-15.8,8.75c-.2.1-.35.25-.45.45-.1.17-.12.35-.05.55,0,.2.08.38.25.55l5.45,5.55,33.05.55,1.7-2.85-.05-.05-21.85-13.6M144.4,23.1l-.65-1.15-43,1.7c-.04.1-.08.22-.1.35-.03.17,0,.35.1.55.07.13.18.27.35.4l18.4,12.05,3.7.05,20.85-12c.73-.47.85-1.12.35-1.95M151.25,21.7l-4,.15.35.75c.37.8.87.97,1.5.5l2.15-1.4Z" fill="#98b6b8"/><path d="M122.9,37.25l.3-.2-3.7-.05.3.2c1.03.77,2.07.78,3.1.05M86.3,38.45l1.55-1.95-5.85-.1,2.9,2.2c.2.17.45.23.75.2.23-.03.45-.15.65-.35M81.75,15.9l-.05.05-3.4,8.55,19.7-.75,6.55-8.2-22.8.35M79.2,16v-.05l-2.15.05h.05l.85.4c.17.07.35.08.55.05.17-.03.33-.1.5-.2.07-.07.14-.16.2-.25M23.5,16.85l3.45,9.65,35.3-1.4,1.5-.4.5.35,11.45-.45,1.25-5.1c.03-.23,0-.45-.1-.65-.1-.23-.25-.4-.45-.5l-4.85-2.3-48.05.8M9.1,36c.04.11.08.21.1.3,1.18,2.59,2.34,5.17,3.5,7.75.43.93,1.08,1.67,1.95,2.2.83.53,1.77.78,2.8.75l24.55-.95,2-10.3-14.6-.25-.6.2-.1-.2-19.95-.3.3.7.05.1M22.2,21.6c-.1-.23-.25-.4-.45-.5-.2-.1-.42-.12-.65-.05l-16.45,5h-.05l.35.8.25.5,19.35-.75-2.35-5M22.1,17.65l-.35-.8-21.1.35,2.95,6.6h.05l17.55-4.55c.83-.23,1.13-.77.9-1.6M146.2,42.2l-5.15-4.85-13.05-.2-6.4,4.5-6.65-4.75-22.15-.35-5.2,6.25-10.3-6.5-30.45-.5-2.5,10.2,101.85-3.8M144.05,37.4l4.65,4.7,23.75-.85c.83-.03,1.62-.27,2.35-.7.73-.43,1.32-1.02,1.75-1.75l.55-.85-33.05-.55M156.9,21.45l-.5-.3c-.23-.13-.45-.18-.65-.15s-.37.12-.5.25l-.6.3,2.25-.1M143.75,21.95l-3.95-6.95-32.7.5-6.2,8s-.09.09-.15.15l43-1.7M147.25,21.85l4-.15,5.25-3.35,5.25,2.95,6.5-.25,5.65-6.6-29.95.45,3.3,6.95M190,14.9v-.7l-13.3.2-4.75,6.5,15.6-.6,1.75-3c.3-.5.5-1.03.6-1.6.07-.27.1-.53.1-.8Z" fill="#89a4a6"/><path d="M77.1,16h-1.4,1.4M79.2,15.95v.05l2.5-.05.05-.05-2.55.05Z" fill="#516566"/><path d="M8.75,35.2l-.35-.7.65,1.4-.3-.7Z" fill="#9f0"/><path d="M176.7,14.4l-2.8.05-5.65,6.6-1.7,2c-.17.17-.35.28-.55.35-.27.03-.5,0-.7-.1l-3.55-2-5.25-2.95-5.25,3.35-2.15,1.4c-.63.47-1.13.3-1.5-.5l-.35-.75-3.3-6.95-4.15.1,3.95,6.95.65,1.15c.5.83.38,1.48-.35,1.95l-20.85,12-.3.2c-1.03.73-2.07.72-3.1-.05l-.3-.2-18.4-12.05c-.17-.13-.28-.27-.35-.4-.1-.2-.13-.38-.1-.55.02-.13.06-.25.1-.35.06-.06.11-.11.15-.15l6.2-8-2.55.05-6.55,8.2-10.15,12.75-1.55,1.95c-.2.2-.42.32-.65.35-.3.03-.55-.03-.75-.2l-2.9-2.2-5.9-4.55c-.2-.13-.32-.3-.35-.5-.07-.23-.05-.45.05-.65l2.5-6.2,3.4-8.55-2.5.05c-.06.09-.13.18-.2.25-.17.1-.33.17-.5.2-.2.03-.38.02-.55-.05l-.85-.4h-1.4c-1.38.03-2.76.05-4.15.05l4.85,2.3c.2.1.35.27.45.5.1.2.13.42.1.65l-1.25,5.1-1.35,5.6c-.07.2-.18.38-.35.55-.2.13-.4.2-.6.2-.23,0-.43-.05-.6-.15l-8.55-5.75-.5-.35-1.5.4-17.6,5.15s-.07.02-.1.05l-14.25,3c-.23.03-.45,0-.65-.1-.23-.13-.38-.3-.45-.5l-2.25-6.2-3.45-9.65h-1.75l.35.8c.23.83-.07,1.37-.9,1.6L3.65,23.8h-.05l-2.95-6.6-.2-.4,4.5,10.05-.35-.8h.05l16.45-5c.23-.07.45-.05.65.05.2.1.35.27.45.5l2.35,5,4.15,8.9.1.2.6-.2,13.9-3.7c.23-.07.45-.05.65.05.2.07.37.22.5.45.1.2.13.42.1.65l-.55,2.8-2,10.3,2.35-.05,2.5-10.2,1-4.05c.03-.2.12-.35.25-.45.1-.13.25-.23.45-.3l13.35-4c.1-.03.23-.05.4-.05.13.03.27.08.4.15l14.6,9.2,10.3,6.5,5.2-6.25,7.55-8.95c.17-.2.38-.32.65-.35.23-.03.47.03.7.2l13.25,9.45,6.65,4.75,6.4-4.5,6.7-4.75c.17-.17.38-.23.65-.2.23.03.43.13.6.3l5.1,4.85,5.15,4.85,2.5-.1-4.65-4.7-5.45-5.55c-.17-.17-.25-.35-.25-.55-.07-.2-.05-.38.05-.55.1-.2.25-.35.45-.45l15.8-8.75.6-.3c.13-.13.3-.22.5-.25s.42.02.65.15l.5.3,21.85,13.6,1.9-3.25-10.8-6.1c-.17-.1-.28-.23-.35-.4-.1-.2-.15-.38-.15-.55,0-.2.07-.37.2-.5l2.4-3.35,4.75-6.5Z" fill="#6c8183"/><path d="M189.8,7.5l-.5.05L61,12.45c-12.84.5-25.69,1-38.55,1.5L0,14.8v.1c.03.63.18,1.27.45,1.9l.2.4,21.1-.35h1.75l48.05-.8c1.39,0,2.78-.02,4.15-.05h1.35l2.15-.05,2.55-.05,22.8-.35,2.55-.05,32.7-.5,4.15-.1,29.95-.45,2.8-.05,13.3-.2v-4.7c-.03-.37-.07-.72-.1-1.05s-.07-.65-.1-.95Z" fill="#5f7374"/><path d="M185,2.95c-.31-.11-.65-.23-1-.35-1.28-.4-2.78-.6-4.5-.6H10.5c-1.73,0-3.25.2-4.55.6-2.16.72-3.72,2-4.7,3.85C.48,7.92.07,9.73,0,11.9v2.9l22.45-.85c12.86-.5,25.71-1,38.55-1.5l128.3-4.9c-.52-1.38-1.31-2.52-2.35-3.4-.57-.46-1.22-.86-1.95-1.2Z" fill="#677c7e"/><path d="M184,2.6c.35.12.69.24,1,.35.73.34,1.38.74,1.95,1.2,1.04.88,1.83,2.02,2.35,3.4l.5-.05c-.41-2.3-1.36-4.08-2.85-5.35-.28-.22-.58-.43-.9-.65-.24-.13-.49-.26-.75-.4-1.55-.73-3.48-1.1-5.8-1.1H10.5c-1.73,0-3.25.2-4.55.6-2.16.72-3.72,2-4.7,3.85-.83,1.57-1.25,3.55-1.25,5.95v1.5c.07-2.17.48-3.98,1.25-5.45.98-1.85,2.54-3.13,4.7-3.85,1.3-.4,2.82-.6,4.55-.6h169c1.72,0,3.22.2,4.5.6Z" fill="#819698"/></g></g></svg>