<?xml version="1.0" encoding="UTF-8"?><svg id="Calque_2" xmlns="http://www.w3.org/2000/svg" viewBox="0 0 70 69.45"><g id="Calque_1-2"><path d="M4.05,1.2c1.23-.67,2.77-1.07,4.6-1.2h51.7c2.93,0,5.2.67,6.8,2l.75.7c1.33,1.53,2.03,3.7,2.1,6.5v1.95c-.17-5.97-3.23-9.02-9.2-9.15H9.25c-4.6.1-7.48,1.92-8.65,5.45-.37,1.07-.57,2.3-.6,3.7v-2c0-.6.05-1.17.15-1.7l.1-.45.05-.45.05-.1c.2-.93.5-1.77.9-2.5l.75-1.05.9-.9,1.15-.8" fill="#93a3a3"/><path d="M0,11.15c.03-1.4.23-2.63.6-3.7C1.77,3.92,4.65,2.1,9.25,2h51.55c5.97.13,9.03,3.18,9.2,9.15v8.2c-.1,3.1-1.77,4.65-5,4.65h-25c-1.23,0-2.23-.22-3-.65-1.3-.77-1.97-2.17-2-4.2-.07,3.23-1.73,4.85-5,4.85H5c-3.23,0-4.9-1.55-5-4.65v-8.2" fill="#869595"/><path d="M70,19.35v4.95c-.1,3.13-1.77,4.7-5,4.7h-25c-3.27,0-4.93-1.62-5-4.85-.07,3.23-1.73,4.85-5,4.85H5c-3.23,0-4.9-1.57-5-4.7v-4.95c.1,3.1,1.77,4.65,5,4.65h25c3.27,0,4.93-1.62,5-4.85.03,2.03.7,3.43,2,4.2.77.43,1.77.65,3,.65h25c3.23,0,4.9-1.55,5-4.65M9.15,46.95l-1.1-1.4-1.05-1.4v-4.1c0-2.03,1.02-3.05,3.05-3.05h3.85c2.07,0,3.1,1.02,3.1,3.05v3.85c0,2.07-1.03,3.1-3.1,3.1h-3.85l-.9-.05M46,53.1v-7.2c0-2.6,1.3-3.9,3.9-3.9h7.15c2.63,0,3.95,1.3,3.95,3.9v7.2c0,2.6-1.32,3.9-3.95,3.9h-7.15c-2.6,0-3.9-1.3-3.9-3.9" fill="#a1b1b1"/><path d="M34.15,62.95c-1.03-.03-1.8-.32-2.3-.85-.57-.57-.85-1.42-.85-2.55v-6.2c0-2.27,1.13-3.4,3.4-3.4h6.25c2.23,0,3.35,1.13,3.35,3.4v6.2c0,2.27-1.12,3.4-3.35,3.4h-6.5M22,29v1.95c0,2.7-1.37,4.05-4.1,4.05h-5.85c-2.7,0-4.05-1.35-4.05-4.05v-1.95h14" fill="#bbcbcc"/><path d="M22,29h8c3.27,0,4.93-1.62,5-4.85.07,3.23,1.73,4.85,5,4.85h25c3.23,0,4.9-1.57,5-4.7v37.2l-.1,1c-.23,1.7-.77,3.13-1.6,4.3l-1.25,1.3c-.73.6-1.6,1.05-2.6,1.35-5.77-.63-11.13-1.48-16.1-2.55h-.1l-4.2-1h-.15l-9.75-2.95h6.5c2.23,0,3.35-1.13,3.35-3.4v-6.2c0-2.27-1.12-3.4-3.35-3.4h-6.25c-2.27,0-3.4,1.13-3.4,3.4v6.2c0,1.13.28,1.98.85,2.55l-1.35-.55-.15-.05c-9.07-3.73-16.13-8.58-21.2-14.55l.9.05h3.85c2.07,0,3.1-1.03,3.1-3.1v-3.85c0-2.03-1.03-3.05-3.1-3.05h-3.85c-2.03,0-3.05,1.02-3.05,3.05v4.1c-1.77-2.57-3.22-5.3-4.35-8.2l-.05-.05c-1.33-3.5-2.2-7.22-2.6-11.15v-.45c.1,3.13,1.77,4.7,5,4.7h3v1.95c0,2.7,1.35,4.05,4.05,4.05h5.85c2.73,0,4.1-1.35,4.1-4.05v-1.95M46,53.1c0,2.6,1.3,3.9,3.9,3.9h7.15c2.63,0,3.95-1.3,3.95-3.9v-7.2c0-2.6-1.32-3.9-3.95-3.9h-7.15c-2.6,0-3.9,1.3-3.9,3.9v7.2" fill="#acc0c1"/><path d="M4.05,1.2l-1.15.8-.9.9c.53-.7,1.22-1.27,2.05-1.7" fill="#cfdada"/></g></svg>