<?xml version="1.0" encoding="UTF-8"?><svg id="Calque_2" xmlns="http://www.w3.org/2000/svg" viewBox="0 0 70 69.45"><g id="Calque_1-2"><path d="M3.75,1.4l.3-.2c1.23-.67,2.77-1.07,4.6-1.2h51.7c2.93,0,5.2.67,6.8,2l.75.7c1.33,1.53,2.03,3.7,2.1,6.5v1.95c-.17-5.97-3.23-9.02-9.2-9.15H9.25c-4.6.1-7.48,1.92-8.65,5.45-.37,1.07-.57,2.3-.6,3.7v-2c0-.6.05-1.17.15-1.7l.1-.45.05-.45.05-.1c.2-.93.5-1.77.9-2.5l.75-1.05.9-.9.85-.6" fill="#93a3a3"/><path d="M0,11.15c.03-1.4.23-2.63.6-3.7C1.77,3.92,4.65,2.1,9.25,2h51.55c5.97.13,9.03,3.18,9.2,9.15v8.2c-.1,3.1-1.77,4.65-5,4.65h-25c-1.23,0-2.23-.22-3-.65-1.3-.77-1.97-2.17-2-4.2-.07,3.23-1.73,4.85-5,4.85H5c-3.23,0-4.9-1.55-5-4.65v-8.2" fill="#869595"/><path d="M70,19.35v4.95c-.1,3.13-1.77,4.7-5,4.7h-25c-3.27,0-4.93-1.62-5-4.85-.07,3.23-1.73,4.85-5,4.85H5c-3.23,0-4.9-1.57-5-4.7v-4.95c.1,3.1,1.77,4.65,5,4.65h25c3.27,0,4.93-1.62,5-4.85.03,2.03.7,3.43,2,4.2.77.43,1.77.65,3,.65h25c3.23,0,4.9-1.55,5-4.65M61,46.75c-3.23,3.83-7.28,7.23-12.15,10.2-1.9-.33-2.85-1.62-2.85-3.85v-7.2c0-2.6,1.3-3.9,3.9-3.9h7.15c2.63,0,3.95,1.3,3.95,3.9v.85M10.05,37h3.85c2.07,0,3.1,1.02,3.1,3.05v3.85c0,2.07-1.03,3.1-3.1,3.1h-3.85c-2.03,0-3.05-1.03-3.05-3.1v-3.85c0-2.03,1.02-3.05,3.05-3.05" fill="#a1b1b1"/><path d="M10.05,37c-2.03,0-3.05,1.02-3.05,3.05v3.85c0,2.07,1.02,3.1,3.05,3.1h3.85c2.07,0,3.1-1.03,3.1-3.1v-3.85c0-2.03-1.03-3.05-3.1-3.05h-3.85M70,24.3v.45c-.4,3.93-1.27,7.65-2.6,11.15l-.05.05c-1.33,3.47-3.13,6.67-5.4,9.6l-.95,1.2v-.85c0-2.6-1.32-3.9-3.95-3.9h-7.15c-2.6,0-3.9,1.3-3.9,3.9v7.2c0,2.23.95,3.52,2.85,3.85l-4.85,2.6v-6.2c0-2.27-1.12-3.4-3.35-3.4h-6.25c-2.27,0-3.4,1.13-3.4,3.4v6.2c0,2.27,1.13,3.4,3.4,3.4h1.45c-3.03,1.1-6.28,2.08-9.75,2.95h-.15l-4.2,1h-.1l-16.05,2.55c-1.03-.3-1.92-.75-2.65-1.35l-1.2-1.25c-1.1-1.5-1.68-3.5-1.75-6V24.3c.1,3.13,1.77,4.7,5,4.7h3v1.95c0,2.7,1.35,4.05,4.05,4.05h5.85c2.73,0,4.1-1.35,4.1-4.05v-1.95h8c3.27,0,4.93-1.62,5-4.85.07,3.23,1.73,4.85,5,4.85h25c3.23,0,4.9-1.57,5-4.7" fill="#acc0c1"/><path d="M44,59.55l-4.35,1.95-.15.05-3.65,1.4h-1.45c-2.27,0-3.4-1.13-3.4-3.4v-6.2c0-2.27,1.13-3.4,3.4-3.4h6.25c2.23,0,3.35,1.13,3.35,3.4v6.2M22,29v1.95c0,2.7-1.37,4.05-4.1,4.05h-5.85c-2.7,0-4.05-1.35-4.05-4.05v-1.95h14" fill="#bbcbcc"/></g></svg>