<?xml version="1.0" encoding="UTF-8"?><svg id="Calque_2" xmlns="http://www.w3.org/2000/svg" viewBox="0 0 70 70"><g id="Calque_1-2"><path d="M4.05,1.2c1.23-.67,2.77-1.07,4.6-1.2h61.35v2H9.25c-4.6.1-7.48,1.92-8.65,5.45-.37,1.07-.57,2.3-.6,3.7v-2c0-.6.05-1.17.15-1.7l.1-.45.05-.45.05-.1c.2-.93.5-1.77.9-2.5l.75-1.05.9-.9,1.15-.8" fill="#93a3a3"/><path d="M0,11.15c.03-1.4.23-2.63.6-3.7C1.77,3.92,4.65,2.1,9.25,2h60.75v17.35c-.1,3.1-1.77,4.65-5,4.65h-25c-1.23,0-2.23-.22-3-.65-1.3-.77-1.97-2.17-2-4.2-.07,3.23-1.73,4.85-5,4.85H5c-3.23,0-4.9-1.55-5-4.65v-8.2" fill="#869595"/><path d="M70,19.35v4.95c-.1,3.13-1.77,4.7-5,4.7h-25c-3.27,0-4.93-1.62-5-4.85-.07,3.23-1.73,4.85-5,4.85H5c-3.23,0-4.9-1.57-5-4.7v-4.95c.1,3.1,1.77,4.65,5,4.65h25c3.27,0,4.93-1.62,5-4.85.03,2.03.7,3.43,2,4.2.77.43,1.77.65,3,.65h25c3.23,0,4.9-1.55,5-4.65M49.9,42h7.15c2.63,0,3.95,1.3,3.95,3.9v7.2c0,2.6-1.32,3.9-3.95,3.9h-7.15c-2.6,0-3.9-1.3-3.9-3.9v-7.2c0-2.6,1.3-3.9,3.9-3.9M10.05,37h3.85c2.07,0,3.1,1.02,3.1,3.05v3.85c0,2.07-1.03,3.1-3.1,3.1h-3.85c-2.03,0-3.05-1.03-3.05-3.1v-3.85c0-2.03,1.02-3.05,3.05-3.05" fill="#a1b1b1"/><path d="M10.05,37c-2.03,0-3.05,1.02-3.05,3.05v3.85c0,2.07,1.02,3.1,3.05,3.1h3.85c2.07,0,3.1-1.03,3.1-3.1v-3.85c0-2.03-1.03-3.05-3.1-3.05h-3.85M70,24.3v45.7H9.65c-2.87,0-5.1-.63-6.7-1.9l-1.2-1.25c-1.1-1.5-1.68-3.5-1.75-6V24.3c.1,3.13,1.77,4.7,5,4.7h3v1.95c0,2.7,1.35,4.05,4.05,4.05h5.85c2.73,0,4.1-1.35,4.1-4.05v-1.95h8c3.27,0,4.93-1.62,5-4.85.07,3.23,1.73,4.85,5,4.85h25c3.23,0,4.9-1.57,5-4.7M49.9,42c-2.6,0-3.9,1.3-3.9,3.9v7.2c0,2.6,1.3,3.9,3.9,3.9h7.15c2.63,0,3.95-1.3,3.95-3.9v-7.2c0-2.6-1.32-3.9-3.95-3.9h-7.15M34.4,49.95c-2.27,0-3.4,1.13-3.4,3.4v6.2c0,2.27,1.13,3.4,3.4,3.4h6.25c2.23,0,3.35-1.13,3.35-3.4v-6.2c0-2.27-1.12-3.4-3.35-3.4h-6.25" fill="#acc0c1"/><path d="M34.4,49.95h6.25c2.23,0,3.35,1.13,3.35,3.4v6.2c0,2.27-1.12,3.4-3.35,3.4h-6.25c-2.27,0-3.4-1.13-3.4-3.4v-6.2c0-2.27,1.13-3.4,3.4-3.4M22,29v1.95c0,2.7-1.37,4.05-4.1,4.05h-5.85c-2.7,0-4.05-1.35-4.05-4.05v-1.95h14" fill="#bbcbcc"/><path d="M4.05,1.2l-1.15.8-.9.9c.53-.7,1.22-1.27,2.05-1.7" fill="#cfdada"/></g></svg>