<?xml version="1.0" encoding="UTF-8"?><svg id="Calque_2" xmlns="http://www.w3.org/2000/svg" viewBox="0 0 70 70"><g id="Calque_1-2"><path d="M0,2h60.35c5.73,0,8.92,2.55,9.55,7.65l.1.8v7.2c-10.87-5.2-22.53-5.2-35,0-10.87,5.17-22.53,5.17-35,0v-7.1c0-.33.05-.63.15-.9h-.15V2" fill="#c58f5c"/><path d="M69.9,9.65h.1v.8l-.1-.8M0,9.65h.15c-.1.27-.15.57-.15.9v-.9" fill="#93db24"/><path d="M70,9.65h-.1c-.63-5.1-3.82-7.65-9.55-7.65H0V0h60.35c6.43,0,9.65,3.22,9.65,9.65" fill="#cfa67c"/><path d="M0,21.65c12.47,5.17,24.13,5.17,35,0,12.47-5.2,24.13-5.2,35,0v16.85l-11.65-11.5-11.7,11.5-11.6-11.5-11.7,11.5-11.7-11.5L0,38.5v-16.85M70,53.5v7.35c-.07,2.47-.63,4.45-1.7,5.95l-9.9-9.8-11.7,11.5-11.6-11.5-11.7,11.5-11.7-11.5-9.95,9.85.05.05-1.8,1.8v-15.2h.05l10.15-10.05,1.45-1.45,11.7,11.5,11.7-11.5,11.6,11.5,11.7-11.5,11.65,11.5" fill="#bbcbcc"/><path d="M70,53.5l-11.65-11.5-11.7,11.5-11.6-11.5-11.7,11.5-11.7-11.5-1.45,1.45L.05,53.5h-.05v-15l11.65-11.5,11.7,11.5,11.7-11.5,11.6,11.5,11.7-11.5,11.65,11.5v15M68.3,66.8l-1.25,1.3c-1.6,1.27-3.83,1.9-6.7,1.9H0v-1.3l1.8-1.8-.05-.05,9.95-9.85,11.7,11.5,11.7-11.5,11.6,11.5,11.7-11.5,9.9,9.8" fill="#c1d1d2"/><path d="M70,17.65v4c-10.87-5.2-22.53-5.2-35,0-10.87,5.17-22.53,5.17-35,0v-4c12.47,5.17,24.13,5.17,35,0,12.47-5.2,24.13-5.2,35,0" fill="#a7b7b8"/></g></svg>