<?xml version="1.0" encoding="UTF-8"?><svg id="Calque_2" xmlns="http://www.w3.org/2000/svg" viewBox="0 0 70 70"><g id="Calque_1-2"><path d="M70,2H9.65C3.92,2,.75,4.55.15,9.65h-.15C0,3.22,3.22,0,9.65,0h60.35v2" fill="#cfa67c"/><path d="M.15,9.65l-.15.8v-.8h.15M70,10.3l-.1-.65h.1v.65" fill="#93db24"/><path d="M69.9,9.65l-.05-.45h.15v.45h-.1" fill="#f8f4ed"/><path d="M69.9,9.65l.1.65v7.35c-10.87-5.2-22.53-5.2-35,0-10.87,5.17-22.53,5.17-35,0v-7.2l.15-.8C.75,4.55,3.92,2,9.65,2h60.35v7.2h-.15l.05.45" fill="#c58f5c"/><path d="M70,38.5l-11.65-11.5-11.7,11.5-11.6-11.5-11.7,11.5-11.7-11.5-9,8.9c-1.37-3.5-2.25-7.22-2.65-11.15v-3.1c12.47,5.17,24.13,5.17,35,0,12.47-5.2,24.13-5.2,35,0v16.85M8.05,45.55l2.15-2.1,1.45-1.45,11.7,11.5,11.7-11.5,11.6,11.5,11.7-11.5,11.65,11.5v15.1l-1.75-1.75.05-.05-9.9-9.8-10.05,9.9-4.25-1-9-8.9-4.6,4.55c-9.83-4.03-17.32-9.37-22.45-16" fill="#bbcbcc"/><path d="M8.05,45.55c-2.27-2.93-4.07-6.13-5.4-9.6v-.05l9-8.9,11.7,11.5,11.7-11.5,11.6,11.5,11.7-11.5,11.65,11.5v15l-11.65-11.5-11.7,11.5-11.6-11.5-11.7,11.5-11.7-11.5-1.45,1.45-2.15,2.1M70,68.6v1.4c-7.87-.67-15.08-1.7-21.65-3.1l10.05-9.9,9.9,9.8-.05.05,1.75,1.75M44.1,65.9h-.05c-4.93-1.23-9.45-2.68-13.55-4.35l4.6-4.55,9,8.9" fill="#c1d1d2"/><path d="M0,17.65c12.47,5.17,24.13,5.17,35,0,12.47-5.2,24.13-5.2,35,0v4c-10.87-5.2-22.53-5.2-35,0-10.87,5.17-22.53,5.17-35,0v-4" fill="#a7b7b8"/></g></svg>