<?xml version="1.0" encoding="UTF-8"?><svg id="Calque_2" xmlns="http://www.w3.org/2000/svg" viewBox="0 0 70 70"><g id="Calque_1-2"><path d="M70,2H0V0h70v2" fill="#cfa67c"/><path d="M70,10.45l-.1-.8h.1v.8M0,9.65h.15c-.1.27-.15.57-.15.9v-.9" fill="#93db24"/><path d="M0,9.65V2h70v7.65h-.1l.1.8v7.2c-10.87-5.2-22.53-5.2-35,0-10.87,5.17-22.53,5.17-35,0v-7.1c0-.33.05-.63.15-.9h-.15" fill="#c58f5c"/><path d="M70,38.5l-11.65-11.5-11.7,11.5-11.6-11.5-11.7,11.5-11.7-11.5L0,38.5v-16.85c12.47,5.17,24.13,5.17,35,0,12.47-5.2,24.13-5.2,35,0v16.85M0,53.5h.05l10.15-10.05,1.45-1.45,11.7,11.5,11.7-11.5,11.6,11.5,11.7-11.5,11.65,11.5v15.1l-1.75-1.75.05-.05-9.9-9.8-11.7,11.5-11.6-11.5-11.7,11.5-11.7-11.5-7.1,7.1-.7.7-2.15,2.05.05.05-1.8,1.8v-15.2" fill="#bbcbcc"/><path d="M0,53.5v-15l11.65-11.5,11.7,11.5,11.7-11.5,11.6,11.5,11.7-11.5,11.65,11.5v15l-11.65-11.5-11.7,11.5-11.6-11.5-11.7,11.5-11.7-11.5-1.45,1.45L.05,53.5h-.05M70,68.6v1.4H0v-1.3l1.8-1.8-.05-.05,2.15-2.05.7-.7,7.1-7.1,11.7,11.5,11.7-11.5,11.6,11.5,11.7-11.5,9.9,9.8-.05.05,1.75,1.75" fill="#c1d1d2"/><path d="M0,17.65c12.47,5.17,24.13,5.17,35,0,12.47-5.2,24.13-5.2,35,0v4c-10.87-5.2-22.53-5.2-35,0-10.87,5.17-22.53,5.17-35,0v-4" fill="#a7b7b8"/></g></svg>