<?xml version="1.0" encoding="UTF-8"?><svg id="Calque_2" xmlns="http://www.w3.org/2000/svg" viewBox="0 0 70 70"><g id="Calque_1-2"><path d="M0,2V0h60.35c6.43,0,9.65,3.22,9.65,9.65v1.5c-.17-6.1-3.38-9.15-9.65-9.15H0" fill="#93db24"/><path d="M70,23.5v1.25l-.45,3.3-11.2-11.05-11.7,11.5-11.6-11.5-11.7,11.5-11.7-11.5L0,28.5v-5l11.65-11.5,11.7,11.5,11.7-11.5,11.6,11.5,11.7-11.5,11.65,11.5" fill="#bb8044"/><path d="M70,23.5l-11.65-11.5-11.7,11.5-11.6-11.5-11.7,11.5-11.7-11.5L0,23.5V2h60.35c6.27,0,9.48,3.05,9.65,9.15v12.35" fill="#80be1f"/><path d="M69.55,28.05c-.47,2.73-1.18,5.35-2.15,7.85l-9.05-8.9-11.7,11.5-11.6-11.5-11.7,11.5-11.7-11.5L0,38.5v-10l11.65-11.5,11.7,11.5,11.7-11.5,11.6,11.5,11.7-11.5,11.2,11.05M61.95,45.55c-5.1,6.6-12.53,11.92-22.3,15.95l-4.55-4.5-9,8.9h-.15l-4.2,1-10.05-9.9-9.95,9.85.05.05-1.8,1.8v-15.2h.05l10.15-10.05,1.45-1.45,11.7,11.5,11.7-11.5,11.6,11.5,11.7-11.5,3.6,3.55" fill="#c58f5c"/><path d="M61.95,45.55l-3.6-3.55-11.7,11.5-11.6-11.5-11.7,11.5-11.7-11.5-1.45,1.45L.05,53.5h-.05v-15l11.65-11.5,11.7,11.5,11.7-11.5,11.6,11.5,11.7-11.5,9.05,8.9-.05.05c-1.33,3.47-3.13,6.67-5.4,9.6M39.65,61.5l-.15.05c-4.07,1.67-8.53,3.12-13.4,4.35l9-8.9,4.55,4.5M21.75,66.9h-.1c-6.57,1.4-13.78,2.43-21.65,3.1v-1.3l1.8-1.8-.05-.05,9.95-9.85,10.05,9.9" fill="#c99869"/></g></svg>