<?xml version="1.0" encoding="UTF-8"?><svg id="Calque_2" xmlns="http://www.w3.org/2000/svg" viewBox="0 0 70 70"><g id="Calque_1-2"><path d="M0,23.5l11.65-11.5,11.7,11.5,11.7-11.5,11.6,11.5,11.7-11.5,11.65,11.5v5l-11.65-11.5-11.7,11.5-11.6-11.5-11.7,11.5-11.7-11.5L0,28.5v-5" fill="#bb8044"/><path d="M0,28.5l11.65-11.5,11.7,11.5,11.7-11.5,11.6,11.5,11.7-11.5,11.65,11.5v10l-11.65-11.5-11.7,11.5-11.6-11.5-11.7,11.5-11.7-11.5L0,38.5v-10M0,53.5h.05l10.15-10.05,1.45-1.45,11.7,11.5,11.7-11.5,11.6,11.5,11.7-11.5,11.65,11.5v15.1l-1.75-1.75.05-.05-9.9-9.8-11.7,11.5-11.6-11.5-11.7,11.5-11.7-11.5-9.95,9.85c-1.1-1.5-1.68-3.5-1.75-6v-7.35" fill="#c58f5c"/><path d="M70,23.5l-11.65-11.5-11.7,11.5-11.6-11.5-11.7,11.5-11.7-11.5L0,23.5v-12.35C.17,5.05,3.38,2,9.65,2h60.35v21.5" fill="#80be1f"/><path d="M70,2H9.65C3.38,2,.17,5.05,0,11.15v-1.5C0,3.22,3.22,0,9.65,0h60.35v2" fill="#93db24"/><path d="M70,53.5l-11.65-11.5-11.7,11.5-11.6-11.5-11.7,11.5-11.7-11.5-1.45,1.45L.05,53.5h-.05v-15l11.65-11.5,11.7,11.5,11.7-11.5,11.6,11.5,11.7-11.5,11.65,11.5v15M1.75,66.85l9.95-9.85,11.7,11.5,11.7-11.5,11.6,11.5,11.7-11.5,9.9,9.8-.05.05,1.75,1.75v1.4H9.65c-2.87,0-5.1-.63-6.7-1.9l-1.2-1.25" fill="#c99869"/></g></svg>