<?xml version="1.0" encoding="UTF-8"?><svg id="Calque_2" xmlns="http://www.w3.org/2000/svg" viewBox="0 0 70 70"><g id="Calque_1-2"><path d="M0,2h60.35c5.73,0,8.92,2.55,9.55,7.65l.1.9v7.1c-10.87-5.2-22.53-5.2-35,0-10.87,5.17-22.53,5.17-35,0v-7c0-.37.05-.7.15-1h-.15V2" fill="#e7dfc2"/><path d="M69.9,9.65h.1v.9l-.1-.9M0,10.65v-1h.15c-.1.3-.15.63-.15,1" fill="#93db24"/><path d="M0,2V0h60.35c6.43,0,9.65,3.22,9.65,9.65h-.1c-.63-5.1-3.82-7.65-9.55-7.65H0" fill="#f8f4ed"/><path d="M70,21.65v16.85l-11.65-11.5-11.7,11.5-11.6-11.5-11.7,11.5-11.7-11.5L0,38.5v-16.85c12.47,5.17,24.13,5.17,35,0,12.47-5.2,24.13-5.2,35,0M70,53.5v7.35c-.07,2.47-.63,4.45-1.7,5.95l-9.9-9.8-11.7,11.5-11.6-11.5-11.7,11.5-11.7-11.5-9.95,9.85.05.05-1.8,1.8v-15.2h.05l10.15-10.05,1.45-1.45,11.7,11.5,11.7-11.5,11.6,11.5,11.7-11.5,11.65,11.5" fill="#c58f5c"/><path d="M70,17.65v4c-10.87-5.2-22.53-5.2-35,0-10.87,5.17-22.53,5.17-35,0v-4c12.47,5.17,24.13,5.17,35,0,12.47-5.2,24.13-5.2,35,0" fill="#bb8044"/><path d="M70,38.5v15l-11.65-11.5-11.7,11.5-11.6-11.5-11.7,11.5-11.7-11.5-1.45,1.45L.05,53.5h-.05v-15l11.65-11.5,11.7,11.5,11.7-11.5,11.6,11.5,11.7-11.5,11.65,11.5M68.3,66.8l-1.25,1.3c-1.6,1.27-3.83,1.9-6.7,1.9H0v-1.3l1.8-1.8-.05-.05,9.95-9.85,11.7,11.5,11.7-11.5,11.6,11.5,11.7-11.5,9.9,9.8" fill="#c99869"/></g></svg>