<?xml version="1.0" encoding="UTF-8"?><svg id="Calque_2" xmlns="http://www.w3.org/2000/svg" viewBox="0 0 70 70"><g id="Calque_1-2"><path d="M70,2H0V0h70v2" fill="#f8f4ed"/><path d="M70,2v7.65h-.1l.1.9v7.1c-10.87-5.2-22.53-5.2-35,0-10.87,5.17-22.53,5.17-35,0v-7c0-.37.05-.7.15-1h-.15V2h70" fill="#e7dfc2"/><path d="M70,10.55l-.1-.9h.1v.9M0,9.65h.15c-.1.3-.15.63-.15,1v-1" fill="#93db24"/><path d="M0,17.65c12.47,5.17,24.13,5.17,35,0,12.47-5.2,24.13-5.2,35,0v4c-10.87-5.2-22.53-5.2-35,0-10.87,5.17-22.53,5.17-35,0v-4" fill="#bb8044"/><path d="M0,38.5l11.65-11.5,11.7,11.5,11.7-11.5,11.6,11.5,11.7-11.5,11.65,11.5v15l-11.65-11.5-11.7,11.5-11.6-11.5-11.7,11.5-11.7-11.5-1.45,1.45L.05,53.5h-.05v-15M70,68.6v1.4H0v-1.3l1.8-1.8-.05-.05,2.15-2.05.7-.7,7.1-7.1,11.7,11.5,11.7-11.5,11.6,11.5,11.7-11.5,9.9,9.8-.05.05,1.75,1.75" fill="#c99869"/><path d="M70,68.6l-1.75-1.75.05-.05-9.9-9.8-11.7,11.5-11.6-11.5-11.7,11.5-11.7-11.5-7.1,7.1-.7.7-2.15,2.05.05.05-1.8,1.8v-15.2h.05l10.15-10.05,1.45-1.45,11.7,11.5,11.7-11.5,11.6,11.5,11.7-11.5,11.65,11.5v15.1M70,21.65v16.85l-11.65-11.5-11.7,11.5-11.6-11.5-11.7,11.5-11.7-11.5L0,38.5v-16.85c12.47,5.17,24.13,5.17,35,0,12.47-5.2,24.13-5.2,35,0" fill="#c58f5c"/></g></svg>