<?xml version="1.0" encoding="UTF-8"?><svg id="Calque_2" xmlns="http://www.w3.org/2000/svg" viewBox="0 0 70 70"><g id="Calque_1-2"><path d="M.15,9.65h-.15v-.6C.2,3.02,3.42,0,9.65,0h50.7c6.43,0,9.65,3.22,9.65,9.65h-.1c-.63-5.1-3.82-7.65-9.55-7.65H9.65C3.92,2,.75,4.55.15,9.65" fill="#fff"/><path d="M0,38.5v-16.85c12.47,5.17,24.13,5.17,35,0,12.47-5.2,24.13-5.2,35,0v16.85l-11.65-11.5-11.7,11.5-11.6-11.5-11.7,11.5-11.7-11.5L0,38.5M0,53.5h.05l10.15-10.05,1.45-1.45,11.7,11.5,11.7-11.5,11.6,11.5,11.7-11.5,11.65,11.5v7.35c-.07,2.47-.63,4.45-1.7,5.95l-9.9-9.8-11.7,11.5-11.6-11.5-11.7,11.5-11.7-11.5-9.95,9.85c-1.1-1.5-1.68-3.5-1.75-6v-7.35" fill="#bbcbcc"/><path d="M0,10.5c0-.3.05-.58.15-.85C.75,4.55,3.92,2,9.65,2h50.7c5.73,0,8.92,2.55,9.55,7.65l.1.75v7.25c-10.87-5.2-22.53-5.2-35,0-10.87,5.17-22.53,5.17-35,0v-7.15" fill="#defbff"/><path d="M0,21.65v-4c12.47,5.17,24.13,5.17,35,0,12.47-5.2,24.13-5.2,35,0v4c-10.87-5.2-22.53-5.2-35,0-10.87,5.17-22.53,5.17-35,0" fill="#bae4e9"/><path d="M0,9.65h.15c-.1.27-.15.55-.15.85v-.85M69.9,9.65h.1v.75l-.1-.75" fill="#93db24"/><path d="M0,38.5l11.65-11.5,11.7,11.5,11.7-11.5,11.6,11.5,11.7-11.5,11.65,11.5v15l-11.65-11.5-11.7,11.5-11.6-11.5-11.7,11.5-11.7-11.5-1.45,1.45L.05,53.5h-.05v-15M68.3,66.8l-1.25,1.3c-1.6,1.27-3.83,1.9-6.7,1.9H9.65c-2.87,0-5.1-.63-6.7-1.9l-1.2-1.25,9.95-9.85,11.7,11.5,11.7-11.5,11.6,11.5,11.7-11.5,9.9,9.8" fill="#c1d1d2"/></g></svg>