<?xml version="1.0" encoding="UTF-8"?><svg id="Calque_2" xmlns="http://www.w3.org/2000/svg" viewBox="0 0 70 70"><g id="Calque_1-2"><path d="M69.9,9.65h.1v.65l-.1-.65M0,9.65h.15l-.15.8v-.8" fill="#93db24"/><path d="M0,9.65V2h60.35c5.73,0,8.92,2.55,9.55,7.65l.1.65v7.35c-10.87-5.2-22.53-5.2-35,0-10.87,5.17-22.53,5.17-35,0v-7.2l.15-.8h-.15" fill="#defbff"/><path d="M69.9,9.65c-.63-5.1-3.82-7.65-9.55-7.65H0V0h60.35c6.43,0,9.65,3.22,9.65,9.65h-.1" fill="#fff"/><path d="M0,17.65c12.47,5.17,24.13,5.17,35,0,12.47-5.2,24.13-5.2,35,0v4c-10.87-5.2-22.53-5.2-35,0-10.87,5.17-22.53,5.17-35,0v-4" fill="#bae4e9"/><path d="M67.4,35.9l-9.05-8.9-11.7,11.5-11.6-11.5-11.7,11.5-11.7-11.5L0,38.5v-16.85c12.47,5.17,24.13,5.17,35,0,12.47-5.2,24.13-5.2,35,0v3.1c-.4,3.93-1.27,7.65-2.6,11.15M0,53.5h.05l10.15-10.05,1.45-1.45,11.7,11.5,11.7-11.5,11.6,11.5,11.7-11.5,3.6,3.55c-5.1,6.6-12.53,11.92-22.3,15.95l-4.55-4.5-9,8.9h-.15l-4.2,1-10.05-9.9-9.95,9.85.05.05-1.8,1.8v-15.2" fill="#bbcbcc"/><path d="M0,53.5v-15l11.65-11.5,11.7,11.5,11.7-11.5,11.6,11.5,11.7-11.5,9.05,8.9-.05.05c-1.33,3.47-3.13,6.67-5.4,9.6l-3.6-3.55-11.7,11.5-11.6-11.5-11.7,11.5-11.7-11.5-1.45,1.45L.05,53.5h-.05M0,68.7l1.8-1.8-.05-.05,9.95-9.85,10.05,9.9h-.1c-6.57,1.4-13.78,2.43-21.65,3.1v-1.3M26.1,65.9l9-8.9,4.55,4.5-.15.05c-4.07,1.67-8.53,3.12-13.4,4.35" fill="#c1d1d2"/></g></svg>