<?xml version="1.0" encoding="UTF-8"?><svg id="Calque_2" xmlns="http://www.w3.org/2000/svg" viewBox="0 0 70 70"><g id="Calque_1-2"><path d="M0,17.65v-7.1c0-.33.05-.63.15-.9C.75,4.55,3.92,2,9.65,2h60.35v7.2h-.15l.05.45.1.8v7.2c-10.87-5.2-22.53-5.2-35,0-10.87,5.17-22.53,5.17-35,0" fill="#defbff"/><path d="M0,10.55v-.9h.15c-.1.27-.15.57-.15.9M70,9.65v.8l-.1-.8h.1" fill="#93db24"/><path d="M0,9.65C0,3.22,3.22,0,9.65,0h60.35v2H9.65C3.92,2,.75,4.55.15,9.65h-.15" fill="#fff"/><path d="M70,21.65c-10.87-5.2-22.53-5.2-35,0-10.87,5.17-22.53,5.17-35,0v-4c12.47,5.17,24.13,5.17,35,0,12.47-5.2,24.13-5.2,35,0v4" fill="#bae4e9"/><path d="M70,21.65v16.85l-11.65-11.5-11.7,11.5-11.6-11.5-11.7,11.5-11.7-11.5L0,38.5v-16.85c12.47,5.17,24.13,5.17,35,0,12.47-5.2,24.13-5.2,35,0M0,53.5h.05l10.15-10.05,1.45-1.45,11.7,11.5,11.7-11.5,11.6,11.5,11.7-11.5,11.65,11.5v15.1l-1.75-1.75.05-.05-9.9-9.8-11.7,11.5-11.6-11.5-11.7,11.5-11.7-11.5-9.95,9.85c-1.1-1.5-1.68-3.5-1.75-6v-7.35" fill="#bbcbcc"/><path d="M0,53.5v-15l11.65-11.5,11.7,11.5,11.7-11.5,11.6,11.5,11.7-11.5,11.65,11.5v15l-11.65-11.5-11.7,11.5-11.6-11.5-11.7,11.5-11.7-11.5-1.45,1.45L.05,53.5h-.05M1.75,66.85l9.95-9.85,11.7,11.5,11.7-11.5,11.6,11.5,11.7-11.5,9.9,9.8-.05.05,1.75,1.75v1.4H9.65c-2.87,0-5.1-.63-6.7-1.9l-1.2-1.25" fill="#c1d1d2"/><path d="M70,9.2v.45h-.1l-.05-.45h.15" fill="#f8f4ed"/></g></svg>