<?xml version="1.0" encoding="UTF-8"?><svg id="Calque_2" xmlns="http://www.w3.org/2000/svg" viewBox="0 0 70 70"><g id="Calque_1-2"><path d="M.15,9.65C.75,4.55,3.92,2,9.65,2h50.7c5.73,0,8.92,2.55,9.55,7.65l.1.9v12.95l-11.65-11.5-11.7,11.5-11.6-11.5-11.7,11.5-11.7-11.5L0,23.5v-12.85c0-.37.05-.7.15-1" fill="#9c73ae"/><path d="M.15,9.65c-.1.3-.15.63-.15,1v-1h.15M69.9,9.65h.1v.9l-.1-.9" fill="#93db24"/><path d="M69.9,9.65c-.63-5.1-3.82-7.65-9.55-7.65H9.65C3.92,2,.75,4.55.15,9.65h-.15C0,3.22,3.22,0,9.65,0h50.7c6.43,0,9.65,3.22,9.65,9.65h-.1" fill="#b699c4"/><path d="M0,23.5l11.65-11.5,11.7,11.5,11.7-11.5,11.6,11.5,11.7-11.5,11.65,11.5v5l-11.65-11.5-11.7,11.5-11.6-11.5-11.7,11.5-11.7-11.5L0,28.5v-5" fill="#85a3a5"/><path d="M70,53.5l-11.65-11.5-11.7,11.5-11.6-11.5-11.7,11.5-11.7-11.5-1.45,1.45L.05,53.5h-.05v-15l11.65-11.5,11.7,11.5,11.7-11.5,11.6,11.5,11.7-11.5,11.65,11.5v15M1.75,66.85l9.95-9.85,11.7,11.5,11.7-11.5,11.6,11.5,11.7-11.5,9.9,9.8-1.25,1.3c-1.6,1.27-3.83,1.9-6.7,1.9H9.65c-2.87,0-5.1-.63-6.7-1.9l-1.2-1.25" fill="#acc0c1"/><path d="M1.75,66.85c-1.1-1.5-1.68-3.5-1.75-6v-7.35h.05l10.15-10.05,1.45-1.45,11.7,11.5,11.7-11.5,11.6,11.5,11.7-11.5,11.65,11.5v7.35c-.07,2.47-.63,4.45-1.7,5.95l-9.9-9.8-11.7,11.5-11.6-11.5-11.7,11.5-11.7-11.5-9.95,9.85M0,28.5l11.65-11.5,11.7,11.5,11.7-11.5,11.6,11.5,11.7-11.5,11.65,11.5v10l-11.65-11.5-11.7,11.5-11.6-11.5-11.7,11.5-11.7-11.5L0,38.5v-10" fill="#bbcbcc"/></g></svg>