<?xml version="1.0" encoding="UTF-8"?><svg id="Calque_2" xmlns="http://www.w3.org/2000/svg" viewBox="0 0 70 70"><g id="Calque_1-2"><path d="M70,23.5v1.25l-.45,3.3-11.2-11.05-11.7,11.5-11.6-11.5-11.7,11.5-11.7-11.5L0,28.5v-5l11.65-11.5,11.7,11.5,11.7-11.5,11.6,11.5,11.7-11.5,11.65,11.5" fill="#85a3a5"/><path d="M69.55,28.05c-.47,2.73-1.18,5.35-2.15,7.85l-9.05-8.9-11.7,11.5-11.6-11.5-11.7,11.5-11.7-11.5L0,38.5v-10l11.65-11.5,11.7,11.5,11.7-11.5,11.6,11.5,11.7-11.5,11.2,11.05M61.95,45.55c-5.1,6.6-12.53,11.92-22.3,15.95l-4.55-4.5-9,8.9h-.15l-4.2,1-10.05-9.9-9.95,9.85.05.05-1.8,1.8v-15.2h.05l10.15-10.05,1.45-1.45,11.7,11.5,11.7-11.5,11.6,11.5,11.7-11.5,3.6,3.55" fill="#bbcbcc"/><path d="M0,2V0h60.35c6.43,0,9.65,3.22,9.65,9.65h-.1c-.63-5.1-3.82-7.65-9.55-7.65H0" fill="#b699c4"/><path d="M0,2h60.35c5.73,0,8.92,2.55,9.55,7.65l.1.8v13.05l-11.65-11.5-11.7,11.5-11.6-11.5-11.7,11.5-11.7-11.5L0,23.5V2" fill="#9c73ae"/><path d="M67.4,35.9l-.05.05c-1.33,3.47-3.13,6.67-5.4,9.6l-3.6-3.55-11.7,11.5-11.6-11.5-11.7,11.5-11.7-11.5-1.45,1.45L.05,53.5h-.05v-15l11.65-11.5,11.7,11.5,11.7-11.5,11.6,11.5,11.7-11.5,9.05,8.9M39.65,61.5l-.15.05c-4.07,1.67-8.53,3.12-13.4,4.35l9-8.9,4.55,4.5M21.75,66.9h-.1c-6.57,1.4-13.78,2.43-21.65,3.1v-1.3l1.8-1.8-.05-.05,9.95-9.85,10.05,9.9" fill="#acc0c1"/><path d="M70,9.65v.8l-.1-.8h.1" fill="#93db24"/></g></svg>