<?xml version="1.0" encoding="UTF-8"?><svg id="Calque_2" xmlns="http://www.w3.org/2000/svg" viewBox="0 0 70 70"><g id="Calque_1-2"><path d="M70,23.5l-11.65-11.5-11.7,11.5-11.6-11.5-11.7,11.5-11.7-11.5L0,23.5v-12.95c0-.33.05-.63.15-.9C.75,4.55,3.92,2,9.65,2h60.35v21.5" fill="#9c73ae"/><path d="M0,9.65C0,3.22,3.22,0,9.65,0h60.35v2H9.65C3.92,2,.75,4.55.15,9.65h-.15" fill="#b699c4"/><path d="M.45,28.05l-.45-3.3v-1.25l11.65-11.5,11.7,11.5,11.7-11.5,11.6,11.5,11.7-11.5,11.65,11.5v5l-11.65-11.5-11.7,11.5-11.6-11.5-11.7,11.5-11.7-11.5L.45,28.05" fill="#85a3a5"/><path d="M2.65,35.9l9-8.9,11.7,11.5,11.7-11.5,11.6,11.5,11.7-11.5,11.65,11.5v15l-11.65-11.5-11.7,11.5-11.6-11.5-11.7,11.5-11.7-11.5-1.45,1.45-2.15,2.1c-2.27-2.93-4.07-6.13-5.4-9.6v-.05M30.5,61.55l4.6-4.55,9,8.9h-.05c-4.93-1.23-9.45-2.68-13.55-4.35M48.35,66.9l10.05-9.9,9.9,9.8-.05.05,1.75,1.75v1.4c-7.87-.67-15.08-1.7-21.65-3.1" fill="#acc0c1"/><path d="M48.35,66.9l-4.25-1-9-8.9-4.6,4.55c-9.83-4.03-17.32-9.37-22.45-16l2.15-2.1,1.45-1.45,11.7,11.5,11.7-11.5,11.6,11.5,11.7-11.5,11.65,11.5v15.1l-1.75-1.75.05-.05-9.9-9.8-10.05,9.9M.45,28.05l11.2-11.05,11.7,11.5,11.7-11.5,11.6,11.5,11.7-11.5,11.65,11.5v10l-11.65-11.5-11.7,11.5-11.6-11.5-11.7,11.5-11.7-11.5-9,8.9c-1-2.5-1.73-5.12-2.2-7.85" fill="#bbcbcc"/></g></svg>