<?xml version="1.0" encoding="UTF-8"?><svg id="Calque_2" xmlns="http://www.w3.org/2000/svg" viewBox="0 0 77.8 92.78"><g id="Calque_1-2"><g id="legLeft_FL_FL_FL_FL_FL"><g id="Symbol_11_0_Layer0_0_FILL"><path d="M34.28,88.26l1.39-3.12-15.37-8.88-1.37,3.08-.02.05,15.33,8.85.04.03Z" fill="#e0c1a2"/><path d="M32.21,92.78l2.02-4.55-15.33-8.85.02-.05c-1.28-.05-2.61.28-3.98.99l-.88,1.98,18.14,10.48Z" fill="#aa7e5c"/><path d="M33.99,67.25l-.04-.03c-2.14-1.23-4.28-1.51-6.43-.83-2.2.7-3.79,2.16-4.79,4.4l-2.43,5.47,15.37,8.88,2.43-5.47c.99-2.24,1.1-4.56.33-6.97-.82-2.4-2.3-4.21-4.43-5.45Z" fill="#eccfb1"/></g></g><g id="legRight_FL_FL_FL_FL_FL"><g id="Symbol_11_0_Layer0_0_FILL-2"><path d="M48.63,86.21l-2.39-2.8,15.37-8.87,2.36,2.76.04.04-15.33,8.85-.04.02Z" fill="#e0c1a2"/><path d="M52.16,90.25l-3.48-4.07,15.33-8.85-.04-.04c1.46-.11,3.07.13,4.82.72l1.51,1.77-18.14,10.47Z" fill="#aa7e5c"/><path d="M43.59,66.92l.04-.02c2.14-1.23,4.53-1.59,7.17-1.07,2.7.53,4.9,1.8,6.62,3.8l4.19,4.9-15.37,8.87-4.19-4.9c-1.71-2-2.43-4.13-2.16-6.38.33-2.24,1.56-3.97,3.7-5.21Z" fill="#eccfb1"/></g></g><g id="body_FL_FL_FL_FL_FL"><g id="Symbol_10_0_Layer0_0_FILL"><path d="M41.14,62.58l3.86-13.5-7.61.99,3.74,12.51Z" fill="#fafafa"/><path d="M46.92,42.38l-1.91,6.7-3.86,13.5,5.98-8.62,1.91-2.8,2.04-2.91-4.16-5.88M37.4,50.07l-2.04-6.79-4.16,6.52,9.93,12.78-3.74-12.51M24.31,71.04v4.1l32.42-2.53v-4.1l-32.42,2.53Z" fill="#8e643a"/><path d="M45,49.08l1.91-6.7-11.55.9,2.04,6.79,7.61-.99Z" fill="#25a65b"/><path d="M47.12,53.96l-5.98,8.62-9.93-12.78,4.16-6.52-11.05.86v26.9l32.42-2.53v-26.9l-9.81.76,4.16,5.88-2.04,2.91,4.53-.35v2.65l-6.44.5Z" fill="#c48a51"/><path d="M53.56,50.81l-4.53.35-1.91,2.8,6.44-.5v-2.65Z" fill="#b17d49"/></g><g id="Symbol_10_0_Layer0_1_FILL"><path d="M49.64,61.22c-.16.4-.32.83-.46,1.29-.31.08-.6.22-.89.43-.27.22-.51.48-.7.77-.39-.03-.76-.03-1.11-.02-.91.02-1.4.19-1.47.51-.07.34.29.73,1.1,1.17.32.17.67.33,1.04.47.03.35.13.67.29.97.17.33.36.6.59.79-.05.49-.08.94-.09,1.35-.05,1.14.06,1.74.34,1.81.26.06.6-.43,1.03-1.48.17-.38.33-.81.49-1.29.27-.07.54-.21.8-.42.27-.19.5-.44.69-.73.41.05.79.07,1.13.06.94,0,1.45-.19,1.53-.53.07-.32-.32-.7-1.16-1.15-.31-.18-.65-.35-1.04-.51-.04-.35-.15-.69-.31-1.01-.15-.3-.33-.55-.54-.75.06-.5.09-.97.1-1.42.04-1.09-.07-1.67-.33-1.74-.28-.07-.63.4-1.04,1.4Z" fill="#e05848"/></g><g id="Symbol_10_0_Layer0_2_FILL"><path d="M29.48,53.88c-.26.27-.46.59-.6.95-.14.36-.2.72-.2,1.08-.39.23-.72.46-1,.71-.77.65-1.13,1.12-1.06,1.42.11.31.61.36,1.51.17.33-.09.7-.2,1.12-.33.18.24.4.45.67.61.29.14.61.2.95.18.15.43.31.81.5,1.12.5.97.87,1.37,1.13,1.22.28-.12.35-.75.21-1.88-.06-.39-.11-.82-.18-1.29.18-.28.34-.58.47-.9.14-.36.23-.71.28-1.04.36-.28.71-.53,1.03-.74.8-.67,1.14-1.15,1.03-1.46-.07-.3-.57-.34-1.49-.13-.38.06-.78.15-1.2.28-.18-.24-.41-.44-.71-.58-.27-.16-.54-.23-.8-.2-.2-.46-.39-.88-.57-1.24-.49-.89-.87-1.28-1.15-1.15-.26.15-.33.75-.2,1.81.03.41.11.87.22,1.37Z" fill="#e05848"/></g><g id="Symbol_10_0_Layer0_3_FILL"><path d="M39.6,67.25c.03-.1.03-.2,0-.3l-1.41-3.59s-.01-.07-.04-.1l-2.24-2.93c-.03-.06-.1-.09-.21-.08-.08-.03-.17,0-.25.07l-.54.49c-.06.04-.1.11-.12.21,0,.1.01.2.04.3l1.5,3.73s.04.06.04.1l2.16,2.78c.06.06.14.09.25.08.08.03.17,0,.25-.07l.46-.44c.06-.07.1-.16.12-.26Z" fill="#b17d49"/></g></g><g id="armLeft_FL_FL_FL_FL_FL_FL"><g id="Symbol_8_0_Layer0_0_FILL"><path d="M31.07,44.32l-.04-.04c-.24-.33-.48-.62-.74-.88-2.31-2.45-6.69-2.1-13.15,1.06l-4.42,1.8,2.26,1.77,3.08,2.44-.42,3.96,3.57,1.38,1.49,3.54.57,1.48c.32-1.16,1.24-2.31,2.76-3.46l3.01-2.09c1.79-1.23,2.9-2.92,3.32-5.09.4-2.14-.02-4.1-1.27-5.87Z" fill="#af7b48"/><path d="M22.69,59.35l-1.49-3.54-3.57-1.38.42-3.96-3.08-2.44c-4.75,3.68-8.5,7.07-11.24,10.18.07,2.8.97,5.47,2.69,7.99,5.03-1.27,10.45-3.55,16.26-6.86Z" fill="#2ecc71"/></g></g><g id="handLeft_FL_FL_FL_FL_FL_FL"><g id="Symbol_9_0_Layer0_0_FILL"><path d="M11.97,71.57c1.48-3.18,2.17-5.87,2.05-8.06l-8.63-5.02c-.71-.42-1.26-.32-1.66.32l-.28.49c-4.43,6.98-4.6,11.67-.49,14.07,1.44.87,3.02,1.58,4.74,2.12,1.13.38,1.91.21,2.33-.5l.14-.21c.49-.87.97-1.72,1.41-2.55l-.04.04.42-.71M3.56,61.53c.19-.24.72-.25,1.59-.04.85.19,1.81.54,2.9,1.06,1.08.57,1.94,1.1,2.58,1.59.66.57.91.95.74,1.17-.16.26-.67.29-1.52.11-.87-.16-1.86-.52-2.97-1.06-1.08-.52-1.94-1.05-2.58-1.59-.66-.57-.91-.98-.74-1.24Z" fill="#2ecc71"/><path d="M5.15,61.49c-.87-.21-1.4-.2-1.59.04-.16.26.08.67.74,1.24.64.54,1.5,1.07,2.58,1.59,1.11.54,2.1.9,2.97,1.06.85.19,1.36.15,1.52-.11.16-.21-.08-.6-.74-1.17-.64-.49-1.5-1.03-2.58-1.59-1.08-.52-2.05-.87-2.9-1.06M11.58,72.24c3.51-.59,4.33-3.5,2.44-8.73.12,2.19-.57,4.88-2.05,8.06l-.42.71.04-.04Z" fill="#29b665"/></g></g><g id="armRight_FL_FL_FL_FL_FL_FL_FL"><g id="Symbol_8_0_Layer0_0_FILL-2"><path d="M51.09,43.02l.04-.03c.29-.28.58-.53.89-.74,2.7-2.01,6.96-.9,12.77,3.34l4.04,2.55-2.54,1.35-3.45,1.87-.27,3.97-3.76.74-2.08,3.22-.82,1.36c-.12-1.19-.82-2.49-2.11-3.89l-2.6-2.58c-1.55-1.52-2.35-3.38-2.39-5.59-.02-2.18.74-4.03,2.28-5.56Z" fill="#af7b48"/><path d="M56.73,59.28l2.08-3.22,3.76-.74.27-3.97,3.45-1.87c4.04,4.45,7.14,8.45,9.3,11.99-.56,2.75-1.9,5.22-4.04,7.4-4.73-2.12-9.67-5.32-14.82-9.59Z" fill="#2ecc71"/></g></g><g id="handRight_FL_FL_FL_FL_FL_FL_FL"><g id="Symbol_9_0_Layer0_0_FILL-2"><path d="M65.83,72.37c-1.48-3.18-2.17-5.87-2.05-8.06l8.63-5.02c.71-.42,1.26-.32,1.66.32l.28.49c4.43,6.98,4.6,11.67.49,14.07-1.44.87-3.02,1.58-4.74,2.12-1.13.38-1.91.21-2.33-.5l-.14-.21c-.49-.87-.97-1.72-1.41-2.55l.04.04-.42-.71M74.24,62.33c-.19-.24-.72-.25-1.59-.04-.85.19-1.81.54-2.9,1.06-1.08.57-1.94,1.1-2.58,1.59-.66.57-.91.95-.74,1.17.16.26.67.29,1.52.11.87-.16,1.86-.52,2.97-1.06,1.08-.52,1.94-1.05,2.58-1.59.66-.57.91-.98.74-1.24Z" fill="#2ecc71"/><path d="M72.65,62.29c.87-.21,1.4-.2,1.59.04.16.26-.08.67-.74,1.24-.64.54-1.5,1.07-2.58,1.59-1.11.54-2.1.9-2.97,1.06-.85.19-1.36.15-1.52-.11-.16-.21.08-.6.74-1.17.64-.49,1.5-1.03,2.58-1.59,1.08-.52,2.05-.87,2.9-1.06M66.22,73.04c-3.51-.59-4.32-3.5-2.44-8.73-.12,2.19.57,4.88,2.05,8.06l.42.71-.04-.04Z" fill="#29b665"/></g></g><g id="Symbol_16_0_Layer0_0_FILL"><path d="M29.14,46.06l9.21,5.29,9.93-3.78-19.14-1.5Z" fill="#25a65b"/><path d="M59.92,23.2c-.2-2.99-1.78-4.6-4.74-4.84l-30.26-2.37c-2.92-.23-4.74,1.15-5.44,4.14-1.53,6.77-2.07,13.61-1.61,20.54.23,3.03,1.81,4.66,4.73,4.89l6.53.51,19.14,1.5,4.59.36c2.96.23,4.79-1.15,5.49-4.13,1.56-6.63,2.08-13.5,1.57-20.59Z" fill="#2ecc71"/></g><g id="Symbol_16_0_Layer0_1_FILL"><path d="M32.42,36.14c1.03.08,1.91-.23,2.63-.95.66-.56,1.06-1.25,1.22-2.06l-7.23-.57c.05.83.32,1.57.83,2.22.67.82,1.52,1.27,2.55,1.35M50.97,37.6c1.03.08,1.91-.23,2.63-.95.66-.56,1.06-1.25,1.22-2.06l-7.23-.57c.05.83.32,1.57.83,2.22.67.82,1.52,1.27,2.55,1.35M43.66,40.53l-.35-1.93-6.29.91c-.28.61-.45,1.27-.51,1.97-.01.13-.02.27-.03.4l7.18-1.34Z" fill="#fff"/><path d="M46.1,38.27c-.98-1.18-2.21-1.83-3.71-1.95s-2.82.33-3.97,1.34c-.61.52-1.08,1.14-1.4,1.85l6.29-.91.35,1.93,3.36-.69c-.22-.55-.53-1.08-.93-1.58Z" fill="#7f7058"/><path d="M56.39,29.9c-.18-.25-.42-.4-.72-.46-2.33-.52-4.63-1.45-6.9-2.8-.22-.15-.47-.17-.75-.06-.24.08-.44.25-.59.51-.15.26-.21.49-.15.69.11.28.28.49.5.64,2.5,1.4,5,2.38,7.49,2.95.32.13.59.1.81-.09.18-.19.3-.39.35-.62.09-.29.08-.55-.04-.76M37.17,27.39c.24-.11.41-.29.49-.51.12-.26.12-.49,0-.7-.11-.31-.28-.51-.51-.59-.26-.12-.51-.12-.75,0-2.45.98-4.86,1.59-7.22,1.84-.34.04-.58.14-.73.29-.22.22-.29.46-.21.74,0,.3.11.53.3.68.22.22.48.32.78.31,2.53-.24,5.14-.92,7.83-2.04Z" fill="#7e8991"/></g><g id="Symbol_16_0_Layer0_2_FILL"><path d="M25.57,34.7c-.03-.07-.11-.11-.24-.12-.1-.04-.2-.03-.3.03l-.68.4c-.07.03-.12.09-.17.19,0,.1,0,.2.03.3l1.49,3.98s.04.07.04.1l2.36,3.14c.06.07.16.11.29.12.1.04.2.03.3-.03l.58-.36c.07-.06.13-.14.17-.24.04-.1.05-.2.02-.3l-1.41-3.82s-.01-.07-.04-.1l-2.45-3.3Z" fill="#28b162"/></g><g id="Symbol_16_0_Layer0_3_FILL"><path d="M34.66,7.08l2.66,3.12c6.02-2.99,12.5-4.83,19.44-5.55-5.76-1.34-11.43-1.43-17.03-.28l3.15-3.67c-6.04-1.56-11.11-.52-15.19,3.12l-3.93,3.4-2.79-1.47-5.6,10.69c.45,1.53.76,2.99.91,4.38l18.38-13.75M28.64,20.4l2.76-3.9-5.92,5.15,1.3,1.36,1.86-2.61M59.32,36.55l.24,1.47c6-7.67,8.53-16.58,7.62-26.74l-5.33-.42c1.81,8.78.97,17.34-2.52,25.68M49.78,27.22l7.69-2.15h0l-8.19.81.5,1.34Z" fill="#717b83"/><path d="M42.73,24.36l-1.33-4.82-9.99-3.04-2.76,3.9,14.08,3.96Z"/><path d="M61.57,6.08c-1.61-.57-3.21-1.04-4.8-1.43-6.95.71-13.43,2.56-19.44,5.55l-2.66-3.12-18.38,13.75c.39,3,.13,5.69-.78,8.06-1.3,3.49-.34,6.79,2.88,9.91l5.36-7.6-1.58-6.64,3.34-2.9,5.92-5.15,9.99,3.04,1.33,4.82.59,2.1,5.96-.59,8.19-.81h0l1.86,11.48c3.49-8.34,4.33-16.9,2.52-25.68l-2.49-.2,2.22-4.59Z" fill="#6b747b"/></g></g></svg>