<?xml version="1.0" encoding="UTF-8"?><svg id="Calque_2" xmlns="http://www.w3.org/2000/svg" viewBox="0 0 71.09 90.34"><g id="Calque_1-2"><g id="legLeft_FL_FL_FL_FL_FL_FL"><g id="Symbol_11_0_Layer0_0_FILL"><path d="M58.02,71.65l-2.4-2.4-12.55,12.55,2.37,2.37.04.04,12.52-12.52.04-.04Z" fill="#e0c1a2"/><path d="M61.48,75.18l-3.5-3.5-12.52,12.52-.04-.04c-.42,1.27-.52,2.71-.28,4.31l1.52,1.52,14.81-14.81Z" fill="#aa7e5c"/><path d="M38.99,65.14l-.04.04c-1.74,1.74-2.63,3.81-2.65,6.19-.02,2.43.82,4.5,2.55,6.22l4.21,4.21,12.55-12.55-4.21-4.21c-1.72-1.72-3.78-2.58-6.19-2.58-2.4.05-4.48.94-6.22,2.69Z" fill="#eccfb1"/></g></g><g id="armRight_FL_FL_FL_FL_FL_FL_FL_FL"><g id="Symbol_8_0_Layer0_0_FILL"><path d="M14.04,43.3h-.05c-.4-.07-.78-.1-1.15-.1-3.37-.1-6.22,3.25-8.55,10.05l-1.85,4.4,2.85-.35,3.9-.45,2.5,3.1,3.5-1.55,3.55,1.45,1.45.65c-.59-1.05-.75-2.51-.5-4.4l.65-3.6c.4-2.13-.02-4.12-1.25-5.95-1.23-1.8-2.92-2.88-5.05-3.25Z" fill="#af7b48"/><path d="M18.74,59.85l-3.55-1.45-3.5,1.55-2.5-3.1-3.9.45c-.76,5.96-1.01,11.01-.75,15.15,2.03,1.93,4.55,3.18,7.55,3.75,2.66-4.45,4.88-9.9,6.65-16.35Z" fill="#2ecc71"/></g></g><g id="handRight_FL_FL_FL_FL_FL_FL_FL_FL"><g id="Symbol_9_0_Layer0_0_FILL"><path d="M2.18,70.29c2.01-2.88,4-4.81,5.96-5.81l8.66,4.96c.72.4.91.93.56,1.6l-.29.49c-3.83,7.33-7.81,9.81-11.94,7.46-1.47-.81-2.88-1.82-4.21-3.04-.89-.79-1.14-1.55-.74-2.27l.11-.23c.51-.86,1.01-1.7,1.5-2.5v.05s.39-.72.39-.72M15.09,72.56c.11-.28-.15-.75-.76-1.4-.59-.64-1.38-1.3-2.37-1.98-1.03-.66-1.92-1.14-2.67-1.44-.82-.29-1.28-.31-1.38-.06-.14.27.08.73.67,1.37.58.67,1.38,1.35,2.4,2.04.99.68,1.88,1.16,2.67,1.44.82.29,1.3.3,1.44.02Z" fill="#2ecc71"/><path d="M14.32,71.16c.62.65.87,1.11.76,1.4-.14.27-.62.26-1.44-.02-.79-.28-1.68-.76-2.67-1.44-1.02-.69-1.82-1.37-2.4-2.04-.59-.64-.81-1.1-.67-1.37.1-.25.56-.23,1.38.06.75.3,1.64.78,2.67,1.44.99.68,1.78,1.34,2.37,1.98M1.8,70.97c-1.25-3.34.87-5.5,6.34-6.48-1.96.99-3.94,2.93-5.96,5.81l-.4.72v-.05Z" fill="#29b665"/></g></g><g id="legRight_FL_FL_FL_FL_FL_FL"><g id="Symbol_11_0_Layer0_0_FILL-2"><path d="M18.74,86.88l2.4-2.4-12.55-12.55-2.37,2.37-.04.04,12.52,12.52.04.04Z" fill="#e0c1a2"/><path d="M15.2,90.34l3.5-3.5-12.52-12.52.04-.04c-1.27-.42-2.71-.52-4.31-.28l-1.52,1.52,14.81,14.81Z" fill="#aa7e5c"/><path d="M25.24,67.85l-.04-.04c-1.74-1.74-3.81-2.63-6.19-2.65-2.43-.02-4.5.82-6.22,2.55l-4.21,4.21,12.55,12.55,4.21-4.21c1.72-1.72,2.58-3.78,2.58-6.19-.05-2.4-.94-4.48-2.69-6.22Z" fill="#eccfb1"/></g></g><g id="body_FL_FL_FL_FL_FL_FL"><g id="Symbol_10_0_Layer0_0_FILL"><path d="M31.58,62.51l-3.73-13.49,9.1,1.03-5.37,12.46Z" fill="#fafafa"/><path d="M26.01,42.33l1.84,6.69,3.73,13.49-6.62-8.63-2.11-2.8-2.25-2.91,5.42-5.84M36.95,50.06l2.92-6.76,4.56,6.53-12.86,12.69,5.37-12.46M51.29,71.04l-.28,4.09-38.91-2.69.28-4.09,38.91,2.69Z" fill="#8e643a"/><path d="M27.85,49.03l-1.84-6.69,13.87.96-2.92,6.76-9.1-1.03Z" fill="#25a65b"/><path d="M24.96,53.89l6.62,8.63,12.86-12.69-4.56-6.53,13.27.92-1.85,26.84-38.91-2.69,1.85-26.84,11.77.81-5.42,5.84,2.25,2.91-5.44-.38-.18,2.64,7.73.53Z" fill="#c48a51"/><path d="M17.41,50.71l5.44.38,2.11,2.8-7.73-.53.18-2.64Z" fill="#b17d49"/></g><g id="Symbol_10_0_Layer0_1_FILL"><path d="M21.42,61.12c.17.4.32.83.47,1.29.36.08.71.22,1.04.43.32.22.58.48.79.77.47-.02.91-.03,1.34-.01,1.09.02,1.67.19,1.73.51.07.34-.4.73-1.4,1.16-.4.17-.83.32-1.29.47-.06.34-.2.67-.41.97-.22.33-.48.6-.77.79.02.49.03.94.01,1.34-.01,1.14-.19,1.74-.53,1.81-.32.06-.7-.43-1.14-1.48-.18-.38-.34-.81-.5-1.29-.32-.07-.63-.21-.93-.42-.32-.19-.58-.44-.78-.73-.49.05-.95.07-1.37.06-1.14-.01-1.74-.19-1.81-.53-.06-.32.43-.7,1.48-1.14.38-.18.81-.35,1.29-.5.08-.35.22-.69.44-1.01.2-.3.44-.54.71-.74-.03-.49-.04-.97-.03-1.41.02-1.09.19-1.67.51-1.73.34-.07.73.4,1.16,1.4Z" fill="#e05848"/></g><g id="Symbol_10_0_Layer0_2_FILL"><path d="M46.23,53.9c.3.27.51.59.65.95.14.36.2.72.17,1.08.46.23.84.47,1.16.71.89.65,1.28,1.12,1.17,1.42-.15.3-.76.36-1.83.16-.39-.09-.83-.2-1.32-.33-.23.24-.51.44-.85.6-.36.14-.75.2-1.15.18-.21.43-.43.8-.68,1.12-.66.96-1.15,1.37-1.45,1.21-.32-.13-.37-.75-.13-1.87.09-.39.19-.82.3-1.28-.2-.28-.37-.58-.5-.9-.14-.36-.23-.71-.27-1.04-.42-.28-.81-.53-1.2-.74-.91-.67-1.3-1.16-1.14-1.46.11-.3.71-.34,1.8-.12.46.06.93.16,1.43.29.23-.24.53-.43.89-.57.34-.16.66-.22.97-.19.27-.46.53-.87.77-1.24.65-.89,1.14-1.27,1.46-1.14.3.15.34.75.12,1.8-.07.41-.19.87-.36,1.36Z" fill="#e05848"/></g><g id="Symbol_10_0_Layer0_3_FILL"><path d="M33.11,67.18c-.03-.1-.02-.2.02-.3l1.95-3.57s.02-.07.06-.1l2.91-2.91c.04-.06.12-.09.26-.08.1-.03.2,0,.3.07l.62.49c.06.04.11.11.14.21,0,.1-.03.2-.07.3l-2.06,3.72s-.05.06-.06.1l-2.8,2.76c-.07.06-.17.09-.31.08-.1.03-.2,0-.3-.07l-.52-.44c-.06-.07-.11-.16-.13-.26Z" fill="#b17d49"/></g></g><g id="armLeft_FL_FL_FL_FL_FL_FL_FL"><g id="Symbol_8_0_Layer0_0_FILL-2"><path d="M47.26,44.5l.04-.02c.31-.26.63-.48.95-.66,2.87-1.77,7.01-.29,12.43,4.43l3.8,2.89-2.64,1.12-3.6,1.56-.62,3.93-3.81.41-2.35,3.03-.93,1.29c-.01-1.2-.6-2.55-1.77-4.06l-2.36-2.79c-1.41-1.65-2.04-3.57-1.89-5.78.17-2.18,1.08-3.96,2.75-5.34Z" fill="#af7b48"/><path d="M51.47,61.18l2.35-3.03,3.81-.41.62-3.93,3.6-1.56c3.64,4.79,6.38,9.03,8.22,12.75-.79,2.69-2.35,5.03-4.66,7.02-4.53-2.52-9.17-6.14-13.93-10.83Z" fill="#2ecc71"/></g></g><g id="handLeft_FL_FL_FL_FL_FL_FL_FL"><g id="Symbol_9_0_Layer0_0_FILL-2"><path d="M59.11,73.5c-1.48-3.18-2.17-5.87-2.05-8.06l8.63-5.02c.71-.42,1.26-.32,1.66.32l.28.49c4.43,6.98,4.6,11.67.49,14.07-1.44.87-3.02,1.58-4.74,2.12-1.13.38-1.91.21-2.33-.5l-.14-.21c-.49-.87-.97-1.72-1.41-2.55l.04.04-.42-.71M67.53,63.46c-.19-.24-.72-.25-1.59-.04-.85.19-1.81.54-2.9,1.06-1.08.57-1.94,1.1-2.58,1.59-.66.57-.91.95-.74,1.17.16.26.67.29,1.52.11.87-.16,1.86-.52,2.97-1.06,1.08-.52,1.94-1.05,2.58-1.59.66-.57.91-.98.74-1.24Z" fill="#2ecc71"/><path d="M65.94,63.43c.87-.21,1.4-.2,1.59.04.16.26-.08.67-.74,1.24-.64.54-1.5,1.07-2.58,1.59-1.11.54-2.1.9-2.97,1.06-.85.19-1.36.15-1.52-.11-.16-.21.08-.6.74-1.17.64-.49,1.5-1.03,2.58-1.59,1.08-.52,2.05-.87,2.9-1.06M59.5,74.18c-3.51-.59-4.32-3.5-2.44-8.73-.12,2.19.57,4.88,2.05,8.06l.42.71-.04-.04Z" fill="#29b665"/></g></g><g id="head_FL_FL_FL"><g id="Symbol_12_0_Layer0_0_FILL"><path d="M42.99,46.65l-9.6,4.55-9.6-4.55h19.2Z" fill="#25a65b"/><path d="M14.09,21.45c.43-2.97,2.13-4.45,5.1-4.45h30.35c2.93,0,4.63,1.52,5.1,4.55,1,6.87,1,13.73,0,20.6-.47,3-2.17,4.5-5.1,4.5h-30.35c-2.97,0-4.68-1.52-5.15-4.55-1.03-6.73-1.02-13.62.05-20.65Z" fill="#2ecc71"/></g><g id="Symbol_12_0_Layer0_1_FILL"><path d="M40.49,36.5c-1.03,0-1.88-.38-2.55-1.15-.61-.61-.96-1.33-1.05-2.15h7.25c-.11.82-.44,1.54-1,2.15-.73.77-1.62,1.15-2.65,1.15M21.89,36.5c-1.03,0-1.88-.38-2.55-1.15-.61-.61-.96-1.33-1.05-2.15h7.25c-.11.82-.44,1.54-1,2.15-.73.77-1.62,1.15-2.65,1.15Z" fill="#fff"/><path d="M35.74,28.45c.03-.3.15-.53.35-.7.2-.2.43-.28.7-.25,2.63.23,5.12.1,7.45-.4.3-.07.57-.03.8.1.23.13.37.35.4.65.07.27.03.52-.1.75s-.35.38-.65.45c-2.5.53-5.18.68-8.05.45-.27-.03-.5-.15-.7-.35-.17-.2-.23-.43-.2-.7M17.69,27.25c.23-.13.5-.17.8-.1,2.33.5,4.82.63,7.45.4.27-.03.5.05.7.25.2.17.32.4.35.7.03.27-.03.5-.2.7-.2.2-.43.32-.7.35-2.87.23-5.55.08-8.05-.45-.3-.07-.52-.22-.65-.45-.13-.23-.17-.48-.1-.75.03-.3.17-.52.4-.65Z" fill="#7e8991"/></g><g id="Symbol_12_0_Layer0_1_MEMBER_0_FILL"><path d="M25.59,39.2c-.07-.27-.05-.53.05-.8l2.85,2-2.15,2.55v-.05c-.2-.2-.32-.45-.35-.75l-.4-2.95Z" fill="#7f7058"/><path d="M37.44,38.8c.27.27.4.58.4.95.03.37-.05.7-.25,1-.23.3-.53.5-.9.6l-8.85,2.05c-.27.07-.53.07-.8,0-.27-.1-.5-.25-.7-.45l2.15-2.55-2.85-2s.05-.07.05-.1c.13-.3.35-.52.65-.65.27-.17.55-.23.85-.2l9.3.9c.4.03.72.18.95.45Z" fill="#fff"/></g><g id="Symbol_12_0_Layer0_2_FILL"><path d="M48.78,36.19c.02.11,0,.21-.03.3l-1.82,3.84s-.04.07-.06.11l-2.6,2.93c-.07.09-.17.14-.28.14-.11.02-.21,0-.3-.06l-.55-.41c-.07-.06-.13-.13-.17-.22-.02-.11,0-.21.03-.3l1.66-3.73s.04-.05.06-.08l2.71-3.09c.06-.07.14-.12.25-.14.11-.02.21,0,.3.06l.64.44c.07.06.13.13.17.22Z" fill="#28b162"/></g><g id="Symbol_12_0_Layer0_3_FILL"><path d="M45.49,21.1l-2.45-4.1,5.5,5.6-1.4,1.25-1.65-2.75M16.39,23.5h0l8.1,1.45-.6,1.3-7.5-2.75M13.64,34.8l-.35,1.45c-5.38-8.12-7.21-17.2-5.5-27.25h5.35c-2.49,8.61-2.32,17.21.5,25.8M40.54,7.35l-2.9,2.9c-5.76-3.45-12.08-5.8-18.95-7.05,5.84-.89,11.51-.54,17,1.05l-2.85-3.9c6.15-1.08,11.11.35,14.9,4.3l3.65,3.7,2.9-1.25,4.75,11.1c-.57,1.49-.99,2.92-1.25,4.3l-17.25-15.15Z" fill="#717b83"/><polygon points="31.14 23.95 32.84 19.25 43.04 17 45.49 21.1 31.14 23.95" opacity=".1"/><path d="M13.14,9h2.5l-1.85-4.75c1.65-.44,3.28-.79,4.9-1.05,6.87,1.25,13.19,3.6,18.95,7.05l2.9-2.9,17.25,15.15c-.63,2.96-.58,5.66.15,8.1,1.03,3.58-.19,6.8-3.65,9.65l-4.75-8,2.1-6.5-3.1-3.15-5.5-5.6-10.2,2.25-1.7,4.7-.75,2.05-5.9-1.05-8.1-1.45h0l-2.75,11.3c-2.82-8.59-2.99-17.19-.5-25.8Z" fill="#6b747b"/></g></g></g></svg>