<?xml version="1.0" encoding="UTF-8"?><svg id="Calque_2" xmlns="http://www.w3.org/2000/svg" viewBox="0 0 61.73 89.8"><g id="Calque_1-2"><g id="legLeft_FL"><g id="Symbol_11_0_Layer0_0_FILL"><path d="M30.04,84.85v-3.4H12.29v3.4h17.75Z" fill="#e0c1a2"/><path d="M29.99,89.8v-4.95H12.29v-.05c-1.2.6-2.28,1.55-3.25,2.85v2.15h20.95Z" fill="#aa7e5c"/><path d="M21.19,66.8h-.05c-2.47,0-4.55.83-6.25,2.5-1.73,1.7-2.6,3.77-2.6,6.2v5.95h17.75v-5.95c0-2.43-.85-4.5-2.55-6.2-1.73-1.67-3.83-2.5-6.3-2.5Z" fill="#eccfb1"/></g></g><g id="legRight_FL"><g id="Symbol_11_0_Layer0_0_FILL-2"><path d="M33.19,84.85v-3.4h17.75v3.4h-17.75Z" fill="#e0c1a2"/><path d="M33.24,89.8v-4.95h17.7v-.05c1.2.6,2.28,1.55,3.25,2.85v2.15h-20.95Z" fill="#aa7e5c"/><path d="M42.04,66.8h.05c2.47,0,4.55.83,6.25,2.5,1.73,1.7,2.6,3.77,2.6,6.2v5.95h-17.75v-5.95c0-2.43.85-4.5,2.55-6.2,1.73-1.67,3.83-2.5,6.3-2.5Z" fill="#eccfb1"/></g></g><g id="body_FL"><g id="Symbol_10_0_Layer0_0_FILL"><path d="M32.89,63.85l4.65-13.2-9.15.4,4.5,12.8Z" fill="#fafafa"/><path d="M39.84,44.1l-2.3,6.55-4.65,13.2,7.2-8.15,2.3-2.65,2.45-2.75-5-6.2M28.39,51.05l-2.45-6.95-5,6.2,11.95,13.55-4.5-12.8M12.64,71v4.1h39v-4.1H12.64Z" fill="#8e643a"/><path d="M37.54,50.65l2.3-6.55h-13.9l2.45,6.95,9.15-.4Z" fill="#25a65b"/><path d="M40.09,55.7l-7.2,8.15-11.95-13.55,5-6.2h-13.3v26.9h39v-26.9h-11.8l5,6.2-2.45,2.75h5.45v2.65h-7.75Z" fill="#c48a51"/><path d="M47.84,53.05h-5.45l-2.3,2.65h7.75v-2.65Z" fill="#b17d49"/></g><g id="Symbol_10_0_Layer0_1_FILL"><path d="M43.12,63.16c-.2.39-.38.81-.55,1.26-.37.05-.73.17-1.07.36-.33.2-.61.44-.84.71-.46-.06-.91-.09-1.34-.11-1.09-.05-1.68.08-1.76.39-.09.34.35.75,1.32,1.25.38.19.8.38,1.26.55.04.35.16.68.35.99.2.35.44.63.71.84-.06.49-.09.93-.11,1.34-.06,1.14.07,1.75.41,1.84.31.08.73-.38,1.24-1.4.2-.36.4-.78.59-1.25.33-.05.65-.17.96-.36.33-.17.61-.4.83-.68.49.08.95.13,1.37.15,1.14.06,1.75-.07,1.84-.41.08-.31-.38-.73-1.4-1.24-.37-.2-.78-.4-1.25-.59-.05-.35-.18-.7-.37-1.04-.18-.31-.4-.57-.65-.79.07-.49.11-.96.12-1.41.05-1.09-.08-1.68-.39-1.76-.34-.09-.75.35-1.25,1.32Z" fill="#e05848"/></g><g id="Symbol_10_0_Layer0_2_FILL"><path d="M18.86,54.25c-.31.25-.55.55-.72.9-.16.35-.25.71-.24,1.07-.47.2-.87.41-1.2.63-.93.59-1.35,1.03-1.27,1.34.13.31.74.41,1.82.28.4-.07.85-.15,1.34-.24.21.26.48.48.81.66.35.16.73.25,1.14.26.18.44.38.83.6,1.16.6,1.01,1.05,1.44,1.36,1.31.33-.1.42-.72.26-1.86-.07-.4-.14-.83-.21-1.3.22-.27.41-.56.56-.86.16-.35.28-.69.34-1.01.43-.25.85-.47,1.25-.66.96-.61,1.37-1.06,1.24-1.38-.08-.3-.68-.39-1.79-.24-.46.03-.94.09-1.44.19-.21-.26-.5-.47-.85-.63-.32-.18-.64-.27-.96-.26-.24-.48-.47-.91-.69-1.29-.59-.93-1.05-1.35-1.38-1.24-.31.13-.39.73-.24,1.79.04.42.13.88.27,1.39Z" fill="#e05848"/></g><g id="Symbol_10_0_Layer0_3_FILL"><path d="M31.04,68.4c.03-.1.03-.2,0-.3l-1.7-3.7s-.02-.07-.05-.1l-2.7-3.1c-.03-.07-.12-.1-.25-.1-.1-.03-.2-.02-.3.05l-.65.45c-.07.03-.12.1-.15.2,0,.1.02.2.05.3l1.8,3.85s.05.07.05.1l2.6,2.95c.07.07.17.1.3.1.1.03.2.02.3-.05l.55-.4c.07-.07.12-.15.15-.25Z" fill="#b17d49"/></g></g><g id="armLeft_FL_FL"><g id="Symbol_8_0_Layer0_0_FILL"><path d="M15.98,44.43h-.05c-.37-.17-.73-.3-1.09-.4-3.23-.96-6.76,1.22-10.61,6.55l-2.81,3.36,2.83.43,3.87.62,1.69,3.35,3.74-.45,3.09,2.18,1.25.94c-.32-1.06-.14-2.39.54-3.96l1.47-2.97c.88-1.76.95-3.59.18-5.51-.77-1.89-2.14-3.27-4.12-4.14Z" fill="#af7b48"/><path d="M16.66,60.07l-3.09-2.18-3.74.45-1.69-3.35-3.87-.62c-2.13,5-3.55,9.34-4.26,13.01,1.51,2.21,3.65,3.95,6.42,5.22,3.61-3.19,7.02-7.37,10.24-12.53Z" fill="#2ecc71"/></g></g><g id="handLeft_FL_FL"><g id="Symbol_9_0_Layer0_0_FILL"><path d="M13.8,74.48c-.31-3.5-1.06-6.17-2.25-8.01l-9.98-.03c-.82-.01-1.25.35-1.28,1.11v.57c-.35,8.26,1.86,12.4,6.61,12.43,1.68.04,3.4-.14,5.16-.53,1.17-.24,1.76-.77,1.77-1.6l.02-.25c0-1-.02-1.97-.05-2.91v.05s0-.82,0-.82M1.5,69.99c.05-.3.5-.57,1.36-.83.83-.26,1.84-.44,3.04-.53,1.22-.05,2.23-.02,3.03.09.85.16,1.26.37,1.23.64-.01.31-.43.59-1.26.85-.84.29-1.87.48-3.1.57-1.2.09-2.21.06-3.03-.09-.85-.16-1.27-.39-1.26-.7Z" fill="#2ecc71"/><path d="M2.86,69.16c-.86.25-1.31.53-1.36.83-.01.31.41.54,1.26.7.82.15,1.83.18,3.03.09,1.23-.08,2.26-.27,3.1-.57.83-.26,1.25-.54,1.26-.85.04-.27-.37-.48-1.23-.64-.8-.11-1.81-.14-3.03-.09-1.2.09-2.21.27-3.04.53M13.8,75.26c2.75-2.27,2-5.19-2.25-8.78,1.2,1.84,1.95,4.51,2.25,8.01v.82s0-.05,0-.05Z" fill="#29b665"/></g></g><g id="armRight_FL_FL_FL"><g id="Symbol_8_0_Layer0_0_FILL-2"><path d="M45.75,43.43h.05c.37-.17.73-.3,1.09-.4,3.23-.96,6.76,1.22,10.61,6.55l2.81,3.36-2.83.43-3.87.62-1.69,3.35-3.74-.45-3.09,2.18-1.25.94c.32-1.06.14-2.39-.54-3.96l-1.47-2.97c-.88-1.76-.95-3.59-.18-5.51.77-1.89,2.14-3.27,4.12-4.14Z" fill="#af7b48"/><path d="M45.07,59.07l3.09-2.18,3.74.45,1.69-3.35,3.87-.62c2.13,5,3.55,9.34,4.26,13.01-1.51,2.21-3.65,3.95-6.42,5.22-3.61-3.19-7.02-7.37-10.24-12.53Z" fill="#2ecc71"/></g></g><g id="handRight_FL_FL_FL"><g id="Symbol_9_0_Layer0_0_FILL-2"><path d="M47.98,73.93c.31-3.5,1.06-6.17,2.25-8.01l9.98-.03c.82-.01,1.25.35,1.28,1.11v.57c.35,8.26-1.86,12.4-6.61,12.43-1.68.04-3.4-.14-5.16-.53-1.17-.24-1.76-.77-1.77-1.6l-.02-.25c0-1,.02-1.97.05-2.91v.05s0-.82,0-.82M60.29,69.44c-.05-.3-.5-.57-1.36-.83-.83-.26-1.84-.44-3.04-.53-1.22-.05-2.23-.02-3.03.09-.85.16-1.26.37-1.23.64.01.31.43.59,1.26.85.84.29,1.87.48,3.1.57,1.2.09,2.21.06,3.03-.09.85-.16,1.27-.39,1.26-.7Z" fill="#2ecc71"/><path d="M58.93,68.61c.86.25,1.31.53,1.36.83.01.31-.41.54-1.26.7-.82.15-1.83.18-3.03.09-1.23-.08-2.26-.27-3.1-.57-.83-.26-1.25-.54-1.26-.85-.04-.27.37-.48,1.23-.64.8-.11,1.81-.14,3.03-.09,1.2.09,2.21.27,3.04.53M47.98,74.71c-2.75-2.27-2-5.19,2.25-8.78-1.2,1.84-1.95,4.51-2.25,8.01v.82s0-.05,0-.05Z" fill="#29b665"/></g></g><g id="head_FL"><g id="Symbol_12_0_Layer0_0_FILL"><path d="M21.39,46.65l9.6,4.55,9.6-4.55h-19.2Z" fill="#25a65b"/><path d="M50.29,21.45c-.43-2.97-2.13-4.45-5.1-4.45H14.84c-2.93,0-4.63,1.52-5.1,4.55-1,6.87-1,13.73,0,20.6.47,3,2.17,4.5,5.1,4.5h30.35c2.97,0,4.68-1.52,5.15-4.55,1.03-6.73,1.02-13.62-.05-20.65Z" fill="#2ecc71"/></g><g id="Symbol_12_0_Layer0_1_FILL"><path d="M23.89,36.5c1.03,0,1.88-.38,2.55-1.15.61-.61.96-1.33,1.05-2.15h-7.25c.11.82.44,1.54,1,2.15.73.77,1.62,1.15,2.65,1.15M42.49,36.5c1.03,0,1.88-.38,2.55-1.15.61-.61.96-1.33,1.05-2.15h-7.25c.11.82.44,1.54,1,2.15.73.77,1.62,1.15,2.65,1.15Z" fill="#fff"/><path d="M28.64,28.45c-.03-.3-.15-.53-.35-.7-.2-.2-.43-.28-.7-.25-2.63.23-5.12.1-7.45-.4-.3-.07-.57-.03-.8.1-.23.13-.37.35-.4.65-.07.27-.03.52.1.75s.35.38.65.45c2.5.53,5.18.68,8.05.45.27-.03.5-.15.7-.35.17-.2.23-.43.2-.7M46.69,27.25c-.23-.13-.5-.17-.8-.1-2.33.5-4.82.63-7.45.4-.27-.03-.5.05-.7.25-.2.17-.32.4-.35.7-.03.27.03.5.2.7.2.2.43.32.7.35,2.87.23,5.55.08,8.05-.45.3-.07.52-.22.65-.45.13-.23.17-.48.1-.75-.03-.3-.17-.52-.4-.65Z" fill="#7e8991"/></g><g id="Symbol_12_0_Layer0_1_MEMBER_0_FILL"><path d="M38.79,39.2c.07-.27.05-.53-.05-.8l-2.85,2,2.15,2.55v-.05c.2-.2.32-.45.35-.75l.4-2.95Z" fill="#7f7058"/><path d="M26.94,38.8c-.27.27-.4.58-.4.95-.03.37.05.7.25,1,.23.3.53.5.9.6l8.85,2.05c.27.07.53.07.8,0,.27-.1.5-.25.7-.45l-2.15-2.55,2.85-2s-.05-.07-.05-.1c-.13-.3-.35-.52-.65-.65-.27-.17-.55-.23-.85-.2l-9.3.9c-.4.03-.72.18-.95.45Z" fill="#fff"/></g><g id="Symbol_12_0_Layer0_2_FILL"><path d="M15.6,36.19c-.02.11,0,.21.03.3l1.82,3.84s.04.07.06.11l2.6,2.93c.07.09.17.14.28.14.11.02.21,0,.3-.06l.55-.41c.07-.06.13-.13.17-.22.02-.11,0-.21-.03-.3l-1.66-3.73s-.04-.05-.06-.08l-2.71-3.09c-.06-.07-.14-.12-.25-.14-.11-.02-.21,0-.3.06l-.64.44c-.07.06-.13.13-.17.22Z" fill="#28b162"/></g><g id="Symbol_12_0_Layer0_3_FILL"><path d="M18.89,21.1l2.45-4.1-5.5,5.6,1.4,1.25,1.65-2.75M47.99,23.5h0l-8.1,1.45.6,1.3,7.5-2.75M50.74,34.8l.35,1.45c5.38-8.12,7.21-17.2,5.5-27.25h-5.35c2.49,8.61,2.32,17.21-.5,25.8M23.84,7.35l2.9,2.9c5.76-3.45,12.08-5.8,18.95-7.05-5.84-.89-11.51-.54-17,1.05l2.85-3.9c-6.15-1.08-11.11.35-14.9,4.3l-3.65,3.7-2.9-1.25-4.75,11.1c.57,1.49.99,2.92,1.25,4.3L23.84,7.35Z" fill="#717b83"/><path d="M33.24,23.95l-1.7-4.7-10.2-2.25-2.45,4.1,14.35,2.85Z"/><path d="M51.24,9h-2.5l1.85-4.75c-1.65-.44-3.28-.79-4.9-1.05-6.87,1.25-13.19,3.6-18.95,7.05l-2.9-2.9L6.59,22.5c.63,2.96.58,5.66-.15,8.1-1.03,3.58.19,6.8,3.65,9.65l4.75-8-2.1-6.5,3.1-3.15,5.5-5.6,10.2,2.25,1.7,4.7.75,2.05,5.9-1.05,8.1-1.45h0l2.75,11.3c2.82-8.59,2.99-17.19.5-25.8Z" fill="#6b747b"/></g></g></g></svg>