<?xml version="1.0" encoding="UTF-8"?><svg id="Calque_2" xmlns="http://www.w3.org/2000/svg" viewBox="0 0 61.73 88.3"><g id="Calque_1-2"><g id="armLeft_FL_FL_FL_FL_FL_FL_FL_FL_FL_FL_FL_FL_FL_FL_FL_FL_FL_FL_FL_FL"><g id="Symbol_8_0_Layer0_0_FILL"><path d="M15.98,42.93h-.05c-.37-.17-.73-.3-1.09-.4-3.23-.96-6.76,1.22-10.61,6.55l-2.81,3.36,2.83.43,3.87.62,1.69,3.35,3.74-.45,3.09,2.18,1.25.94c-.32-1.06-.14-2.39.54-3.96l1.47-2.97c.88-1.76.95-3.59.18-5.51-.77-1.89-2.14-3.27-4.12-4.14Z" fill="#af7b48"/><path d="M16.66,58.57l-3.09-2.18-3.74.45-1.69-3.35-3.87-.62c-2.13,5-3.55,9.34-4.26,13.01,1.51,2.21,3.65,3.95,6.42,5.22,3.61-3.19,7.02-7.37,10.24-12.53Z" fill="#2ecc71"/></g></g><g id="handLeft_FL_FL_FL_FL_FL_FL_FL_FL_FL_FL_FL_FL_FL_FL_FL_FL_FL_FL_FL_FL"><g id="Symbol_9_0_Layer0_0_FILL"><path d="M14,72.18c-.31-3.5-1.06-6.17-2.25-8.01l-9.98-.03c-.82-.01-1.25.35-1.28,1.11v.57c-.35,8.26,1.86,12.4,6.61,12.43,1.68.04,3.4-.14,5.16-.53,1.17-.24,1.76-.77,1.77-1.6l.02-.25c0-1-.02-1.97-.05-2.91v.05s0-.82,0-.82M1.7,67.69c.05-.3.5-.57,1.36-.83.83-.26,1.84-.44,3.04-.53,1.22-.05,2.23-.02,3.03.09.85.16,1.26.37,1.23.64-.01.31-.43.59-1.26.85-.84.29-1.87.48-3.1.57-1.2.09-2.21.06-3.03-.09-.85-.16-1.27-.39-1.26-.7Z" fill="#2ecc71"/><path d="M3.06,66.86c-.86.25-1.31.53-1.36.83-.01.31.41.54,1.26.7.82.15,1.83.18,3.03.09,1.23-.08,2.26-.27,3.1-.57.83-.26,1.25-.54,1.26-.85.04-.27-.37-.48-1.23-.64-.8-.11-1.81-.14-3.03-.09-1.2.09-2.21.27-3.04.53M14,72.96c2.75-2.27,2-5.19-2.25-8.78,1.2,1.84,1.95,4.51,2.25,8.01v.82s0-.05,0-.05Z" fill="#29b665"/></g></g><g id="armRight_FL_FL_FL_FL_FL_FL_FL_FL_FL_FL_FL_FL_FL_FL_FL_FL_FL_FL_FL_FL_FL_FL_FL"><g id="Symbol_8_0_Layer0_0_FILL-2"><path d="M45.75,41.93h.05c.37-.17.73-.3,1.09-.4,3.23-.96,6.76,1.22,10.61,6.55l2.81,3.36-2.83.43-3.87.62-1.69,3.35-3.74-.45-3.09,2.18-1.25.94c.32-1.06.14-2.39-.54-3.96l-1.47-2.97c-.88-1.76-.95-3.59-.18-5.51.77-1.89,2.14-3.27,4.12-4.14Z" fill="#af7b48"/><path d="M45.07,57.57l3.09-2.18,3.74.45,1.69-3.35,3.87-.62c2.13,5,3.55,9.34,4.26,13.01-1.51,2.21-3.65,3.95-6.42,5.22-3.61-3.19-7.02-7.37-10.24-12.53Z" fill="#2ecc71"/></g></g><g id="handRight_FL_FL_FL_FL_FL_FL_FL_FL_FL_FL_FL_FL_FL_FL_FL_FL_FL_FL_FL_FL_FL_FL"><g id="Symbol_9_0_Layer0_0_FILL-2"><path d="M47.98,72.43c.31-3.5,1.06-6.17,2.25-8.01l9.98-.03c.82-.01,1.25.35,1.28,1.11v.57c.35,8.26-1.86,12.4-6.61,12.43-1.68.04-3.4-.14-5.16-.53-1.17-.24-1.76-.77-1.77-1.6l-.02-.25c0-1,.02-1.97.05-2.91v.05s0-.82,0-.82M60.29,67.94c-.05-.3-.5-.57-1.36-.83-.83-.26-1.84-.44-3.04-.53-1.22-.05-2.23-.02-3.03.09-.85.16-1.26.37-1.23.64.01.31.43.59,1.26.85.84.29,1.87.48,3.1.57,1.2.09,2.21.06,3.03-.09.85-.16,1.27-.39,1.26-.7Z" fill="#2ecc71"/><path d="M58.93,67.11c.86.25,1.31.53,1.36.83.01.31-.41.54-1.26.7-.82.15-1.83.18-3.03.09-1.23-.08-2.26-.27-3.1-.57-.83-.26-1.25-.54-1.26-.85-.04-.27.37-.48,1.23-.64.8-.11,1.81-.14,3.03-.09,1.2.09,2.21.27,3.04.53M47.98,73.21c-2.75-2.27-2-5.19,2.25-8.78-1.2,1.84-1.95,4.51-2.25,8.01v.82s0-.05,0-.05Z" fill="#29b665"/></g></g><g id="legLeft_FL_FL_FL_FL_FL_FL_FL_FL_FL_FL_FL_FL_FL_FL_FL_FL_FL_FL_FL"><g id="Symbol_11_0_Layer0_0_FILL"><path d="M30.04,83.35v-3.4H12.29v3.4h17.75Z" fill="#e0c1a2"/><path d="M29.99,88.3v-4.95H12.29v-.05c-1.2.6-2.28,1.55-3.25,2.85v2.15h20.95Z" fill="#aa7e5c"/><path d="M21.19,65.3h-.05c-2.47,0-4.55.83-6.25,2.5-1.73,1.7-2.6,3.77-2.6,6.2v5.95h17.75v-5.95c0-2.43-.85-4.5-2.55-6.2-1.73-1.67-3.83-2.5-6.3-2.5Z" fill="#eccfb1"/></g></g><g id="legRight_FL_FL_FL_FL_FL_FL_FL_FL_FL_FL_FL_FL_FL_FL_FL_FL_FL_FL_FL_FL"><g id="Symbol_11_0_Layer0_0_FILL-2"><path d="M33.19,83.35v-3.4h17.75v3.4h-17.75Z" fill="#e0c1a2"/><path d="M33.24,88.3v-4.95h17.7v-.05c1.2.6,2.28,1.55,3.25,2.85v2.15h-20.95Z" fill="#aa7e5c"/><path d="M42.04,65.3h.05c2.47,0,4.55.83,6.25,2.5,1.73,1.7,2.6,3.77,2.6,6.2v5.95h-17.75v-5.95c0-2.43.85-4.5,2.55-6.2,1.73-1.67,3.83-2.5,6.3-2.5Z" fill="#eccfb1"/></g></g><g id="Symbol_18_0_Layer0_0_FILL"><path d="M51.64,41.6H12.64v26.9h39v-26.9Z" fill="#c48a51"/><path d="M12.64,68.5v4.1h39v-4.1H12.64Z" fill="#8e643a"/></g><g id="Symbol_18_0_Layer0_1_FILL"><path d="M43.79,47.45l-2.7-3.1c-.03-.07-.12-.1-.25-.1-.1-.03-.2-.02-.3.05l-.65.45c-.07.03-.12.1-.15.2,0,.1.02.2.05.3l1.8,3.85s.05.07.05.1l2.6,2.95c.07.07.17.1.3.1.1.03.2.02.3-.05l.55-.4c.07-.07.12-.15.15-.25.03-.1.03-.2,0-.3l-1.7-3.7s-.02-.07-.05-.1Z" fill="#b17d49"/></g><g id="Symbol_18_0_Layer0_2_FILL"><path d="M25.06,60.33c-.02.1-.05.19-.1.29l-2.39,3.51s-.06.06-.07.09l-3.04,2.5c-.08.06-.18.07-.31.05-.1.02-.2-.02-.29-.1l-.48-.48c-.06-.08-.09-.17-.11-.27-.02-.1,0-.2.05-.3l2.27-3.38s.03-.06.07-.09l3.16-2.63c.04-.06.13-.08.26-.06.1-.02.2.02.29.1l.57.55c.06.04.1.12.12.22Z" fill="#b17d49"/></g><g id="Symbol_18_0_Layer0_3_FILL"><path d="M38.46,63.1c.26.22.84.04,1.76-.54.33-.23.69-.5,1.1-.81.31.14.64.22,1.02.24.39,0,.77-.1,1.14-.27.35.32.7.58,1.05.78.98.64,1.58.83,1.8.58.25-.24.06-.83-.59-1.78-.23-.33-.49-.69-.76-1.08.08-.34.12-.68.13-1.02,0-.39-.05-.74-.14-1.06.28-.42.56-.8.83-1.14.6-.96.77-1.56.51-1.78-.21-.24-.78-.05-1.71.57-.4.23-.81.5-1.21.8-.31-.14-.65-.2-1.04-.2-.37-.02-.7.04-.97.19-.43-.32-.82-.61-1.18-.85-.94-.58-1.53-.75-1.78-.51-.22.26-.03.83.57,1.71.22.36.5.73.85,1.13-.17.36-.25.74-.25,1.13,0,.39.09.74.25,1.07-.34.38-.6.75-.8,1.09-.58.94-.76,1.52-.55,1.76Z" fill="#e05848"/></g><g id="Symbol_17_0_Layer0_0_FILL"><path d="M20.74,46.65l9.6,4.55,9.6-4.55h-19.2Z" fill="#25a65b"/><path d="M49.64,21.45c-.43-2.97-2.13-4.45-5.1-4.45H14.19c-2.93,0-4.63,1.52-5.1,4.55-1,6.87-1,13.73,0,20.6.47,3,2.17,4.5,5.1,4.5h30.35c2.97,0,4.68-1.52,5.15-4.55,1.03-6.73,1.02-13.62-.05-20.65Z" fill="#2ecc71"/></g><g id="Symbol_17_0_Layer0_1_FILL"><path d="M49.94,4.25c-1.65-.44-3.28-.79-4.9-1.05-6.87,1.25-13.19,3.6-18.95,7.05l-2.9-2.9L5.94,22.5c.49,2.31.56,4.46.2,6.45-.07.56-.19,1.11-.35,1.65-1.03,3.58,0,6.55,3.05,8.9h6.45l5.15,4.4,10.45-6.5,3.8,2,5.75-3.75,7.35,10.45c2.52-2.88,3.4-6.16,2.65-9.85l-.35-1.45c2.82-8.59,2.99-17.19.5-25.8h-2.5l1.85-4.75M47.34,23.5h0l-7.5,2.75-.6-1.3,8.1-1.45M16.59,23.85l-1.4-1.25,5.5-5.6-4.1,6.85Z" fill="#6b747b"/><path d="M15.19,22.6l1.4,1.25,4.1-6.85-5.5,5.6M47.34,23.5h0l-8.1,1.45.6,1.3,7.5-2.75Z" fill="#79838c"/><path d="M50.09,34.8l.35,1.45c5.38-8.12,7.21-17.2,5.5-27.25h-5.35c2.49,8.61,2.32,17.21-.5,25.8M23.19,7.35l2.9,2.9c5.76-3.45,12.08-5.8,18.95-7.05-5.84-.89-11.51-.54-17,1.05l2.85-3.9c-6.15-1.08-11.11.35-14.9,4.3l-3.65,3.7-2.9-1.25-4.75,11.1c.57,1.49.99,2.92,1.25,4.3L23.19,7.35Z" fill="#717b83"/></g></g></svg>