<?xml version="1.0" encoding="UTF-8"?><svg id="Calque_2" xmlns="http://www.w3.org/2000/svg" viewBox="0 0 57.16 88.15"><g id="Calque_1-2"><g id="armLeft"><g id="Symbol_8_0_Layer0_0_FILL"><path d="M44.74,48.57l-.04-.02c-.37-.12-.72-.27-1.04-.46-2.96-1.57-4.05-6.9-3.27-16.01l.21-6.06,2.32,1.83,3.19,2.48,3.44-2.37,2.39,3.56,3.67.08,1.52-.03c-.94.93-1.69,2.56-2.24,4.89l-.92,4.53c-.53,2.69-1.71,4.8-3.53,6.32-1.81,1.48-3.71,1.91-5.71,1.27Z" fill="#af7b48"/><path d="M55.61,31.6l-3.67-.08-2.39-3.56-3.44,2.37-3.19-2.48c1.79-7.34,3.65-13.36,5.58-18.06,2.56-1.24,5.25-1.44,8.08-.6.47,6.53.15,14-.96,22.41Z" fill="#2ecc71"/></g></g><g id="handLeft"><g id="Symbol_9_0_Layer0_0_FILL"><path d="M43.38,7.21c.31,3.5,1.06,6.17,2.25,8.01l9.98.03c.82.01,1.25-.35,1.28-1.11v-.57c.35-8.26-1.86-12.4-6.61-12.43-1.68-.04-3.4.14-5.16.53-1.17.24-1.76.77-1.77,1.6l-.02.25c0,1,.02,1.97.05,2.91v-.05s0,.82,0,.82M55.69,11.7c-.05.3-.5.57-1.36.83-.83.26-1.84.44-3.04.53-1.22.05-2.23.02-3.03-.09-.85-.16-1.26-.37-1.23-.64.01-.31.43-.59,1.26-.85.84-.29,1.87-.48,3.1-.57,1.2-.09,2.21-.06,3.03.09.85.16,1.27.39,1.26.7Z" fill="#2ecc71"/><path d="M54.33,12.53c.86-.25,1.31-.53,1.36-.83.01-.31-.41-.54-1.26-.7-.82-.15-1.83-.18-3.03-.09-1.23.08-2.26.27-3.1.57-.83.26-1.25.54-1.26.85-.04.27.37.48,1.23.64.8.11,1.81.14,3.03.09,1.2-.09,2.21-.27,3.04-.53M43.38,6.44c-2.75,2.27-2,5.19,2.25,8.78-1.2-1.84-1.95-4.51-2.25-8.01v-.82s0,.05,0,.05Z" fill="#29b665"/></g></g><g id="armRight"><g id="Symbol_8_0_Layer0_0_FILL-2"><path d="M17.37,48.87l.03-.04c.29-.28.55-.56.79-.84,2.2-2.55,2.13-6.3-.2-11.25l-1.29-3.47-1.62,2.36-2.23,3.22-3.33.49-1.36,3.42-3.07,2.07-1.29.82c.96.03,1.89.58,2.79,1.65l1.61,2.17c.94,1.3,2.32,1.9,4.14,1.8,1.8-.12,3.48-.91,5.04-2.39Z" fill="#af7b48"/><path d="M5.08,44.82l3.07-2.07,1.36-3.42,3.33-.49,2.23-3.22c-2.87-3.35-5.55-5.89-8.03-7.6-2.38.67-4.68,2.03-6.91,4.08.81,4.11,2.46,8.35,4.95,12.71Z" fill="#2ecc71"/></g></g><g id="handRight"><g id="Symbol_9_0_Layer0_0_FILL-2"><path d="M14.93,29.09c-1.23,3.29-2.67,5.66-4.32,7.11l-9.62-2.64c-.8-.21-1.11-.68-.94-1.41l.16-.55c1.88-8.05,5.11-11.45,9.7-10.21,1.63.42,3.24,1.05,4.83,1.9,1.06.54,1.49,1.21,1.28,2.01l-.05.25c-.28.96-.55,1.89-.83,2.79v-.05s-.21.8-.21.8M1.87,30.11c-.04.3.33.69,1.09,1.16.73.47,1.66.92,2.79,1.33,1.16.38,2.14.62,2.94.73.87.08,1.32-.02,1.35-.29.07-.3-.26-.69-.99-1.16-.73-.51-1.67-.97-2.84-1.38-1.13-.41-2.11-.65-2.94-.73-.87-.08-1.33.04-1.4.34Z" fill="#2ecc71"/><path d="M2.96,31.27c-.76-.47-1.12-.86-1.09-1.16.07-.3.54-.41,1.4-.34.83.07,1.81.32,2.94.73,1.16.41,2.11.87,2.84,1.38.73.47,1.06.86.99,1.16-.04.27-.49.36-1.35.29-.8-.11-1.78-.35-2.94-.73-1.13-.41-2.06-.85-2.79-1.33M15.13,28.34c2.04,2.92.53,5.54-4.53,7.86,1.65-1.45,3.09-3.82,4.32-7.11l.21-.8v.05Z" fill="#29b665"/></g></g><g id="Symbol_18_0_Layer0_0_FILL"><path d="M48.74,43.62l-38.49-6.2v26.9l38.49,6.2v-26.9Z" fill="#c48a51"/><path d="M10.24,64.32v4.1l38.49,6.2v-4.1l-38.49-6.2Z" fill="#8e643a"/></g><g id="Symbol_18_0_Layer0_1_FILL"><path d="M40.99,48.22l-2.66-3.53c-.03-.07-.12-.12-.25-.14-.1-.05-.2-.05-.3,0l-.64.35c-.07.02-.12.08-.15.18,0,.1.02.2.05.31l1.78,4.14s.05.07.05.11l2.57,3.36c.07.08.16.13.3.15.1.05.2.05.3,0l.54-.31c.07-.06.12-.13.15-.23.03-.09.03-.19,0-.3l-1.68-3.97s-.02-.07-.05-.11Z" fill="#b17d49"/></g><g id="Symbol_18_0_Layer0_2_FILL"><path d="M22.5,58.13c-.02.1-.05.19-.1.27l-2.36,3.13s-.06.05-.06.08l-3,2.01c-.08.04-.18.04-.31,0-.1,0-.2-.05-.28-.14l-.47-.56c-.05-.09-.09-.18-.11-.29-.02-.11,0-.2.05-.29l2.24-3.02s.03-.06.06-.08l3.12-2.13c.04-.05.13-.06.26-.02.1,0,.2.05.28.14l.56.64c.06.05.1.13.11.24Z" fill="#b17d49"/></g><g id="Symbol_18_0_Layer0_3_FILL"><path d="M35.72,63.03c.25.27.83.18,1.73-.26.32-.18.69-.39,1.09-.63.3.19.64.32,1,.4.38.06.76.03,1.12-.09.35.38.7.69,1.04.95.96.8,1.56,1.08,1.78.86.25-.2.06-.82-.58-1.88-.23-.36-.48-.76-.75-1.2.08-.33.12-.66.13-1,0-.39-.05-.75-.14-1.08.28-.37.55-.71.82-1.01.59-.87.76-1.44.5-1.7-.21-.27-.77-.17-1.69.3-.4.17-.8.37-1.2.61-.3-.19-.64-.31-1.03-.36-.37-.08-.69-.07-.96.03-.42-.39-.81-.74-1.17-1.04-.92-.73-1.51-.99-1.76-.79-.22.22-.03.82.56,1.8.21.39.49.81.84,1.26-.17.34-.25.7-.24,1.09,0,.39.09.76.25,1.11-.33.33-.6.65-.79.97-.57.84-.75,1.4-.55,1.67Z" fill="#e05848"/></g><g id="legRight_FL_FL_FL_FL_FL_FL_FL_FL_FL_FL_FL_FL_FL_FL_FL_FL_FL_FL_FL_FL_FL_FL"><g id="Symbol_11_0_Layer0_0_FILL"><path d="M25.77,69.84l-1-3.24-16.72,6.17.98,3.19v.05s16.69-6.15,16.69-6.15l.05-.02Z" fill="#e0c1a2"/><path d="M27.18,74.58l-1.45-4.72-16.68,6.15v-.05c-.97.99-1.71,2.27-2.24,3.85l.63,2.05,19.74-7.28Z" fill="#aa7e5c"/><path d="M12.13,55.72l-.05.02c-2.32.86-4.04,2.38-5.15,4.56-1.13,2.22-1.34,4.49-.63,6.81l1.75,5.67,16.72-6.17-1.75-5.67c-.71-2.32-2.12-3.99-4.22-5.02-2.12-.99-4.35-1.05-6.67-.19Z" fill="#eccfb1"/></g></g><g id="legLeft_FL_FL_FL_FL_FL_FL_FL_FL_FL_FL_FL_FL_FL_FL_FL_FL_FL_FL_FL_FL_FL"><g id="Symbol_11_0_Layer0_0_FILL-2"><path d="M31.5,77.31l.45-3.41,17.05,4.96-.44,3.36v.05s-17.01-4.95-17.01-4.95h-.05Z" fill="#e0c1a2"/><path d="M30.9,82.29l.65-4.97,17,4.95v-.05c1.08.94,2,2.19,2.75,3.77l-.28,2.16-20.12-5.85Z" fill="#aa7e5c"/><path d="M42.37,61.68h.05c2.37.7,4.26,2.12,5.68,4.27,1.44,2.19,2,4.5,1.69,6.95l-.78,5.97-17.05-4.96.78-5.97c.32-2.44,1.41-4.28,3.26-5.51,1.88-1.19,4.01-1.44,6.38-.75Z" fill="#eccfb1"/></g></g><g id="Symbol_17_0_Layer0_0_FILL"><path d="M38.81,47.08l-9.94,3.74-9.19-5.33,19.13,1.59Z" fill="#25a65b"/><path d="M12.1,19.58c.68-2.92,2.49-4.26,5.45-4.01l30.25,2.51c2.92.24,4.49,1.89,4.71,4.96.43,6.93-.14,13.77-1.7,20.53-.71,2.95-2.53,4.31-5.45,4.06l-6.53-.54-19.13-1.59-4.58-.38c-2.96-.25-4.54-1.9-4.76-4.96-.47-6.8.11-13.65,1.76-20.57Z" fill="#2ecc71"/></g><g id="Symbol_17_0_Layer0_1_FILL"><path d="M13.22,2.41c1.68-.3,3.33-.52,4.97-.64,6.74,1.82,12.84,4.68,18.3,8.59l3.13-2.65,15.94,16.52c-.68,2.26-.93,4.4-.73,6.41.03.57.1,1.12.21,1.67.73,3.65-.53,6.52-3.77,8.62l-6.43-.53-5.5,3.96-9.88-7.34-3.95,1.68-5.42-4.21-8.19,9.81c-2.27-3.07-2.88-6.42-1.83-10.04l.47-1.42c-2.11-8.8-1.56-17.38,1.63-25.75l2.49.21-1.45-4.89M14.22,21.81h0l7.25,3.36.71-1.25-7.95-2.11M44.83,24.7l1.5-1.13-5.02-6.04,3.52,7.17Z" fill="#6b747b"/><path d="M46.33,23.57l-1.5,1.13-3.52-7.17,5.02,6.04M14.22,21.81h0l7.95,2.11-.71,1.25-7.25-3.36Z" fill="#79838c"/><path d="M10.54,32.85l-.47,1.42c-4.69-8.53-5.76-17.74-3.23-27.61l5.33.44c-3.19,8.37-3.74,16.96-1.63,25.75M39.62,7.71l-3.13,2.65c-5.46-3.91-11.56-6.77-18.3-8.59,5.9-.4,11.51.42,16.85,2.45L32.52.1c6.22-.57,11.05,1.27,14.49,5.52l3.33,3.99,2.99-1.01,3.82,11.45c-.69,1.44-1.23,2.83-1.6,4.18l-15.94-16.52Z" fill="#717b83"/></g></g></svg>