<?xml version="1.0" encoding="UTF-8"?><svg id="Calque_2" xmlns="http://www.w3.org/2000/svg" viewBox="0 0 57.09 91.2"><g id="Calque_1-2"><g id="legLeft_FL_FL_FL_FL_FL_FL_FL"><g id="Symbol_11_0_Layer0_0_FILL"><path d="M47.49,75.27l-1.7-2.94-15.37,8.88,1.67,2.9.03.04,15.33-8.85.04-.03Z" fill="#e0c1a2"/><path d="M49.92,79.58l-2.47-4.29-15.33,8.85-.03-.04c-.74,1.12-1.2,2.48-1.39,4.09l1.07,1.86,18.14-10.47Z" fill="#aa7e5c"/><path d="M30.8,64.06l-.04.03c-2.14,1.23-3.52,3-4.16,5.29-.65,2.34-.37,4.56.85,6.67l2.98,5.15,15.37-8.88-2.98-5.15c-1.22-2.11-2.99-3.47-5.31-4.09-2.33-.58-4.57-.25-6.71.98Z" fill="#eccfb1"/></g></g><g id="armRight_FL_FL_FL_FL_FL_FL_FL_FL_FL"><g id="Symbol_8_0_Layer0_0_FILL"><path d="M11.84,43.85l-.05.02c-.4.08-.77.18-1.11.31-3.18,1.1-4.66,5.24-4.44,12.43l-.17,4.77,2.54-1.34,3.49-1.8,3.44,2.01,2.72-2.69,3.83.1,1.59.09c-.92-.77-1.59-2.08-2.03-3.94l-.67-3.6c-.38-2.14-1.47-3.84-3.28-5.12-1.79-1.25-3.75-1.66-5.87-1.25Z" fill="#af7b48"/><path d="M22.1,57.66l-3.83-.1-2.72,2.69-3.44-2.01-3.49,1.8c1.4,5.85,2.96,10.66,4.66,14.43,2.59,1.09,5.38,1.37,8.39.83.91-5.1,1.05-10.99.43-17.65Z" fill="#2ecc71"/></g></g><g id="handRight_FL_FL_FL_FL_FL_FL_FL_FL_FL"><g id="Symbol_9_0_Layer0_0_FILL"><path d="M10.31,73.3c.86-3.4,2.04-5.92,3.51-7.54l9.86,1.57c.82.12,1.18.55,1.09,1.3l-.09.56c-.98,8.21-3.83,11.94-8.52,11.21-1.67-.23-3.34-.69-5.01-1.36-1.11-.42-1.61-1.04-1.49-1.86l.02-.25c.17-.99.34-1.94.52-2.87v.05s.12-.82.12-.82M23.18,70.85c0-.3-.4-.65-1.21-1.03-.78-.39-1.75-.73-2.92-1.01-1.2-.25-2.2-.38-3.01-.4-.87.02-1.31.16-1.31.43-.04.31.33.65,1.11,1.04.78.42,1.77.78,2.97,1.06,1.17.28,2.17.42,3.01.4.87-.02,1.32-.18,1.36-.49Z" fill="#2ecc71"/><path d="M21.97,69.81c.81.39,1.21.73,1.21,1.03-.04.31-.49.47-1.36.49-.84.02-1.84-.12-3.01-.4-1.2-.28-2.19-.63-2.97-1.06-.78-.39-1.15-.74-1.11-1.04,0-.27.44-.41,1.31-.43.81.02,1.81.15,3.01.4,1.17.28,2.14.62,2.92,1.01M10.18,74.06c-2.35-2.68-1.13-5.45,3.64-8.31-1.48,1.62-2.65,4.14-3.51,7.54l-.12.82v-.05Z" fill="#29b665"/></g></g><g id="legRight_FL_FL_FL_FL_FL_FL_FL"><g id="Symbol_11_0_Layer0_0_FILL-2"><path d="M34.52,86.25v-3.4h-17.75v3.4h17.75Z" fill="#e0c1a2"/><path d="M34.47,91.2v-4.95h-17.7v-.05c-1.2.6-2.28,1.55-3.25,2.85v2.15h20.95Z" fill="#aa7e5c"/><path d="M25.67,68.2h-.05c-2.47,0-4.55.83-6.25,2.5-1.73,1.7-2.6,3.77-2.6,6.2v5.95h17.75v-5.95c0-2.43-.85-4.5-2.55-6.2-1.73-1.67-3.83-2.5-6.3-2.5Z" fill="#eccfb1"/></g></g><g id="body_FL_FL_FL_FL_FL_FL_FL"><g id="Symbol_10_0_Layer0_0_FILL"><path d="M28.27,62.65l-5.17-13.01,9.16.04-3.99,12.97Z" fill="#fafafa"/><path d="M20.55,43.19l2.56,6.45,5.17,13.01-7.52-7.86-2.4-2.56-2.56-2.65,4.75-6.39M32.26,49.68l2.17-7.04,5.24,6-11.41,14.01,3.99-12.97M48.79,68.99l.16,4.1-38.97,1.54-.16-4.1,38.97-1.54Z" fill="#8e643a"/><path d="M23.1,49.64l-2.56-6.45,13.89-.55-2.17,7.04-9.16-.04Z" fill="#25a65b"/><path d="M20.75,54.79l7.52,7.86,11.41-14.01-5.24-6,13.29-.52,1.06,26.88-38.97,1.54-1.06-26.88,11.79-.47-4.75,6.39,2.56,2.65-5.45.21.1,2.65,7.74-.31Z" fill="#c48a51"/><path d="M12.91,52.45l5.45-.21,2.4,2.56-7.74.31-.1-2.65Z" fill="#b17d49"/></g><g id="Symbol_10_0_Layer0_1_FILL"><path d="M18.02,62.36c.21.38.41.79.6,1.23.37.04.73.14,1.08.32.34.19.63.41.87.68.46-.07.91-.13,1.34-.16,1.09-.1,1.68.01,1.78.32.1.33-.32.77-1.27,1.31-.38.21-.79.41-1.23.6-.03.35-.13.69-.31,1.01-.19.35-.41.64-.68.87.07.48.13.93.16,1.34.11,1.13,0,1.75-.34,1.85-.31.1-.74-.35-1.29-1.35-.22-.36-.43-.76-.64-1.22-.33-.03-.65-.14-.97-.32-.34-.16-.62-.37-.86-.65-.49.1-.94.17-1.36.2-1.13.11-1.75,0-1.85-.34-.1-.31.35-.74,1.35-1.29.36-.22.77-.43,1.22-.64.04-.36.15-.71.33-1.05.17-.32.37-.59.62-.81-.09-.49-.15-.96-.18-1.4-.1-1.09.01-1.68.32-1.78.33-.1.77.32,1.31,1.27Z" fill="#e05848"/></g><g id="Symbol_10_0_Layer0_2_FILL"><path d="M41.91,52.5c.32.24.57.53.75.88.18.35.27.7.29,1.06.48.18.89.37,1.23.58.95.55,1.39.98,1.32,1.29-.12.32-.72.44-1.81.35-.4-.05-.85-.11-1.35-.19-.2.27-.46.5-.78.69-.35.18-.72.28-1.13.3-.16.45-.35.84-.56,1.19-.56,1.03-.99,1.48-1.31,1.36-.34-.09-.45-.71-.33-1.85.05-.4.1-.84.16-1.31-.23-.26-.43-.54-.6-.84-.18-.35-.31-.68-.38-1-.44-.23-.87-.44-1.27-.61-.98-.57-1.41-1.01-1.3-1.33.07-.31.67-.41,1.78-.31.46.01.95.05,1.45.13.2-.27.48-.49.82-.67.32-.2.63-.3.95-.3.22-.49.43-.93.63-1.31.55-.95.99-1.39,1.33-1.3.32.12.42.71.31,1.78-.02.42-.09.88-.21,1.4Z" fill="#e05848"/></g><g id="Symbol_10_0_Layer0_3_FILL"><path d="M30.3,67.12c-.04-.1-.04-.2-.01-.3l1.55-3.76s.01-.07.05-.1l2.58-3.2c.03-.07.11-.1.25-.11.1-.04.2-.02.3.04l.67.42c.07.03.12.1.16.19,0,.1,0,.2-.04.3l-1.65,3.92s-.05.07-.05.1l-2.48,3.05c-.06.07-.16.11-.3.11-.1.04-.2.02-.3-.04l-.57-.38c-.07-.06-.12-.15-.16-.24Z" fill="#b17d49"/></g></g><g id="armLeft_FL_FL_FL_FL_FL_FL_FL_FL"><g id="Symbol_8_0_Layer0_0_FILL-2"><path d="M42.88,41.34h.05c.38-.14.76-.24,1.12-.3,3.3-.66,6.67,2.17,10.1,8.49l2.55,4.03-2.87.13-3.92.2-1.95,3.47-3.71-.95-3.26,2.02-1.32.88c.41-1.13.33-2.6-.24-4.42l-1.24-3.44c-.75-2.04-.67-4.06.25-6.07.92-1.98,2.4-3.33,4.44-4.04Z" fill="#af7b48"/><path d="M40.99,58.44l3.26-2.02,3.71.95,1.95-3.47,3.92-.2c1.74,5.76,2.82,10.69,3.25,14.82-1.68,2.24-3.96,3.89-6.82,4.95-3.36-3.95-6.45-8.95-9.27-15.02Z" fill="#2ecc71"/></g></g><g id="handLeft_FL_FL_FL_FL_FL_FL_FL_FL"><g id="Symbol_9_0_Layer0_0_FILL-2"><path d="M42.98,72.75c.42-3.49,1.27-6.13,2.53-7.92l9.98.31c.82.01,1.24.4,1.24,1.15l-.02.57c.07,8.26-2.27,12.33-7.03,12.2-1.68-.02-3.4-.26-5.14-.71-1.16-.28-1.73-.83-1.72-1.65v-.25c.03-1,.08-1.97.14-2.91v.05s.03-.82.03-.82M55.43,68.69c-.04-.3-.48-.59-1.33-.87-.82-.29-1.83-.5-3.02-.63-1.22-.09-2.23-.1-3.03-.02-.86.13-1.28.33-1.25.6,0,.31.41.61,1.23.89.83.32,1.85.55,3.08.67,1.19.13,2.2.14,3.03.02.86-.13,1.29-.35,1.28-.66Z" fill="#2ecc71"/><path d="M54.1,67.81c.85.28,1.3.57,1.33.87,0,.31-.43.53-1.28.66-.83.12-1.84.12-3.03-.02-1.23-.13-2.25-.35-3.08-.67-.82-.29-1.23-.59-1.23-.89-.03-.27.39-.47,1.25-.6.8-.08,1.81-.08,3.03.02,1.19.13,2.2.35,3.02.63M42.95,73.53c-2.67-2.36-1.82-5.26,2.55-8.7-1.26,1.8-2.1,4.44-2.53,7.92v.82s-.03-.05-.03-.05Z" fill="#29b665"/></g></g><g id="head_FL_FL_FL_FL"><g id="Symbol_12_0_Layer0_0_FILL"><path d="M35.82,46.65l-9.6,4.55-9.6-4.55h19.2Z" fill="#25a65b"/><path d="M6.92,21.45c.43-2.97,2.13-4.45,5.1-4.45h30.35c2.93,0,4.63,1.52,5.1,4.55,1,6.87,1,13.73,0,20.6-.47,3-2.17,4.5-5.1,4.5H12.02c-2.97,0-4.68-1.52-5.15-4.55-1.03-6.73-1.02-13.62.05-20.65Z" fill="#2ecc71"/></g><g id="Symbol_12_0_Layer0_1_FILL"><path d="M33.32,36.5c-1.03,0-1.88-.38-2.55-1.15-.61-.61-.96-1.33-1.05-2.15h7.25c-.11.82-.44,1.54-1,2.15-.73.77-1.62,1.15-2.65,1.15M14.72,36.5c-1.03,0-1.88-.38-2.55-1.15-.61-.61-.96-1.33-1.05-2.15h7.25c-.11.82-.44,1.54-1,2.15-.73.77-1.62,1.15-2.65,1.15Z" fill="#fff"/><path d="M28.57,28.45c.03-.3.15-.53.35-.7.2-.2.43-.28.7-.25,2.63.23,5.12.1,7.45-.4.3-.07.57-.03.8.1.23.13.37.35.4.65.07.27.03.52-.1.75s-.35.38-.65.45c-2.5.53-5.18.68-8.05.45-.27-.03-.5-.15-.7-.35-.17-.2-.23-.43-.2-.7M10.52,27.25c.23-.13.5-.17.8-.1,2.33.5,4.82.63,7.45.4.27-.03.5.05.7.25.2.17.32.4.35.7.03.27-.03.5-.2.7-.2.2-.43.32-.7.35-2.87.23-5.55.08-8.05-.45-.3-.07-.52-.22-.65-.45-.13-.23-.17-.48-.1-.75.03-.3.17-.52.4-.65Z" fill="#7e8991"/></g><g id="Symbol_12_0_Layer0_1_MEMBER_0_FILL"><path d="M18.42,39.2c-.07-.27-.05-.53.05-.8l2.85,2-2.15,2.55v-.05c-.2-.2-.32-.45-.35-.75l-.4-2.95Z" fill="#7f7058"/><path d="M30.27,38.8c.27.27.4.58.4.95.03.37-.05.7-.25,1-.23.3-.53.5-.9.6l-8.85,2.05c-.27.07-.53.07-.8,0-.27-.1-.5-.25-.7-.45l2.15-2.55-2.85-2s.05-.07.05-.1c.13-.3.35-.52.65-.65.27-.17.55-.23.85-.2l9.3.9c.4.03.72.18.95.45Z" fill="#fff"/></g><g id="Symbol_12_0_Layer0_2_FILL"><path d="M41.61,36.19c.02.11,0,.21-.03.3l-1.82,3.84s-.04.07-.06.11l-2.6,2.93c-.07.09-.17.14-.28.14-.11.02-.21,0-.3-.06l-.55-.41c-.07-.06-.13-.13-.17-.22-.02-.11,0-.21.03-.3l1.66-3.73s.04-.05.06-.08l2.71-3.09c.06-.07.14-.12.25-.14.11-.02.21,0,.3.06l.64.44c.07.06.13.13.17.22Z" fill="#28b162"/></g><g id="Symbol_12_0_Layer0_3_FILL"><path d="M38.32,21.1l-2.45-4.1,5.5,5.6-1.4,1.25-1.65-2.75M9.22,23.5h0l8.1,1.45-.6,1.3-7.5-2.75M6.47,34.8l-.35,1.45C.74,28.13-1.09,19.05.62,9h5.35c-2.49,8.61-2.32,17.21.5,25.8M33.37,7.35l-2.9,2.9c-5.76-3.45-12.08-5.8-18.95-7.05,5.84-.89,11.51-.54,17,1.05l-2.85-3.9c6.15-1.08,11.11.35,14.9,4.3l3.65,3.7,2.9-1.25,4.75,11.1c-.57,1.49-.99,2.92-1.25,4.3l-17.25-15.15Z" fill="#717b83"/><polygon points="23.97 23.95 25.67 19.25 35.87 17 38.32 21.1 23.97 23.95" opacity=".1"/><path d="M5.97,9h2.5l-1.85-4.75c1.65-.44,3.28-.79,4.9-1.05,6.87,1.25,13.19,3.6,18.95,7.05l2.9-2.9,17.25,15.15c-.63,2.96-.58,5.66.15,8.1,1.03,3.58-.19,6.8-3.65,9.65l-4.75-8,2.1-6.5-3.1-3.15-5.5-5.6-10.2,2.25-1.7,4.7-.75,2.05-5.9-1.05-8.1-1.45h0l-2.75,11.3c-2.82-8.59-2.99-17.19-.5-25.8Z" fill="#6b747b"/></g></g></g></svg>